<svg width="94" height="93" viewBox="0 0 94 93" version="1.1" xmlns="http://www.w3.org/2000/svg" xmlns:xlink="http://www.w3.org/1999/xlink">
<g id="Canvas" transform="translate(1238 -771)">
<g id="settings-gears">
<g id="Group">
<g id="Vector">
<mask id="mask0_outline_ins">
<use xlink:href="#path0_fill" fill="white" transform="translate(-1238 771)"/>
</mask>
<g mask="url(#mask0_outline_ins)">
<use xlink:href="#path1_stroke_2x" transform="translate(-1238 771)" fill="#EB5757"/>
</g>
</g>
<g id="Vector">
<mask id="mask1_outline_ins">
<use xlink:href="#path2_fill" fill="white" transform="translate(-1189.81 799.526)"/>
</mask>
<g mask="url(#mask1_outline_ins)">
<use xlink:href="#path3_stroke_2x" transform="translate(-1189.81 799.526)" fill="#EB5757"/>
</g>
</g>
<g id="Vector">
<mask id="mask2_outline_ins">
<use xlink:href="#path4_fill" fill="white" transform="translate(-1219.62 826.838)"/>
</mask>
<g mask="url(#mask2_outline_ins)">
<use xlink:href="#path5_stroke_2x" transform="translate(-1219.62 826.838)" fill="#EB5757"/>
</g>
</g>
</g>
</g>
</g>
<defs>
<path id="path0_fill" d="M 6.17125 33.9464C 6.66536 35.6397 7.35107 37.2725 8.21829 38.8045L 5.74773 41.9189C 4.94102 42.9369 5.03177 44.3883 5.93932 45.3055L 10.1947 49.5588C 11.1124 50.476 12.5645 50.5566 13.5829 49.7502L 16.6787 47.301C 18.2719 48.2183 19.966 48.9338 21.7307 49.4378L 22.1946 53.419C 22.3458 54.7091 23.4349 55.6767 24.7256 55.6767L 30.7457 55.6767C 32.0365 55.6767 33.1255 54.709 33.2768 53.419L 33.7205 49.5789C 35.6163 49.085 37.4314 48.3493 39.1356 47.3917L 42.1305 49.7603C 43.149 50.5666 44.601 50.4759 45.5187 49.5688L 49.7741 45.3155C 50.6917 44.3983 50.7724 42.9469 49.9657 41.9289L 47.6363 38.9757C 48.6044 37.3025 49.3606 35.5186 49.8648 33.654L 53.4547 33.2407C 54.7456 33.0896 55.7135 32.001 55.7135 30.7109L 55.7135 24.6937C 55.7135 23.4036 54.7455 22.315 53.4547 22.1639L 49.9153 21.7506C 49.4311 19.9061 48.7052 18.1423 47.7776 16.4893L 49.9557 13.7378C 50.7624 12.7198 50.6717 11.2684 49.7641 10.3512L 45.5188 6.10791C 44.6011 5.19072 43.1491 5.11008 42.1306 5.91641L 39.4583 8.03301C 37.7239 7.01503 35.8684 6.23894 33.9223 5.71483L 33.5189 2.25771C 33.3677 0.96759 32.2786 -1.15345e-09 30.9879 -1.15345e-09L 24.9678 -1.15345e-09C 23.677 -1.15345e-09 22.588 0.96759 22.4367 2.25771L 22.0333 5.71483C 20.0367 6.24902 18.1309 7.05534 16.3561 8.11364L 13.583 5.91641C 12.5646 5.11008 11.1125 5.20079 10.1948 6.10791L 5.93942 10.3613C 5.02179 11.2785 4.94112 12.7299 5.74783 13.7478L 8.06713 16.6808C 7.13941 18.354 6.43354 20.138 5.96968 21.9925L 2.2588 22.4158C 0.968055 22.567 4.797e-12 23.6556 4.797e-12 24.9457L 4.797e-12 30.9629C 4.797e-12 32.253 0.968055 33.3415 2.2588 33.4927L 6.17125 33.9464ZM 27.9828 17.6687C 33.4684 17.6687 37.9356 22.1337 37.9356 27.6167C 37.9356 33.0997 33.4684 37.5648 27.9828 37.5648C 22.4972 37.5648 18.0299 33.0997 18.0299 27.6167C 18.0299 22.1337 22.4971 17.6687 27.9828 17.6687Z"/>
<path id="path1_stroke_2x" d="M 6.17125 33.9464L 8.09118 33.3861L 7.71953 32.1125L 6.40161 31.9597L 6.17125 33.9464ZM 8.21829 38.8045L 9.78516 40.0474L 10.6225 38.9918L 9.95878 37.8193L 8.21829 38.8045ZM 5.74773 41.9189L 4.18085 40.676L 4.18024 40.6767L 5.74773 41.9189ZM 5.93932 45.3055L 4.51763 46.7122L 4.52545 46.72L 5.93932 45.3055ZM 10.1947 49.5588L 11.6086 48.1443L 11.6086 48.1443L 10.1947 49.5588ZM 13.5829 49.7502L 12.342 48.1818L 12.3415 48.1822L 13.5829 49.7502ZM 16.6787 47.301L 17.6766 45.5678L 16.5013 44.8911L 15.4378 45.7325L 16.6787 47.301ZM 21.7307 49.4378L 23.7173 49.2063L 23.5629 47.8811L 22.2799 47.5147L 21.7307 49.4378ZM 22.1946 53.419L 20.208 53.6505L 20.2082 53.6519L 22.1946 53.419ZM 33.2768 53.419L 35.2632 53.6519L 35.2636 53.6486L 33.2768 53.419ZM 33.7205 49.5789L 33.2163 47.6435L 31.8909 47.9888L 31.7337 49.3493L 33.7205 49.5789ZM 39.1356 47.3917L 40.3762 45.823L 39.3247 44.9914L 38.1559 45.6481L 39.1356 47.3917ZM 42.1305 49.7603L 43.3719 48.1922L 43.3711 48.1916L 42.1305 49.7603ZM 45.5187 49.5688L 46.9247 50.9912L 46.9325 50.9834L 45.5187 49.5688ZM 49.7741 45.3155L 51.188 46.73L 49.7741 45.3155ZM 49.9657 41.9289L 48.3954 43.1675L 48.3982 43.1711L 49.9657 41.9289ZM 47.6363 38.9757L 45.9052 37.9742L 45.2255 39.1488L 46.066 40.2143L 47.6363 38.9757ZM 49.8648 33.654L 49.6361 31.6671L 48.2883 31.8223L 47.9342 33.1319L 49.8648 33.654ZM 53.4547 33.2407L 53.6834 35.2276L 53.6874 35.2272L 53.4547 33.2407ZM 53.4547 22.1639L 53.6874 20.1774L 53.6866 20.1773L 53.4547 22.1639ZM 49.9153 21.7506L 47.9808 22.2584L 48.3274 23.5788L 49.6833 23.7371L 49.9153 21.7506ZM 47.7776 16.4893L 46.2094 15.248L 45.3774 16.2991L 46.0334 17.4681L 47.7776 16.4893ZM 49.9557 13.7378L 48.3882 12.4956L 48.3875 12.4964L 49.9557 13.7378ZM 49.7641 10.3512L 51.1858 8.94445L 51.178 8.93664L 49.7641 10.3512ZM 45.5188 6.10791L 44.1049 7.52246L 45.5188 6.10791ZM 42.1306 5.91641L 40.8891 4.34834L 40.8888 4.34863L 42.1306 5.91641ZM 39.4583 8.03301L 38.446 9.75786L 39.6268 10.4509L 40.7001 9.60079L 39.4583 8.03301ZM 33.9223 5.71483L 31.9358 5.9466L 32.0929 7.29341L 33.4022 7.64602L 33.9223 5.71483ZM 33.5189 2.25771L 35.5054 2.02593L 35.5053 2.02482L 33.5189 2.25771ZM 22.4367 2.25771L 20.4503 2.02482L 20.4502 2.02593L 22.4367 2.25771ZM 22.0333 5.71483L 22.5503 7.64687L 23.8625 7.2958L 24.0199 5.9466L 22.0333 5.71483ZM 16.3561 8.11364L 15.114 9.68122L 16.1954 10.538L 17.3804 9.83142L 16.3561 8.11364ZM 13.583 5.91641L 14.8251 4.34883L 14.8245 4.34834L 13.583 5.91641ZM 10.1948 6.10791L 8.78878 4.68554L 8.78096 4.69336L 10.1948 6.10791ZM 5.93942 10.3613L 7.3533 11.7758L 5.93942 10.3613ZM 5.74783 13.7478L 7.31662 12.5073L 7.31532 12.5057L 5.74783 13.7478ZM 8.06713 16.6808L 9.81624 17.6507L 10.4624 16.4854L 9.63591 15.4403L 8.06713 16.6808ZM 5.96968 21.9925L 6.19636 23.9796L 7.57357 23.8225L 7.90991 22.4778L 5.96968 21.9925ZM 2.2588 22.4158L 2.03211 20.4287L 2.02612 20.4294L 2.2588 22.4158ZM 2.2588 33.4927L 2.02612 35.4791L 2.02843 35.4794L 2.2588 33.4927ZM 4.25133 34.5066C 4.78036 36.3081 5.55573 38.1538 6.47779 39.7897L 9.95878 37.8193C 9.14641 36.3911 8.55037 34.9713 8.09118 33.3861L 4.25133 34.5066ZM 6.65141 37.5615L 4.18085 40.676L 7.3146 43.1618L 9.78516 40.0474L 6.65141 37.5615ZM 4.18024 40.6767C 2.73798 42.4967 2.90692 45.0843 4.51766 46.7122L 7.36099 43.8988C 7.15663 43.6922 7.14405 43.3771 7.31521 43.1611L 4.18024 40.6767ZM 4.52545 46.72L 8.78086 50.9734L 11.6086 48.1443L 7.3532 43.8909L 4.52545 46.72ZM 8.78086 50.9734C 10.4205 52.6123 13.0146 52.7511 14.8244 51.3183L 12.3415 48.1822C 12.1143 48.3621 11.8042 48.3398 11.6086 48.1443L 8.78086 50.9734ZM 14.8238 51.3187L 17.9196 48.8695L 15.4378 45.7325L 12.342 48.1818L 14.8238 51.3187ZM 15.6808 49.0343C 17.3822 50.0095 19.3011 50.8201 21.1815 51.3609L 22.2799 47.5147C 20.6309 47.0476 19.1616 46.4271 17.6766 45.5678L 15.6808 49.0343ZM 19.7442 49.6692L 20.208 53.6505L 24.1812 53.1876L 23.7173 49.2063L 19.7442 49.6692ZM 20.2082 53.6519C 20.4773 55.947 22.4178 57.6767 24.7256 57.6767L 24.7256 53.6767C 24.452 53.6767 24.2144 53.4713 24.181 53.1861L 20.2082 53.6519ZM 24.7256 57.6767L 30.7457 57.6767L 30.7457 53.6767L 24.7256 53.6767L 24.7256 57.6767ZM 30.7457 57.6767C 33.0537 57.6767 34.9941 55.9468 35.2632 53.6519L 31.2904 53.1861C 31.257 53.4713 31.0193 53.6767 30.7457 53.6767L 30.7457 57.6767ZM 35.2636 53.6486L 35.7073 49.8084L 31.7337 49.3493L 31.29 53.1895L 35.2636 53.6486ZM 34.2247 51.5143C 36.2454 50.9835 38.2986 50.1514 40.1152 49.1354L 38.1559 45.6481C 36.5641 46.5471 34.9872 47.1865 33.2163 47.6435L 34.2247 51.5143ZM 37.8949 48.9604L 40.8898 51.329L 43.3711 48.1916L 40.3762 45.823L 37.8949 48.9604ZM 40.889 51.3284C 42.7091 52.7693 45.2965 52.6007 46.9247 50.9912L 44.1126 48.1465C 43.9056 48.3511 43.5888 48.364 43.3719 48.1922L 40.889 51.3284ZM 46.9325 50.9834L 51.188 46.73L 48.3602 43.9009L 44.1048 48.1543L 46.9325 50.9834ZM 51.188 46.73C 52.8279 45.0909 52.9673 42.4965 51.5332 40.6867L 48.3982 43.1711C 48.5774 43.3973 48.5555 43.7057 48.3602 43.9009L 51.188 46.73ZM 51.536 40.6903L 49.2066 37.7371L 46.066 40.2143L 48.3954 43.1675L 51.536 40.6903ZM 49.3674 39.9773C 50.394 38.1953 51.2511 36.1715 51.7955 34.176L 47.9342 33.1319C 47.4702 34.8657 46.8147 36.4097 45.9052 37.9742L 49.3674 39.9773ZM 50.0936 35.6409L 53.6834 35.2276L 53.226 31.2539L 49.6361 31.6671L 50.0936 35.6409ZM 53.6874 35.2272C 55.9818 34.9584 57.7135 33.0197 57.7135 30.7109L 53.7135 30.7109C 53.7135 30.9824 53.5093 31.2207 53.2221 31.2543L 53.6874 35.2272ZM 57.7135 30.7109L 57.7135 24.6937L 53.7135 24.6937L 53.7135 30.7109L 57.7135 30.7109ZM 57.7135 24.6937C 57.7135 22.3849 55.9817 20.4462 53.6874 20.1774L 53.222 24.1503C 53.5092 24.1839 53.7135 24.4223 53.7135 24.6937L 57.7135 24.6937ZM 53.6866 20.1773L 50.1472 19.7641L 49.6833 23.7371L 53.2228 24.1504L 53.6866 20.1773ZM 51.8497 21.2429C 51.3274 19.2702 50.5053 17.2707 49.5217 15.5106L 46.0334 17.4681C 46.9051 19.0139 47.5349 20.542 47.9808 22.2584L 51.8497 21.2429ZM 49.3457 17.7307L 51.5238 14.9791L 48.3875 12.4964L 46.2094 15.248L 49.3457 17.7307ZM 51.5232 14.9799C 52.9654 13.16 52.7965 10.5723 51.1858 8.94447L 48.3424 11.7579C 48.5468 11.9644 48.5594 12.2796 48.3882 12.4956L 51.5232 14.9799ZM 51.178 8.93664L 46.9326 4.69336L 44.1049 7.52246L 48.3502 11.7657L 51.178 8.93664ZM 46.9326 4.69336C 45.2931 3.0546 42.699 2.91548 40.8891 4.34834L 43.372 7.48448C 43.5991 7.30468 43.9092 7.32683 44.1049 7.52246L 46.9326 4.69336ZM 40.8888 4.34863L 38.2165 6.46523L 40.7001 9.60079L 43.3724 7.48419L 40.8888 4.34863ZM 40.4707 6.30816C 38.618 5.22599 36.5157 4.3466 34.4424 3.78364L 33.4022 7.64602C 35.221 8.13128 36.8298 8.80406 38.446 9.75786L 40.4707 6.30816ZM 35.9088 5.48305L 35.5054 2.02593L 31.5324 2.48949L 31.9358 5.9466L 35.9088 5.48305ZM 35.5053 2.02482C 35.2362 -0.270246 33.2957 -2 30.9879 -2L 30.9879 2C 31.2615 2 31.4991 2.20543 31.5325 2.4906L 35.5053 2.02482ZM 30.9879 -2L 24.9678 -2L 24.9678 2L 30.9879 2L 30.9879 -2ZM 24.9678 -2C 22.6599 -2 20.7194 -0.270245 20.4503 2.02482L 24.4231 2.4906C 24.4565 2.20542 24.6941 2 24.9678 2L 24.9678 -2ZM 20.4502 2.02593L 20.0468 5.48305L 24.0199 5.9466L 24.4232 2.48949L 20.4502 2.02593ZM 21.5164 3.78278C 19.3871 4.35747 17.2269 5.27127 15.3318 6.39586L 17.3804 9.83142C 19.0348 8.83941 20.6864 8.14056 22.5503 7.64687L 21.5164 3.78278ZM 17.5982 6.54607L 14.8251 4.34883L 12.341 7.48398L 15.114 9.68122L 17.5982 6.54607ZM 14.8245 4.34834C 13.0044 2.90741 10.417 3.07598 8.7888 4.68557L 11.6009 7.53025C 11.8079 7.3256 12.1247 7.31276 12.3416 7.48448L 14.8245 4.34834ZM 8.78096 4.69336L 4.52555 8.94672L 7.3533 11.7758L 11.6087 7.52246L 8.78096 4.69336ZM 4.52555 8.94672C 2.88561 10.5859 2.74617 13.1802 4.18034 14.99L 7.31532 12.5057C 7.13606 12.2795 7.15797 11.9711 7.3533 11.7758L 4.52555 8.94672ZM 4.17904 14.9884L 6.49834 17.9214L 9.63591 15.4403L 7.31661 12.5073L 4.17904 14.9884ZM 6.31802 15.711C 5.33121 17.4993 4.52944 19.5261 4.02945 21.5072L 7.90991 22.4778C 8.33763 20.7498 8.94761 19.2086 9.81624 17.6507L 6.31802 15.711ZM 5.74299 20.0054L 2.03212 20.4287L 2.48548 24.4029L 6.19636 23.9796L 5.74299 20.0054ZM 2.02612 20.4294C -0.268157 20.6981 -2 22.6368 -2 24.9457L 2 24.9457C 2 24.6743 2.20427 24.4359 2.49147 24.4022L 2.02612 20.4294ZM -2 24.9457L -2 30.9629L 2 30.9629L 2 24.9457L -2 24.9457ZM -2 30.9629C -2 33.2717 -0.268154 35.2104 2.02612 35.4791L 2.49147 31.5063C 2.20427 31.4727 2 31.2343 2 30.9629L -2 30.9629ZM 2.02843 35.4794L 5.94089 35.9331L 6.40161 31.9597L 2.48916 31.506L 2.02843 35.4794ZM 27.9828 19.6687C 32.3647 19.6687 35.9356 23.2392 35.9356 27.6167L 39.9356 27.6167C 39.9356 21.0282 34.5721 15.6687 27.9828 15.6687L 27.9828 19.6687ZM 35.9356 27.6167C 35.9356 31.9943 32.3647 35.5648 27.9828 35.5648L 27.9828 39.5648C 34.5721 39.5648 39.9356 34.2052 39.9356 27.6167L 35.9356 27.6167ZM 27.9828 35.5648C 23.6009 35.5648 20.0299 31.9942 20.0299 27.6167L 16.0299 27.6167C 16.0299 34.2052 21.3936 39.5648 27.9828 39.5648L 27.9828 35.5648ZM 20.0299 27.6167C 20.0299 23.2392 23.6008 19.6687 27.9828 19.6687L 27.9828 15.6687C 21.3934 15.6687 16.0299 21.0282 16.0299 27.6167L 20.0299 27.6167Z"/>
<path id="path2_fill" d="M 39.3049 6.90204L 36.1284 4.22101C 35.1504 3.39452 33.7083 3.43484 32.7807 4.31172L 31.0261 5.95461C 29.5438 5.23899 27.9708 4.73504 26.3471 4.44275L 25.8532 2.02377C 25.6011 0.773969 24.4415 -0.0928304 23.1707 0.00796015L 19.0262 0.360727C 17.7556 0.471597 16.7573 1.50974 16.717 2.78978L 16.6364 5.24907C 15.0431 5.82358 13.5406 6.60974 12.1692 7.59749L 10.0718 6.20658C 9.00271 5.50105 7.58098 5.70263 6.7542 6.6803L 4.07188 9.87536C 3.2449 10.853 3.28523 12.2943 4.16243 13.2216L 5.99781 15.1768C 5.36242 16.6081 4.90864 18.11 4.64656 19.6519L 2.02474 20.1861C 0.77434 20.4381 -0.0928764 21.5972 0.0079627 22.8673L 0.3609 27.0098C 0.471823 28.2797 1.51047 29.2775 2.79112 29.3179L 5.6247 29.4085C 6.13918 30.7591 6.8147 32.0392 7.6314 33.2385L 6.04833 35.6273C 5.34245 36.6956 5.54413 38.1168 6.52217 38.9433L 9.6986 41.6243C 10.6768 42.4508 12.1187 42.4105 13.0466 41.5336L 15.1238 39.5883C 16.4852 40.2233 17.917 40.697 19.3892 40.9792L 19.9641 43.8215C 20.2162 45.0713 21.3759 45.9381 22.6464 45.8373L 26.7909 45.4846C 28.0615 45.3737 29.0598 44.3357 29.1001 43.0555L 29.1909 40.2736C 30.7035 39.7394 32.1353 39.0137 33.4563 38.1168L 35.7454 39.6286C 36.8143 40.3342 38.2361 40.1326 39.0631 39.1549L 41.7454 35.98C 42.5722 35.0024 42.5318 33.561 41.6546 32.6338L 39.8092 30.6785C 40.4849 29.2473 40.9791 27.7355 41.2612 26.1832L 43.7822 25.6691C 45.0326 25.4172 45.8998 24.2581 45.799 22.988L 45.4461 18.8455C 45.3351 17.5756 44.2965 16.5777 43.0158 16.5374L 40.4848 16.4568C 39.9603 14.9852 39.2544 13.5944 38.3772 12.3042L 39.7586 10.2279C 40.4848 9.15974 40.2831 7.72852 39.3049 6.90204ZM 23.6851 30.8498C 19.2078 31.2329 15.2547 27.8966 14.8817 23.4216C 14.4984 18.9465 17.8364 14.9954 22.3135 14.6225C 26.7907 14.2395 30.7438 17.5758 31.1168 22.0508C 31.5001 26.526 28.1621 30.477 23.6851 30.8498Z"/>
<path id="path3_stroke_2x" d="M 39.3049 6.90204L 40.5956 5.37429L 40.5949 5.37367L 39.3049 6.90204ZM 36.1284 4.22101L 34.8375 5.74862L 34.8384 5.74937L 36.1284 4.22101ZM 32.7807 4.31172L 34.1477 5.77166L 34.1546 5.76512L 32.7807 4.31172ZM 31.0261 5.95461L 30.1565 7.75568L 31.3918 8.35205L 32.393 7.41453L 31.0261 5.95461ZM 26.3471 4.44275L 24.3876 4.84285L 24.6587 6.17094L 25.9928 6.4111L 26.3471 4.44275ZM 25.8532 2.02377L 23.8927 2.41923L 23.8937 2.42388L 25.8532 2.02377ZM 23.1707 0.00796015L 23.0126 -1.98581L 23.0011 -1.98483L 23.1707 0.00796015ZM 19.0262 0.360727L 18.8566 -1.63207L 18.8524 -1.6317L 19.0262 0.360727ZM 16.717 2.78978L 18.7159 2.85527L 18.716 2.85277L 16.717 2.78978ZM 16.6364 5.24907L 17.3148 7.13051L 18.5909 6.67038L 18.6354 5.31456L 16.6364 5.24907ZM 12.1692 7.59749L 11.0638 9.26427L 12.2161 10.0284L 13.338 9.22037L 12.1692 7.59749ZM 10.0718 6.20658L 11.1772 4.5398L 11.1734 4.53731L 10.0718 6.20658ZM 6.7542 6.6803L 5.22705 5.38884L 5.22243 5.39434L 6.7542 6.6803ZM 4.07188 9.87536L 5.59888 11.167L 5.60365 11.1613L 4.07188 9.87536ZM 4.16243 13.2216L 5.62064 11.8528L 5.61533 11.8472L 4.16243 13.2216ZM 5.99781 15.1768L 7.82577 15.9884L 8.3642 14.7755L 7.45601 13.808L 5.99781 15.1768ZM 4.64656 19.6519L 5.04585 21.6117L 6.38866 21.3381L 6.61829 19.9871L 4.64656 19.6519ZM 2.02474 20.1861L 2.41984 22.1467L 2.42404 22.1459L 2.02474 20.1861ZM 0.0079627 22.8673L -1.9858 23.0256L -1.98482 23.0371L 0.0079627 22.8673ZM 0.3609 27.0098L -1.63189 27.1795L -1.63151 27.1838L 0.3609 27.0098ZM 2.79112 29.3179L 2.85504 27.3189L 2.85405 27.3189L 2.79112 29.3179ZM 5.6247 29.4085L 7.49369 28.6965L 7.01964 27.4521L 5.68862 27.4095L 5.6247 29.4085ZM 7.6314 33.2385L 9.29853 34.3434L 10.0408 33.2234L 9.2845 32.1128L 7.6314 33.2385ZM 6.04833 35.6273L 4.3812 34.5224L 4.37964 34.5248L 6.04833 35.6273ZM 6.52217 38.9433L 5.23127 40.4709L 5.23217 40.4716L 6.52217 38.9433ZM 9.6986 41.6243L 10.9893 40.0966L 10.9886 40.0959L 9.6986 41.6243ZM 13.0466 41.5336L 11.6795 40.0737L 11.6728 40.08L 13.0466 41.5336ZM 15.1238 39.5883L 15.9693 37.7758L 14.7438 37.2042L 13.7568 38.1285L 15.1238 39.5883ZM 19.3892 40.9792L 21.3495 40.5827L 21.0835 39.2676L 19.7658 39.015L 19.3892 40.9792ZM 19.9641 43.8215L 21.9246 43.4261L 21.9244 43.425L 19.9641 43.8215ZM 22.6464 45.8373L 22.8046 47.8311L 22.8161 47.8301L 22.6464 45.8373ZM 26.7909 45.4846L 26.9606 47.4774L 26.9648 47.477L 26.7909 45.4846ZM 29.1001 43.0555L 27.1012 42.9903L 27.1011 42.9925L 29.1001 43.0555ZM 29.1909 40.2736L 28.5249 38.3878L 27.2365 38.8428L 27.192 40.2084L 29.1909 40.2736ZM 33.4563 38.1168L 34.5585 36.4479L 33.4409 35.7098L 32.3328 36.4622L 33.4563 38.1168ZM 35.7454 39.6286L 34.6432 41.2975L 34.6437 41.2978L 35.7454 39.6286ZM 39.0631 39.1549L 40.59 40.4466L 40.5908 40.4457L 39.0631 39.1549ZM 41.7454 35.98L 40.2182 34.6886L 40.2176 34.6893L 41.7454 35.98ZM 41.6546 32.6338L 40.2002 34.0066L 40.2017 34.0082L 41.6546 32.6338ZM 39.8092 30.6785L 38.0006 29.8247L 37.4179 31.0588L 38.3547 32.0513L 39.8092 30.6785ZM 41.2612 26.1832L 40.8617 24.2235L 39.5355 24.4939L 39.2935 25.8255L 41.2612 26.1832ZM 43.7822 25.6691L 43.3871 23.7086L 43.3826 23.7095L 43.7822 25.6691ZM 45.799 22.988L 47.7928 22.8297L 47.7918 22.8182L 45.799 22.988ZM 45.4461 18.8455L 47.4389 18.6757L 47.4385 18.6715L 45.4461 18.8455ZM 43.0158 16.5374L 42.9522 18.5364L 42.9529 18.5364L 43.0158 16.5374ZM 40.4848 16.4568L 38.6009 17.1282L 39.0585 18.4124L 40.4211 18.4558L 40.4848 16.4568ZM 38.3772 12.3042L 36.7121 11.1964L 35.967 12.3163L 36.7233 13.4287L 38.3772 12.3042ZM 39.7586 10.2279L 38.1046 9.10354L 38.099 9.11178L 38.0935 9.12008L 39.7586 10.2279ZM 23.6851 30.8498L 23.5191 28.8567L 23.5146 28.8571L 23.6851 30.8498ZM 14.8817 23.4216L 16.8748 23.2555L 16.8744 23.2509L 14.8817 23.4216ZM 22.3135 14.6225L 22.4795 16.6156L 22.4839 16.6152L 22.3135 14.6225ZM 31.1168 22.0508L 29.1237 22.2169L 29.1241 22.2214L 31.1168 22.0508ZM 40.5949 5.37367L 37.4184 2.69264L 34.8384 5.74937L 38.0149 8.4304L 40.5949 5.37367ZM 37.4193 2.6934C 35.665 1.21089 33.0756 1.28081 31.4068 2.85831L 34.1546 5.76512C 34.341 5.58887 34.6358 5.57816 34.8375 5.74862L 37.4193 2.6934ZM 31.4137 2.85179L 29.6591 4.49468L 32.393 7.41453L 34.1477 5.77164L 31.4137 2.85179ZM 31.8956 4.15353C 30.2855 3.38159 28.4541 2.79432 26.7015 2.47439L 25.9928 6.4111C 27.4874 6.67576 28.8022 7.09639 30.1565 7.75568L 31.8956 4.15353ZM 28.3067 4.04264L 27.8128 1.62366L 23.8937 2.42388L 24.3876 4.84285L 28.3067 4.04264ZM 27.8137 1.62832C 27.3597 -0.622764 25.2828 -2.16584 23.0126 -1.98578L 23.3288 2.0017C 23.6001 1.98018 23.8426 2.1707 23.8927 2.41923L 27.8137 1.62832ZM 23.0011 -1.98483L 18.8566 -1.63207L 19.1958 2.35352L 23.3403 2.00075L 23.0011 -1.98483ZM 18.8524 -1.6317C 16.5875 -1.43407 14.7907 0.419219 14.718 2.72679L 18.716 2.85277C 18.724 2.60026 18.9238 2.37727 19.2001 2.35316L 18.8524 -1.6317ZM 14.7181 2.72429L 14.6375 5.18358L 18.6354 5.31456L 18.7159 2.85527L 14.7181 2.72429ZM 15.9581 3.36763C 14.2384 3.99259 12.4899 4.90797 11.0003 5.97461L 13.338 9.22037C 14.5913 8.31152 15.8477 7.65457 17.3148 7.13051L 15.9581 3.36763ZM 13.2745 5.93071L 11.1772 4.5398L 8.96644 7.87336L 11.0638 9.26427L 13.2745 5.93071ZM 11.1734 4.53731C 9.26245 3.2762 6.71075 3.63438 5.22706 5.38885L 8.28134 7.97175C 8.45121 7.77088 8.74297 7.72589 8.9702 7.87585L 11.1734 4.53731ZM 5.22243 5.39434L 2.54011 8.58941L 5.60365 11.1613L 8.28597 7.96625L 5.22243 5.39434ZM 2.5449 8.58373C 1.061 10.338 1.13108 12.9275 2.70953 14.596L 5.61533 11.8472C 5.43938 11.6612 5.4288 11.368 5.59887 11.167L 2.5449 8.58373ZM 2.70423 14.5904L 4.53961 16.5457L 7.45601 13.808L 5.62063 11.8528L 2.70423 14.5904ZM 4.16985 14.3653C 3.48756 15.9117 2.96171 17.6523 2.67484 19.3168L 6.61829 19.9871C 6.85557 18.5676 7.23729 17.3044 7.82577 15.9884L 4.16985 14.3653ZM 4.24727 17.6922L 1.62545 18.2264L 2.42404 22.1459L 5.04585 21.6117L 4.24727 17.6922ZM 1.62966 18.2255C -0.620795 18.679 -2.16609 20.7543 -1.98576 23.0256L 2.00169 22.709C 1.98034 22.4401 2.16948 22.1972 2.41983 22.1467L 1.62966 18.2255ZM -1.98482 23.0371L -1.63188 27.1795L 2.35368 26.84L 2.00074 22.6975L -1.98482 23.0371ZM -1.63151 27.1838C -1.43362 29.4495 0.421548 31.2443 2.72819 31.3169L 2.85405 27.3189C 2.59938 27.3108 2.37727 27.11 2.35331 26.8357L -1.63151 27.1838ZM 2.7272 31.3168L 5.56078 31.4075L 5.68862 27.4095L 2.85504 27.3189L 2.7272 31.3168ZM 3.75571 30.1204C 4.31691 31.5833 5.10103 33.0704 5.97829 34.3642L 9.2845 32.1128C 8.52837 31.008 7.96146 29.9349 7.49369 28.6965L 3.75571 30.1204ZM 5.96427 32.1337L 4.3812 34.5224L 7.71546 36.7321L 9.29853 34.3434L 5.96427 32.1337ZM 4.37964 34.5248C 3.11699 36.4359 3.4762 38.9878 5.23127 40.4709L 7.81306 37.4157C 7.61206 37.2458 7.56792 36.9554 7.71701 36.7297L 4.37964 34.5248ZM 5.23217 40.4716L 8.4086 43.1527L 10.9886 40.0959L 7.81217 37.4149L 5.23217 40.4716ZM 8.40786 43.152C 10.1624 44.6344 12.7514 44.5644 14.4203 42.9871L 11.6728 40.08C 11.4861 40.2565 11.1913 40.2672 10.9893 40.0966L 8.40786 43.152ZM 14.4136 42.9934L 16.4909 41.0482L 13.7568 38.1285L 11.6795 40.0737L 14.4136 42.9934ZM 14.2784 41.4008C 15.7471 42.0821 17.4136 42.6326 19.0127 42.9435L 19.7658 39.015C 18.4204 38.7614 17.2233 38.3645 15.9693 37.7758L 14.2784 41.4008ZM 17.4289 41.3757L 18.0038 44.218L 21.9244 43.425L 21.3495 40.5827L 17.4289 41.3757ZM 18.0036 44.217C 18.4577 46.468 20.5344 48.0112 22.8046 47.8311L 22.4883 43.8436C 22.2173 43.8651 21.9748 43.6747 21.9246 43.4261L 18.0036 44.217ZM 22.8161 47.8301L 26.9606 47.4774L 26.6213 43.4918L 22.4768 43.8445L 22.8161 47.8301ZM 26.9648 47.477C 29.2296 47.2794 31.0264 45.4262 31.0992 43.1185L 27.1011 42.9925C 27.0932 43.2451 26.8934 43.468 26.6171 43.4921L 26.9648 47.477ZM 31.0991 43.1207L 31.1898 40.3388L 27.192 40.2084L 27.1012 42.9903L 31.0991 43.1207ZM 29.8569 42.1595C 31.4902 41.5782 33.1512 40.7365 34.5798 39.7714L 32.3328 36.4622C 31.1194 37.2909 29.9168 37.9007 28.5249 38.3878L 29.8569 42.1595ZM 32.3541 39.7857L 34.6432 41.2975L 36.8477 37.9598L 34.5585 36.4479L 32.3541 39.7857ZM 34.6437 41.2978C 36.5547 42.5592 39.1063 42.2006 40.59 40.4466L 37.5361 37.8633C 37.3658 38.0645 37.074 38.1092 36.8472 37.9595L 34.6437 41.2978ZM 40.5908 40.4457L 43.2731 37.2707L 40.2176 34.6893L 37.5353 37.8642L 40.5908 40.4457ZM 43.2725 37.2715C 44.756 35.5172 44.6859 32.9279 43.1075 31.2593L 40.2017 34.0082C 40.3777 34.1942 40.3883 34.4875 40.2182 34.6886L 43.2725 37.2715ZM 43.1091 31.261L 41.2636 29.3057L 38.3547 32.0513L 40.2002 34.0066L 43.1091 31.261ZM 41.6177 31.5324C 42.3433 29.9864 42.918 28.2261 43.229 26.5408L 39.2935 25.8255C 39.0402 27.2448 38.6265 28.5082 38.0006 29.8247L 41.6177 31.5324ZM 41.6608 28.1429L 44.1818 27.6288L 43.3826 23.7095L 40.8617 24.2235L 41.6608 28.1429ZM 44.1773 27.6297C 46.4278 27.1762 47.9731 25.101 47.7927 22.8297L 43.8053 23.1463C 43.8266 23.4152 43.6375 23.6581 43.3871 23.7086L 44.1773 27.6297ZM 47.7918 22.8182L 47.4388 18.6757L 43.4533 19.0153L 43.8062 23.1578L 47.7918 22.8182ZM 47.4385 18.6715C 47.2406 16.4058 45.3854 14.611 43.0788 14.5384L 42.9529 18.5364C 43.2076 18.5444 43.4297 18.7453 43.4537 19.0195L 47.4385 18.6715ZM 43.0795 14.5384L 40.5485 14.4578L 40.4211 18.4558L 42.9522 18.5364L 43.0795 14.5384ZM 42.3687 15.7853C 41.7977 14.1953 40.9766 12.5775 40.0312 11.1797L 36.7233 13.4287C 37.5323 14.6113 38.1229 15.7751 38.6009 17.1282L 42.3687 15.7853ZM 40.0424 13.4121L 41.4238 11.3358L 38.0935 9.12008L 36.7121 11.1964L 40.0424 13.4121ZM 41.4127 11.3523C 42.716 9.43506 42.3537 6.85968 40.5956 5.3743L 38.0141 8.42978C 38.2125 8.59736 38.2536 8.88443 38.1046 9.10354L 41.4127 11.3523ZM 23.5146 28.8571C 20.1387 29.1459 17.1559 26.6272 16.8748 23.2555L 12.8886 23.5877C 13.3536 29.1661 18.277 33.3198 23.8556 32.8425L 23.5146 28.8571ZM 16.8744 23.2509C 16.5856 19.8792 19.104 16.8968 22.4795 16.6156L 22.1475 12.6294C 16.5688 13.0941 12.4112 18.0138 12.889 23.5923L 16.8744 23.2509ZM 22.4839 16.6152C 25.8598 16.3264 28.8427 18.8452 29.1237 22.2169L 33.1099 21.8846C 32.645 16.3063 27.7216 12.1526 22.143 12.6298L 22.4839 16.6152ZM 29.1241 22.2214C 29.4129 25.5933 26.8946 28.5756 23.5191 28.8567L 23.8511 32.8429C 29.4297 32.3783 33.5873 27.4587 33.1095 21.8801L 29.1241 22.2214Z"/>
<path id="path4_fill" d="M 2.28936 14.6856C 1.01879 14.8166 0.0406521 15.8849 0.0305682 17.1651L 0.000316163 19.7151C -0.0198517 20.9951 0.928036 22.0836 2.19861 22.245L 4.07422 22.4868C 4.38682 23.6258 4.83051 24.7144 5.40529 25.7424L 4.19522 27.2341C 3.38851 28.2319 3.44901 29.6632 4.34648 30.5804L 6.13133 32.4047C 7.0288 33.3219 8.46072 33.4227 9.47919 32.6365L 10.9816 31.4774C 12.0404 32.1023 13.1598 32.5963 14.3295 32.9389L 14.5311 34.8741C 14.6622 36.144 15.7311 37.1217 17.0118 37.1318L 19.5631 37.162C 20.8437 37.1822 21.9328 36.2347 22.0942 34.9648L 22.3261 33.1304C 23.5968 32.8178 24.8068 32.3442 25.9563 31.7193L 27.3681 32.8583C 28.3664 33.6646 29.7984 33.6041 30.716 32.7071L 32.5412 30.9231C 33.4588 30.0261 33.5597 28.5948 32.7732 27.5768L 31.694 26.1757C 32.3596 25.067 32.874 23.8878 33.2269 22.6481L 34.9008 22.4767C 36.1714 22.3457 37.1494 21.2773 37.1596 19.9973L 37.1898 17.4472C 37.21 16.1672 36.2622 15.0786 34.9916 14.9173L 33.3579 14.7057C 33.0453 13.476 32.5815 12.2867 31.9765 11.178L 32.995 9.92819C 33.8017 8.93036 33.7412 7.49913 32.8437 6.58194L 31.059 4.75763C 30.1615 3.84034 28.7294 3.73955 27.711 4.52582L 26.4908 5.46317C 25.3413 4.76771 24.1109 4.23352 22.8203 3.87068L 22.6589 2.28826C 22.5278 1.0182 21.459 0.0406307 20.1782 0.0305516L 17.627 0.000315654C 16.3463 -0.0198425 15.2573 0.927588 15.0958 2.19755L 14.8942 3.76998C 13.5632 4.11257 12.2825 4.63678 11.0926 5.32206L 9.83213 4.29399C 8.83382 3.48767 7.40181 3.54824 6.48417 4.44518L 4.6489 6.23935C 3.73126 7.13629 3.63042 8.56761 4.41697 9.5855L 5.49595 10.9765C 4.87074 12.0852 4.37663 13.2644 4.05395 14.5042L 2.28936 14.6856ZM 18.7564 11.8029C 22.4168 11.8432 25.3512 14.8569 25.3109 18.5156C 25.2706 22.1743 22.2554 25.1073 18.5949 25.067C 14.9345 25.0267 12.0002 22.0131 12.0404 18.3543C 12.0808 14.6957 15.0959 11.7627 18.7564 11.8029Z"/>
<path id="path5_stroke_2x" d="M 2.28936 14.6856L 2.08482 12.6961L 2.0842 12.6962L 2.28936 14.6856ZM 0.0305682 17.1651L 2.03044 17.1888L 2.03051 17.1808L 0.0305682 17.1651ZM 0.000316163 19.7151L 2.00008 19.7466L 2.00018 19.7388L 0.000316163 19.7151ZM 2.19861 22.245L 2.45433 20.2614L 2.45059 20.2609L 2.19861 22.245ZM 4.07422 22.4868L 6.0029 21.9575L 5.65051 20.6735L 4.32993 20.5032L 4.07422 22.4868ZM 5.40529 25.7424L 6.95851 27.0024L 7.8125 25.9496L 7.15098 24.7664L 5.40529 25.7424ZM 4.19522 27.2341L 2.642 25.9742L 2.63999 25.9767L 4.19522 27.2341ZM 4.34648 30.5804L 5.77607 29.1817L 5.77598 29.1816L 4.34648 30.5804ZM 6.13133 32.4047L 4.70174 33.8034L 4.70183 33.8035L 6.13133 32.4047ZM 9.47919 32.6365L 8.25752 31.053L 8.25711 31.0533L 9.47919 32.6365ZM 10.9816 31.4774L 11.9981 29.755L 10.832 29.0668L 9.75993 29.8939L 10.9816 31.4774ZM 14.3295 32.9389L 16.3187 32.7316L 16.1796 31.3968L 14.8916 31.0195L 14.3295 32.9389ZM 14.5311 34.8741L 16.5206 34.6687L 16.5204 34.6668L 14.5311 34.8741ZM 17.0118 37.1318L 17.0355 35.1319L 17.0275 35.1318L 17.0118 37.1318ZM 19.5631 37.162L 19.5946 35.1622L 19.5868 35.1622L 19.5631 37.162ZM 22.0942 34.9648L 24.0782 35.2168L 24.0784 35.2156L 22.0942 34.9648ZM 22.3261 33.1304L 21.8484 31.1883L 20.5142 31.5164L 20.3419 32.8795L 22.3261 33.1304ZM 25.9563 31.7193L 27.2121 30.1627L 26.1735 29.3248L 25.0011 29.9622L 25.9563 31.7193ZM 27.3681 32.8583L 28.6247 31.3024L 28.6238 31.3017L 27.3681 32.8583ZM 30.716 32.7071L 29.318 31.2768L 29.3179 31.2769L 30.716 32.7071ZM 32.5412 30.9231L 33.9392 32.3533L 33.9392 32.3533L 32.5412 30.9231ZM 32.7732 27.5768L 31.1888 28.7973L 31.1905 28.7995L 32.7732 27.5768ZM 31.694 26.1757L 29.9793 25.1464L 29.2774 26.3157L 30.1096 27.3962L 31.694 26.1757ZM 33.2269 22.6481L 33.0232 20.6585L 31.6746 20.7965L 31.3033 22.1004L 33.2269 22.6481ZM 34.9008 22.4767L 35.1045 24.4663L 35.106 24.4662L 34.9008 22.4767ZM 37.1596 19.9973L 35.1598 19.9736L 35.1597 19.9814L 37.1596 19.9973ZM 37.1898 17.4472L 35.19 17.4155L 35.1899 17.4235L 37.1898 17.4472ZM 34.9916 14.9173L 34.7346 16.9008L 34.7398 16.9014L 34.9916 14.9173ZM 33.3579 14.7057L 31.4195 15.1984L 31.7541 16.5146L 33.1009 16.6891L 33.3579 14.7057ZM 31.9765 11.178L 30.4261 9.91456L 29.5771 10.9564L 30.2209 12.1361L 31.9765 11.178ZM 32.995 9.92819L 34.5454 11.1916L 34.5503 11.1856L 32.995 9.92819ZM 32.8437 6.58194L 31.4141 7.98057L 31.4142 7.9807L 32.8437 6.58194ZM 31.059 4.75763L 32.4886 3.359L 32.4885 3.35895L 31.059 4.75763ZM 27.711 4.52582L 28.9294 6.11189L 28.9333 6.10888L 27.711 4.52582ZM 26.4908 5.46317L 25.4554 7.17435L 26.625 7.88198L 27.7091 7.04924L 26.4908 5.46317ZM 22.8203 3.87068L 20.8306 4.07367L 20.9688 5.42768L 22.279 5.79604L 22.8203 3.87068ZM 22.6589 2.28826L 24.6485 2.08527L 24.6483 2.08292L 22.6589 2.28826ZM 20.1782 0.0305516L 20.1545 2.03043L 20.1625 2.03049L 20.1782 0.0305516ZM 17.627 0.000315654L 17.5955 2.00008L 17.6033 2.00018L 17.627 0.000315654ZM 15.0958 2.19755L 17.0796 2.45198L 17.0799 2.44977L 15.0958 2.19755ZM 14.8942 3.76998L 15.3927 5.70685L 16.7055 5.36895L 16.8779 4.02442L 14.8942 3.76998ZM 11.0926 5.32206L 9.82853 6.87193L 10.8965 7.74297L 12.0907 7.05519L 11.0926 5.32206ZM 9.83213 4.29399L 11.0962 2.74411L 11.0888 2.73811L 9.83213 4.29399ZM 6.48417 4.44518L 5.08618 3.01492L 5.08606 3.01504L 6.48417 4.44518ZM 4.6489 6.23935L 6.04689 7.66961L 6.04701 7.66949L 4.6489 6.23935ZM 4.41697 9.5855L 2.83439 10.8084L 2.83666 10.8113L 4.41697 9.5855ZM 5.49595 10.9765L 7.23805 11.9589L 7.89098 10.801L 7.07626 9.7507L 5.49595 10.9765ZM 4.05395 14.5042L 4.25849 16.4937L 5.63973 16.3517L 5.98947 15.0079L 4.05395 14.5042ZM 18.7564 11.8029L 18.7784 9.80301L 18.7784 9.80301L 18.7564 11.8029ZM 25.3109 18.5156L 27.3108 18.5377L 27.3108 18.5376L 25.3109 18.5156ZM 18.5949 25.067L 18.5729 27.0669L 18.573 27.0669L 18.5949 25.067ZM 12.0404 18.3543L 10.0405 18.3322L 10.0405 18.3323L 12.0404 18.3543ZM 2.0842 12.6962C -0.194174 12.9311 -1.95121 14.8441 -1.96937 17.1493L 2.03051 17.1808C 2.03252 16.9257 2.23176 16.7022 2.49453 16.6751L 2.0842 12.6962ZM -1.96929 17.1413L -1.99954 19.6913L 2.00018 19.7388L 2.03043 17.1888L -1.96929 17.1413ZM -1.99944 19.6835C -2.03573 21.9874 -0.330247 23.9399 1.94663 24.2291L 2.45059 20.2609C 2.18632 20.2274 1.99603 20.0028 2.00007 19.7466L -1.99944 19.6835ZM 1.94289 24.2286L 3.8185 24.4704L 4.32993 20.5032L 2.45432 20.2614L 1.94289 24.2286ZM 2.14553 23.0161C 2.49308 24.2691 3.02824 25.5815 3.65961 26.7184L 7.15098 24.7664C 6.63277 23.8473 6.28055 22.9826 6.0029 21.9575L 2.14553 23.0161ZM 3.85207 24.4825L 2.642 25.9742L 5.74844 28.4941L 6.95851 27.0024L 3.85207 24.4825ZM 2.63999 25.9767C 1.20201 27.7551 1.30232 30.329 2.91698 31.9791L 5.77598 29.1816C 5.5957 28.9974 5.57501 28.7086 5.75045 28.4916L 2.63999 25.9767ZM 2.91689 31.979L 4.70174 33.8034L 7.56093 31.006L 5.77607 29.1817L 2.91689 31.979ZM 4.70183 33.8035C 6.3085 35.4454 8.87993 35.6256 10.7013 34.2197L 8.25711 31.0533C 8.0415 31.2197 7.74911 31.1983 7.56084 31.0059L 4.70183 33.8035ZM 10.7009 34.22L 12.2033 33.0609L 9.75993 29.8939L 8.25752 31.053L 10.7009 34.22ZM 9.96505 33.1998C 11.1268 33.8815 12.4735 34.4749 13.7673 34.8582L 14.8916 31.0195C 13.8461 30.7177 12.954 30.3232 11.9981 29.755L 9.96505 33.1998ZM 12.3402 33.1462L 12.5419 35.0814L 16.5204 34.6668L 16.3187 32.7316L 12.3402 33.1462ZM 12.5417 35.0794C 12.777 37.3587 14.692 39.1136 16.996 39.1317L 17.0275 35.1318C 16.7702 35.1298 16.5475 34.9294 16.5206 34.6687L 12.5417 35.0794ZM 16.9881 39.1316L 19.5394 39.1619L 19.5868 35.1622L 17.0355 35.1319L 16.9881 39.1316ZM 19.5316 39.1618C 21.8343 39.198 23.7888 37.4947 24.0782 35.2168L 20.1101 34.7127C 20.0768 34.9748 19.853 35.1663 19.5946 35.1623L 19.5316 39.1618ZM 24.0784 35.2156L 24.3103 33.3813L 20.3419 32.8795L 20.11 34.7139L 24.0784 35.2156ZM 22.8038 35.0725C 24.2014 34.7243 25.6506 34.1575 26.9116 33.4764L 25.0011 29.9622C 23.9631 30.5309 22.9921 30.9114 21.8484 31.1883L 22.8038 35.0725ZM 24.7005 33.2759L 26.1123 34.4148L 28.6238 31.3017L 27.2121 30.1627L 24.7005 33.2759ZM 26.1114 34.4141C 27.89 35.8507 30.4635 35.7507 32.1141 34.1372L 29.3179 31.2769C 29.1332 31.4575 28.8427 31.4784 28.6247 31.3024L 26.1114 34.4141ZM 32.114 34.1373L 33.9392 32.3533L 31.1432 29.4928L 29.318 31.2768L 32.114 34.1373ZM 33.9392 32.3533C 35.5825 30.7471 35.7629 28.1753 34.3559 26.3541L 31.1905 28.7995C 31.3564 29.0143 31.3352 29.3051 31.1432 29.4928L 33.9392 32.3533ZM 34.3577 26.3564L 33.2785 24.9553L 30.1096 27.3962L 31.1888 28.7973L 34.3577 26.3564ZM 33.4088 27.2051C 34.1373 25.9834 34.7566 24.5629 35.1505 23.1957L 31.3033 22.1004C 30.9914 23.2127 30.5819 24.1506 29.9793 25.1464L 33.4088 27.2051ZM 33.4306 24.6377L 35.1045 24.4663L 34.6972 20.4871L 33.0232 20.6585L 33.4306 24.6377ZM 35.106 24.4662C 37.3845 24.2312 39.1412 22.318 39.1596 20.0132L 35.1597 19.9814C 35.1577 20.2367 34.9583 20.4602 34.6957 20.4873L 35.106 24.4662ZM 39.1595 20.0209L 39.1896 17.4708L 35.1899 17.4235L 35.1598 19.9736L 39.1595 20.0209ZM 39.1895 17.4788C 39.226 15.175 37.5205 13.2223 35.2434 12.9332L 34.7398 16.9014C 35.0039 16.9349 35.1941 17.1594 35.19 17.4155L 39.1895 17.4788ZM 35.2486 12.9339L 33.6149 12.7222L 33.1009 16.6891L 34.7346 16.9007L 35.2486 12.9339ZM 35.2962 14.2129C 34.9497 12.8652 34.3947 11.4426 33.7321 10.2199L 30.2209 12.1361C 30.7684 13.1307 31.1409 14.0868 31.4195 15.1984L 35.2962 14.2129ZM 33.5269 12.4414L 34.5454 11.1916L 31.4446 8.66476L 30.4261 9.91456L 33.5269 12.4414ZM 34.5503 11.1856C 35.9881 9.40708 35.8879 6.83336 34.2732 5.18318L 31.4142 7.9807C 31.5945 8.16491 31.6152 8.45364 31.4397 8.67078L 34.5503 11.1856ZM 34.2733 5.18331L 32.4886 3.359L 29.6293 6.15626L 31.4141 7.98057L 34.2733 5.18331ZM 32.4885 3.35895C 30.8819 1.7168 28.3101 1.53653 26.4888 2.94275L 28.9333 6.10888C 29.1487 5.94257 29.4411 5.96387 29.6294 6.15631L 32.4885 3.35895ZM 26.4927 2.93975L 25.2724 3.8771L 27.7091 7.04924L 28.9294 6.11188L 26.4927 2.93975ZM 27.5261 3.75199C 26.2593 2.99083 24.7814 2.34925 23.3616 1.94532L 22.279 5.79604C 23.4405 6.1178 24.4233 6.54459 25.4554 7.17435L 27.5261 3.75199ZM 24.81 3.66768L 24.6485 2.08527L 20.6692 2.49126L 20.8306 4.07367L 24.81 3.66768ZM 24.6483 2.08292C 24.413 -0.196455 22.4981 -1.95125 20.194 -1.96939L 20.1625 2.03049C 20.4199 2.03252 20.6425 2.23286 20.6694 2.4936L 24.6483 2.08292ZM 20.2019 -1.96931L 17.6507 -1.99954L 17.6033 2.00018L 20.1545 2.03041L 20.2019 -1.96931ZM 17.6585 -1.99944C 15.3556 -2.03568 13.4013 -0.332326 13.1118 1.94533L 17.0799 2.44977C 17.1132 2.1875 17.337 1.996 17.5955 2.00007L 17.6585 -1.99944ZM 13.1121 1.94312L 12.9104 3.51555L 16.8779 4.02442L 17.0796 2.45198L 13.1121 1.94312ZM 14.3956 1.83312C 12.9336 2.21424 11.4027 2.84072 10.0945 3.58893L 12.0907 7.05519C 13.1624 6.43285 14.1927 6.0109 15.3927 5.70685L 14.3956 1.83312ZM 12.3567 3.77219L 11.0962 2.74412L 8.56804 5.84386L 9.82853 6.87193L 12.3567 3.77219ZM 11.0888 2.73811C 9.31008 1.30145 6.73661 1.40173 5.08618 3.01492L 7.88216 5.87543C 8.06701 5.69476 8.35756 5.67388 8.57545 5.84987L 11.0888 2.73811ZM 5.08606 3.01504L 3.25079 4.80922L 6.04701 7.66949L 7.88228 5.87531L 5.08606 3.01504ZM 3.25091 4.8091C 1.60767 6.41527 1.42709 8.98717 2.8344 10.8084L 5.99954 8.36261C 5.83376 8.14806 5.85485 7.85731 6.04689 7.66961L 3.25091 4.8091ZM 2.83666 10.8113L 3.91564 12.2023L 7.07626 9.7507L 5.99728 8.35969L 2.83666 10.8113ZM 3.75384 9.99413C 3.07434 11.206 2.48179 12.6244 2.11843 14.0004L 5.98947 15.0079C 6.27148 13.9043 6.66715 12.9644 7.23805 11.9589L 3.75384 9.99413ZM 3.8494 12.5147L 2.08482 12.6961L 2.49391 16.6751L 4.25849 16.4937L 3.8494 12.5147ZM 18.7344 13.8028C 21.2852 13.8309 23.3392 15.9343 23.3111 18.4937L 27.3108 18.5376C 27.3631 13.7796 23.5485 9.85555 18.7784 9.80301L 18.7344 13.8028ZM 23.3111 18.4936C 23.283 21.0409 21.1799 23.0953 18.6169 23.0672L 18.573 27.0669C 23.331 27.1192 27.2582 23.3078 27.3108 18.5377L 23.3111 18.4936ZM 18.617 23.0672C 16.0661 23.0391 14.0121 20.9357 14.0403 18.3763L 10.0405 18.3323C 9.9882 23.0905 13.8029 27.0144 18.5729 27.0669L 18.617 23.0672ZM 14.0403 18.3764C 14.0684 15.8291 16.1715 13.7746 18.7344 13.8028L 18.7784 9.80301C 14.0203 9.75074 10.0932 13.5623 10.0405 18.3322L 14.0403 18.3764Z"/>
</defs>
</svg>
