<svg width="88" height="88" viewBox="0 0 88 88" version="1.1" xmlns="http://www.w3.org/2000/svg" xmlns:xlink="http://www.w3.org/1999/xlink">
<g id="Canvas" transform="translate(1358 -981)">
<g id="Group">
<g id="big-gate">
<g id="Vector">
<use xlink:href="#path0_fill" transform="translate(-1357 982)" fill="#EB5757"/>
<use xlink:href="#path1_stroke" transform="translate(-1357 982)" fill="#FFFFFF"/>
</g>
</g>
</g>
</g>
<defs>
<path id="path0_fill" d="M 84.6562 73.9062L 84.6562 40.3125C 85.3983 40.3125 86 39.7108 86 38.9688C 86 38.2267 85.3983 37.625 84.6562 37.625L 84.5615 37.625C 83.1272 16.645 65.036 0 43 0C 20.964 0 2.87277 16.645 1.43848 37.625L 1.34375 37.625C 0.601664 37.625 0 38.2267 0 38.9688C 0 39.7108 0.601664 40.3125 1.34375 40.3125L 1.34375 73.9062C 0.601664 73.9062 0 74.5079 0 75.25L 0 84.6562C 0 85.3983 0.601664 86 1.34375 86L 12.0938 86C 12.8358 86 13.4375 85.3983 13.4375 84.6562L 13.4375 76.5938L 14.7812 76.5938L 14.7812 81.9688C 14.7812 82.7108 15.3829 83.3125 16.125 83.3125L 69.875 83.3125C 70.6171 83.3125 71.2188 82.7108 71.2188 81.9688L 71.2188 76.5938L 72.5625 76.5938L 72.5625 84.6562C 72.5625 85.3983 73.1642 86 73.9062 86L 84.6562 86C 85.3983 86 86 85.3983 86 84.6562L 86 75.25C 86 74.5079 85.3983 73.9062 84.6562 73.9062ZM 76.5938 73.9062L 76.5938 45.6875L 81.9688 45.6875L 81.9688 73.9062L 76.5938 73.9062ZM 69.875 41.6562L 52.4062 41.6562C 51.6642 41.6562 51.0625 42.2579 51.0625 43C 51.0625 47.4456 47.4456 51.0625 43 51.0625C 38.5544 51.0625 34.9375 47.4456 34.9375 43C 34.9375 42.2579 34.3358 41.6562 33.5938 41.6562L 16.125 41.6562C 15.3829 41.6562 14.7812 42.2579 14.7812 43L 14.7812 48.375L 12.0938 48.375L 12.0938 40.3125C 12.8358 40.3125 13.4375 39.7108 13.4375 38.9688C 13.4375 38.27 12.904 37.6962 12.2222 37.6315C 12.3082 36.7212 12.4366 35.8225 12.6072 34.9375L 27.5302 34.9375C 27.5319 34.9375 27.5338 34.9375 27.5355 34.9375L 58.4845 34.9375C 58.486 34.9375 58.4874 34.9378 58.4887 34.9378C 58.4904 34.9378 58.4919 34.9375 58.4936 34.9375L 73.3928 34.9375C 73.5634 35.8224 73.6917 36.7212 73.7777 37.6315C 73.096 37.6962 72.5625 38.27 72.5625 38.9688C 72.5625 39.7108 73.1642 40.3125 73.9062 40.3125L 73.9062 48.375L 71.2188 48.375L 71.2188 43C 71.2188 42.2579 70.6171 41.6562 69.875 41.6562ZM 25.5312 44.3438L 25.5312 80.625L 22.8438 80.625L 22.8438 44.3438L 25.5312 44.3438ZM 28.2188 44.3438L 30.9062 44.3438L 30.9062 80.625L 28.2188 80.625L 28.2188 44.3438ZM 33.5938 48.1953C 34.276 49.4255 35.1911 50.5089 36.2812 51.3842L 36.2812 80.625L 33.5938 80.625L 33.5938 48.1953ZM 38.9688 52.9631C 39.8167 53.3074 40.7176 53.5463 41.6562 53.6638L 41.6562 63.1562C 40.9142 63.1562 40.3125 63.7579 40.3125 64.5C 40.3125 65.2421 40.9142 65.8438 41.6562 65.8438L 41.6562 80.625L 38.9688 80.625L 38.9688 52.9631ZM 44.3438 65.8438C 45.0858 65.8438 45.6875 65.2421 45.6875 64.5C 45.6875 63.7579 45.0858 63.1562 44.3438 63.1562L 44.3438 53.6638C 45.2824 53.5463 46.1833 53.3074 47.0312 52.9631L 47.0312 80.625L 44.3438 80.625L 44.3438 65.8438ZM 49.7188 51.3842C 50.8089 50.5089 51.724 49.4255 52.4062 48.1953L 52.4062 80.625L 49.7188 80.625L 49.7188 51.3842ZM 55.0938 44.3438L 57.7812 44.3438L 57.7812 80.625L 55.0938 80.625L 55.0938 44.3438ZM 60.4688 44.3438L 63.1562 44.3438L 63.1562 80.625L 60.4688 80.625L 60.4688 44.3438ZM 19.2563 32.25C 20.3931 29.373 22.0153 26.7846 24.0101 24.5668L 28.6123 29.1689C 28.6713 29.2279 28.7347 29.2791 28.8011 29.325C 28.0247 30.2218 27.3272 31.1995 26.7201 32.2502L 19.2563 32.2502L 19.2563 32.25ZM 51.5189 17.5786L 48.9402 23.804C 47.4691 23.3152 45.9277 23.004 44.3438 22.8918L 44.3438 16.1611C 46.833 16.2904 49.2444 16.7767 51.5189 17.5786ZM 55.4873 27.2686C 55.4297 27.3262 55.3795 27.3881 55.3346 27.4528C 54.1442 26.4158 52.8292 25.5373 51.4231 24.8325L 54.0026 18.6051C 56.219 19.6607 58.2685 21.03 60.0885 22.6674L 55.4873 27.2686ZM 41.6562 22.8918C 40.0723 23.004 38.5309 23.3152 37.0598 23.804L 34.481 17.5783C 36.7554 16.7766 39.1666 16.2903 41.6561 16.1609L 41.6561 22.8918L 41.6562 22.8918ZM 31.9972 18.6047L 34.5769 24.8325C 33.1706 25.5373 31.8558 26.4158 30.6654 27.4528C 30.6204 27.3881 30.5703 27.3262 30.5127 27.2686L 25.9112 22.667C 27.7311 21.0297 29.7809 19.6604 31.9972 18.6047ZM 35.6082 27.3223L 37.6494 32.25L 29.9132 32.25C 31.4144 30.1561 33.371 28.4776 35.6082 27.3223ZM 40.5582 32.25L 38.0909 26.2932C 39.6522 25.795 41.3045 25.5312 43 25.5312C 44.6955 25.5312 46.3478 25.795 47.9091 26.2932L 45.4418 32.25L 40.5582 32.25ZM 50.3918 27.3223C 52.629 28.4776 54.5856 30.1561 56.0868 32.25L 48.3506 32.25L 50.3918 27.3223ZM 59.2799 32.25C 58.673 31.1995 57.9753 30.2218 57.1989 29.3248C 57.2651 29.2791 57.3287 29.2277 57.3877 29.1688L 61.9895 24.5669C 63.9845 26.7848 65.6066 29.3732 66.7436 32.2498L 59.2799 32.2498L 59.2799 32.25ZM 69.6126 32.25C 65.6323 20.9726 55.0125 13.4375 43 13.4375C 30.986 13.4375 20.3679 20.9721 16.3874 32.25L 13.2621 32.25C 16.9402 19.8552 28.8792 10.75 43 10.75C 57.1208 10.75 69.0599 19.8552 72.7379 32.25L 69.6126 32.25ZM 81.9688 43L 76.5938 43L 76.5938 40.3125L 81.9688 40.3125L 81.9688 43ZM 43 2.6875C 63.5515 2.6875 80.436 18.1282 81.8683 37.625L 76.4762 37.625C 75.0488 21.0952 60.5808 8.0625 43 8.0625C 25.4192 8.0625 10.9512 21.0952 9.52383 37.625L 4.1317 37.625C 5.56396 18.1282 22.4485 2.6875 43 2.6875ZM 9.40625 40.3125L 9.40625 43L 4.03125 43L 4.03125 40.3125L 9.40625 40.3125ZM 4.03125 45.6875L 9.40625 45.6875L 9.40625 73.9062L 4.03125 73.9062L 4.03125 45.6875ZM 10.75 83.3125L 2.6875 83.3125L 2.6875 76.5938L 10.75 76.5938L 10.75 83.3125ZM 12.0938 73.9062L 12.0938 51.0625L 14.7812 51.0625L 14.7812 73.9062L 12.0938 73.9062ZM 17.4688 44.3438L 20.1562 44.3438L 20.1562 80.625L 17.4688 80.625L 17.4688 44.3438ZM 68.5312 80.625L 65.8438 80.625L 65.8438 44.3438L 68.5312 44.3438L 68.5312 80.625ZM 71.2188 51.0625L 73.9062 51.0625L 73.9062 73.9062L 71.2188 73.9062L 71.2188 51.0625ZM 83.3125 83.3125L 75.25 83.3125L 75.25 76.5938L 83.3125 76.5938L 83.3125 83.3125Z"/>
<path id="path1_stroke" d="M 84.6562 73.9062L 84.1562 73.9062L 84.1562 74.4062L 84.6562 74.4062L 84.6562 73.9062ZM 84.6562 40.3125L 84.6562 39.8125L 84.1562 39.8125L 84.1562 40.3125L 84.6562 40.3125ZM 84.5615 37.625L 84.0627 37.6591L 84.0945 38.125L 84.5615 38.125L 84.5615 37.625ZM 1.43848 37.625L 1.43848 38.125L 1.90547 38.125L 1.93732 37.6591L 1.43848 37.625ZM 1.34375 40.3125L 1.84375 40.3125L 1.84375 39.8125L 1.34375 39.8125L 1.34375 40.3125ZM 1.34375 73.9062L 1.34375 74.4062L 1.84375 74.4062L 1.84375 73.9062L 1.34375 73.9062ZM 13.4375 76.5938L 13.4375 76.0938L 12.9375 76.0938L 12.9375 76.5938L 13.4375 76.5938ZM 14.7812 76.5938L 15.2812 76.5938L 15.2812 76.0938L 14.7812 76.0938L 14.7812 76.5938ZM 71.2188 76.5938L 71.2188 76.0938L 70.7188 76.0938L 70.7188 76.5938L 71.2188 76.5938ZM 72.5625 76.5938L 73.0625 76.5938L 73.0625 76.0938L 72.5625 76.0938L 72.5625 76.5938ZM 76.5938 73.9062L 76.0938 73.9062L 76.0938 74.4062L 76.5938 74.4062L 76.5938 73.9062ZM 76.5938 45.6875L 76.5938 45.1875L 76.0938 45.1875L 76.0938 45.6875L 76.5938 45.6875ZM 81.9688 45.6875L 82.4688 45.6875L 82.4688 45.1875L 81.9688 45.1875L 81.9688 45.6875ZM 81.9688 73.9062L 81.9688 74.4062L 82.4688 74.4062L 82.4688 73.9062L 81.9688 73.9062ZM 14.7812 48.375L 14.7812 48.875L 15.2812 48.875L 15.2812 48.375L 14.7812 48.375ZM 12.0938 48.375L 11.5938 48.375L 11.5938 48.875L 12.0938 48.875L 12.0938 48.375ZM 12.0938 40.3125L 12.0938 39.8125L 11.5938 39.8125L 11.5938 40.3125L 12.0938 40.3125ZM 12.2222 37.6315L 11.7245 37.5845L 11.6775 38.0821L 12.175 38.1293L 12.2222 37.6315ZM 12.6072 34.9375L 12.6072 34.4375L 12.1944 34.4375L 12.1163 34.8428L 12.6072 34.9375ZM 73.3928 34.9375L 73.8837 34.8428L 73.8055 34.4375L 73.3928 34.4375L 73.3928 34.9375ZM 73.7777 37.6315L 73.825 38.1293L 74.3225 38.0821L 74.2755 37.5845L 73.7777 37.6315ZM 73.9062 40.3125L 74.4062 40.3125L 74.4062 39.8125L 73.9062 39.8125L 73.9062 40.3125ZM 73.9062 48.375L 73.9062 48.875L 74.4062 48.875L 74.4062 48.375L 73.9062 48.375ZM 71.2188 48.375L 70.7188 48.375L 70.7188 48.875L 71.2188 48.875L 71.2188 48.375ZM 25.5312 44.3438L 26.0312 44.3438L 26.0312 43.8438L 25.5312 43.8438L 25.5312 44.3438ZM 25.5312 80.625L 25.5312 81.125L 26.0312 81.125L 26.0312 80.625L 25.5312 80.625ZM 22.8438 80.625L 22.3438 80.625L 22.3438 81.125L 22.8438 81.125L 22.8438 80.625ZM 22.8438 44.3438L 22.8438 43.8438L 22.3438 43.8438L 22.3438 44.3438L 22.8438 44.3438ZM 28.2188 44.3438L 28.2188 43.8438L 27.7188 43.8438L 27.7188 44.3438L 28.2188 44.3438ZM 30.9062 44.3438L 31.4062 44.3438L 31.4062 43.8438L 30.9062 43.8438L 30.9062 44.3438ZM 30.9062 80.625L 30.9062 81.125L 31.4062 81.125L 31.4062 80.625L 30.9062 80.625ZM 28.2188 80.625L 27.7188 80.625L 27.7188 81.125L 28.2188 81.125L 28.2188 80.625ZM 33.5938 48.1953L 34.031 47.9528L 33.0938 46.2628L 33.0938 48.1953L 33.5938 48.1953ZM 36.2812 51.3842L 36.7812 51.3842L 36.7812 51.1444L 36.5943 50.9943L 36.2812 51.3842ZM 36.2812 80.625L 36.2812 81.125L 36.7812 81.125L 36.7812 80.625L 36.2812 80.625ZM 33.5938 80.625L 33.0938 80.625L 33.0938 81.125L 33.5938 81.125L 33.5938 80.625ZM 38.9688 52.9631L 39.1569 52.4998L 38.4688 52.2204L 38.4688 52.9631L 38.9688 52.9631ZM 41.6562 53.6638L 42.1562 53.6638L 42.1562 53.2226L 41.7184 53.1677L 41.6562 53.6638ZM 41.6562 63.1562L 41.6562 63.6562L 42.1562 63.6562L 42.1562 63.1562L 41.6562 63.1562ZM 41.6562 65.8438L 42.1562 65.8438L 42.1562 65.3438L 41.6562 65.3438L 41.6562 65.8438ZM 41.6562 80.625L 41.6562 81.125L 42.1562 81.125L 42.1562 80.625L 41.6562 80.625ZM 38.9688 80.625L 38.4688 80.625L 38.4688 81.125L 38.9688 81.125L 38.9688 80.625ZM 44.3438 65.8438L 44.3438 65.3438L 43.8438 65.3438L 43.8438 65.8438L 44.3438 65.8438ZM 44.3438 63.1562L 43.8438 63.1562L 43.8438 63.6562L 44.3438 63.6562L 44.3438 63.1562ZM 44.3438 53.6638L 44.2816 53.1677L 43.8438 53.2226L 43.8438 53.6638L 44.3438 53.6638ZM 47.0312 52.9631L 47.5312 52.9631L 47.5312 52.2204L 46.8431 52.4998L 47.0312 52.9631ZM 47.0312 80.625L 47.0312 81.125L 47.5312 81.125L 47.5312 80.625L 47.0312 80.625ZM 44.3438 80.625L 43.8438 80.625L 43.8438 81.125L 44.3438 81.125L 44.3438 80.625ZM 49.7188 51.3842L 49.4057 50.9943L 49.2188 51.1444L 49.2188 51.3842L 49.7188 51.3842ZM 52.4062 48.1953L 52.9062 48.1953L 52.9062 46.2628L 51.969 47.9528L 52.4062 48.1953ZM 52.4062 80.625L 52.4062 81.125L 52.9062 81.125L 52.9062 80.625L 52.4062 80.625ZM 49.7188 80.625L 49.2188 80.625L 49.2188 81.125L 49.7188 81.125L 49.7188 80.625ZM 55.0938 44.3438L 55.0938 43.8438L 54.5938 43.8438L 54.5938 44.3438L 55.0938 44.3438ZM 57.7812 44.3438L 58.2812 44.3438L 58.2812 43.8438L 57.7812 43.8438L 57.7812 44.3438ZM 57.7812 80.625L 57.7812 81.125L 58.2812 81.125L 58.2812 80.625L 57.7812 80.625ZM 55.0938 80.625L 54.5938 80.625L 54.5938 81.125L 55.0938 81.125L 55.0938 80.625ZM 60.4688 44.3438L 60.4688 43.8438L 59.9688 43.8438L 59.9688 44.3438L 60.4688 44.3438ZM 63.1562 44.3438L 63.6562 44.3438L 63.6562 43.8438L 63.1562 43.8438L 63.1562 44.3438ZM 63.1562 80.625L 63.1562 81.125L 63.6562 81.125L 63.6562 80.625L 63.1562 80.625ZM 60.4688 80.625L 59.9688 80.625L 59.9688 81.125L 60.4688 81.125L 60.4688 80.625ZM 19.2563 32.25L 18.7913 32.0663L 18.7563 32.1548L 18.7563 32.25L 19.2563 32.25ZM 24.0101 24.5668L 24.3637 24.2132L 23.9909 23.8405L 23.6384 24.2324L 24.0101 24.5668ZM 28.8011 29.325L 29.1791 29.6523L 29.5441 29.2307L 29.0854 28.9137L 28.8011 29.325ZM 26.7201 32.2502L 26.7201 32.7502L 27.0087 32.7502L 27.1531 32.5003L 26.7201 32.2502ZM 19.2563 32.2502L 18.7563 32.2502L 18.7563 32.7502L 19.2563 32.7502L 19.2563 32.2502ZM 51.5189 17.5786L 51.9808 17.7699L 52.1827 17.2825L 51.6851 17.107L 51.5189 17.5786ZM 48.9402 23.804L 48.7826 24.2785L 49.2241 24.4252L 49.4022 23.9954L 48.9402 23.804ZM 44.3438 22.8918L 43.8438 22.8918L 43.8438 23.3576L 44.3084 23.3905L 44.3438 22.8918ZM 44.3438 16.1611L 44.3697 15.6618L 43.8438 15.6345L 43.8438 16.1611L 44.3438 16.1611ZM 55.3346 27.4528L 55.0062 27.8298L 55.4272 28.1966L 55.7455 27.7378L 55.3346 27.4528ZM 51.4231 24.8325L 50.9612 24.6412L 50.7831 25.071L 51.1991 25.2795L 51.4231 24.8325ZM 54.0026 18.6051L 54.2176 18.1537L 53.7422 17.9272L 53.5407 18.4137L 54.0026 18.6051ZM 60.0885 22.6674L 60.442 23.0209L 60.8147 22.6482L 60.4229 22.2957L 60.0885 22.6674ZM 41.6562 22.8918L 41.6916 23.3905L 41.6562 22.3918L 41.6562 22.8918ZM 37.0598 23.804L 36.5978 23.9954L 36.7759 24.4252L 37.2174 24.2785L 37.0598 23.804ZM 34.481 17.5783L 34.3147 17.1067L 33.8171 17.2821L 34.019 17.7696L 34.481 17.5783ZM 41.6561 16.1609L 42.1561 16.1609L 42.1561 15.6343L 41.6301 15.6616L 41.6561 16.1609ZM 41.6561 22.8918L 41.1561 22.8918L 41.1561 23.3918L 41.6561 23.3918L 41.6561 22.8918ZM 31.9972 18.6047L 32.4591 18.4134L 32.2576 17.9269L 31.7822 18.1533L 31.9972 18.6047ZM 34.5769 24.8325L 34.8009 25.2795L 35.2169 25.071L 35.0388 24.6412L 34.5769 24.8325ZM 30.6654 27.4528L 30.255 27.7385L 30.5735 28.196L 30.9938 27.8298L 30.6654 27.4528ZM 25.9112 22.667L 25.5768 22.2953L 25.1849 22.6479L 25.5576 23.0206L 25.9112 22.667ZM 35.6082 27.3223L 36.0701 27.131L 35.862 26.6285L 35.3788 26.878L 35.6082 27.3223ZM 37.6494 32.25L 37.6494 32.75L 38.3977 32.75L 38.1113 32.0587L 37.6494 32.25ZM 29.9132 32.25L 29.5069 31.9587L 28.9395 32.75L 29.9132 32.75L 29.9132 32.25ZM 40.5582 32.25L 40.0963 32.4413L 40.2241 32.75L 40.5582 32.75L 40.5582 32.25ZM 38.0909 26.2932L 37.9389 25.8168L 37.4209 25.9821L 37.629 26.4845L 38.0909 26.2932ZM 47.9091 26.2932L 48.371 26.4845L 48.5791 25.9821L 48.0611 25.8168L 47.9091 26.2932ZM 45.4418 32.25L 45.4418 32.75L 45.7759 32.75L 45.9037 32.4413L 45.4418 32.25ZM 50.3918 27.3223L 50.6212 26.878L 50.138 26.6285L 49.9299 27.131L 50.3918 27.3223ZM 56.0868 32.25L 56.0868 32.75L 57.0604 32.75L 56.4931 31.9587L 56.0868 32.25ZM 48.3506 32.25L 47.8887 32.0587L 47.6023 32.75L 48.3506 32.75L 48.3506 32.25ZM 59.2799 32.25L 58.8469 32.5001L 59.7799 34.115L 59.7799 32.25L 59.2799 32.25ZM 57.1989 29.3248L 56.9148 28.9134L 56.4558 29.2303L 56.8208 29.652L 57.1989 29.3248ZM 57.3877 29.1688L 57.7413 29.5223L 57.7413 29.5223L 57.3877 29.1688ZM 61.9895 24.5669L 62.3613 24.2326L 62.0087 23.8406L 61.636 24.2134L 61.9895 24.5669ZM 66.7436 32.2498L 66.7436 32.7498L 67.4788 32.7498L 67.2086 32.066L 66.7436 32.2498ZM 59.2799 32.2498L 59.2799 31.7498L 58.7799 31.7498L 58.7799 32.2498L 59.2799 32.2498ZM 69.6126 32.25L 69.1411 32.4164L 69.2589 32.75L 69.6126 32.75L 69.6126 32.25ZM 16.3874 32.25L 16.3874 32.75L 16.7411 32.75L 16.8589 32.4164L 16.3874 32.25ZM 13.2621 32.25L 12.7828 32.1078L 12.5922 32.75L 13.2621 32.75L 13.2621 32.25ZM 72.7379 32.25L 72.7379 32.75L 73.4078 32.75L 73.2172 32.1078L 72.7379 32.25ZM 81.9688 43L 81.9688 43.5L 82.4688 43.5L 82.4688 43L 81.9688 43ZM 76.5938 43L 76.0938 43L 76.0938 43.5L 76.5938 43.5L 76.5938 43ZM 76.5938 40.3125L 76.5938 39.8125L 76.0938 39.8125L 76.0938 40.3125L 76.5938 40.3125ZM 81.9688 40.3125L 82.4688 40.3125L 82.4688 39.8125L 81.9688 39.8125L 81.9688 40.3125ZM 81.8683 37.625L 81.8683 38.125L 82.4064 38.125L 82.367 37.5884L 81.8683 37.625ZM 76.4762 37.625L 75.978 37.668L 76.0175 38.125L 76.4762 38.125L 76.4762 37.625ZM 9.52383 37.625L 9.52383 38.125L 9.98251 38.125L 10.022 37.668L 9.52383 37.625ZM 4.1317 37.625L 3.63304 37.5884L 3.59362 38.125L 4.1317 38.125L 4.1317 37.625ZM 9.40625 40.3125L 9.90625 40.3125L 9.90625 39.8125L 9.40625 39.8125L 9.40625 40.3125ZM 9.40625 43L 9.40625 43.5L 9.90625 43.5L 9.90625 43L 9.40625 43ZM 4.03125 43L 3.53125 43L 3.53125 43.5L 4.03125 43.5L 4.03125 43ZM 4.03125 40.3125L 4.03125 39.8125L 3.53125 39.8125L 3.53125 40.3125L 4.03125 40.3125ZM 4.03125 45.6875L 4.03125 45.1875L 3.53125 45.1875L 3.53125 45.6875L 4.03125 45.6875ZM 9.40625 45.6875L 9.90625 45.6875L 9.90625 45.1875L 9.40625 45.1875L 9.40625 45.6875ZM 9.40625 73.9062L 9.40625 74.4062L 9.90625 74.4062L 9.90625 73.9062L 9.40625 73.9062ZM 4.03125 73.9062L 3.53125 73.9062L 3.53125 74.4062L 4.03125 74.4062L 4.03125 73.9062ZM 10.75 83.3125L 10.75 83.8125L 11.25 83.8125L 11.25 83.3125L 10.75 83.3125ZM 2.6875 83.3125L 2.1875 83.3125L 2.1875 83.8125L 2.6875 83.8125L 2.6875 83.3125ZM 2.6875 76.5938L 2.6875 76.0938L 2.1875 76.0938L 2.1875 76.5938L 2.6875 76.5938ZM 10.75 76.5938L 11.25 76.5938L 11.25 76.0938L 10.75 76.0938L 10.75 76.5938ZM 12.0938 73.9062L 11.5938 73.9062L 11.5938 74.4062L 12.0938 74.4062L 12.0938 73.9062ZM 12.0938 51.0625L 12.0938 50.5625L 11.5938 50.5625L 11.5938 51.0625L 12.0938 51.0625ZM 14.7812 51.0625L 15.2812 51.0625L 15.2812 50.5625L 14.7812 50.5625L 14.7812 51.0625ZM 14.7812 73.9062L 14.7812 74.4062L 15.2812 74.4062L 15.2812 73.9062L 14.7812 73.9062ZM 17.4688 44.3438L 17.4688 43.8438L 16.9688 43.8438L 16.9688 44.3438L 17.4688 44.3438ZM 20.1562 44.3438L 20.6562 44.3438L 20.6562 43.8438L 20.1562 43.8438L 20.1562 44.3438ZM 20.1562 80.625L 20.1562 81.125L 20.6562 81.125L 20.6562 80.625L 20.1562 80.625ZM 17.4688 80.625L 16.9688 80.625L 16.9688 81.125L 17.4688 81.125L 17.4688 80.625ZM 68.5312 80.625L 68.5312 81.125L 69.0312 81.125L 69.0312 80.625L 68.5312 80.625ZM 65.8438 80.625L 65.3438 80.625L 65.3438 81.125L 65.8438 81.125L 65.8438 80.625ZM 65.8438 44.3438L 65.8438 43.8438L 65.3438 43.8438L 65.3438 44.3438L 65.8438 44.3438ZM 68.5312 44.3438L 69.0312 44.3438L 69.0312 43.8438L 68.5312 43.8438L 68.5312 44.3438ZM 71.2188 51.0625L 71.2188 50.5625L 70.7188 50.5625L 70.7188 51.0625L 71.2188 51.0625ZM 73.9062 51.0625L 74.4062 51.0625L 74.4062 50.5625L 73.9062 50.5625L 73.9062 51.0625ZM 73.9062 73.9062L 73.9062 74.4062L 74.4062 74.4062L 74.4062 73.9062L 73.9062 73.9062ZM 71.2188 73.9062L 70.7188 73.9062L 70.7188 74.4062L 71.2188 74.4062L 71.2188 73.9062ZM 83.3125 83.3125L 83.3125 83.8125L 83.8125 83.8125L 83.8125 83.3125L 83.3125 83.3125ZM 75.25 83.3125L 74.75 83.3125L 74.75 83.8125L 75.25 83.8125L 75.25 83.3125ZM 75.25 76.5938L 75.25 76.0938L 74.75 76.0938L 74.75 76.5938L 75.25 76.5938ZM 83.3125 76.5938L 83.8125 76.5938L 83.8125 76.0938L 83.3125 76.0938L 83.3125 76.5938ZM 85.1562 73.9062L 85.1562 40.3125L 84.1562 40.3125L 84.1562 73.9062L 85.1562 73.9062ZM 84.6562 40.8125C 85.6745 40.8125 86.5 39.987 86.5 38.9688L 85.5 38.9688C 85.5 39.4347 85.1222 39.8125 84.6562 39.8125L 84.6562 40.8125ZM 86.5 38.9688C 86.5 37.9505 85.6745 37.125 84.6562 37.125L 84.6562 38.125C 85.1222 38.125 85.5 38.5028 85.5 38.9688L 86.5 38.9688ZM 84.6562 37.125L 84.5615 37.125L 84.5615 38.125L 84.6562 38.125L 84.6562 37.125ZM 85.0603 37.5909C 83.6073 16.3368 65.2869 -0.5 43 -0.5L 43 0.5C 64.7851 0.5 82.6471 16.9533 84.0627 37.6591L 85.0603 37.5909ZM 43 -0.5C 20.7131 -0.5 2.39267 16.3368 0.939649 37.5909L 1.93732 37.6591C 3.35287 16.9533 21.2149 0.5 43 0.5L 43 -0.5ZM 1.43848 37.125L 1.34375 37.125L 1.34375 38.125L 1.43848 38.125L 1.43848 37.125ZM 1.34375 37.125C 0.325522 37.125 -0.5 37.9505 -0.5 38.9688L 0.5 38.9688C 0.5 38.5028 0.877806 38.125 1.34375 38.125L 1.34375 37.125ZM -0.5 38.9688C -0.5 39.987 0.325522 40.8125 1.34375 40.8125L 1.34375 39.8125C 0.877806 39.8125 0.5 39.4347 0.5 38.9688L -0.5 38.9688ZM 0.84375 40.3125L 0.84375 73.9062L 1.84375 73.9062L 1.84375 40.3125L 0.84375 40.3125ZM 1.34375 73.4062C 0.325522 73.4062 -0.5 74.2318 -0.5 75.25L 0.5 75.25C 0.5 74.7841 0.877806 74.4062 1.34375 74.4062L 1.34375 73.4062ZM -0.5 75.25L -0.5 84.6562L 0.5 84.6562L 0.5 75.25L -0.5 75.25ZM -0.5 84.6562C -0.5 85.6745 0.325522 86.5 1.34375 86.5L 1.34375 85.5C 0.877806 85.5 0.5 85.1222 0.5 84.6562L -0.5 84.6562ZM 1.34375 86.5L 12.0938 86.5L 12.0938 85.5L 1.34375 85.5L 1.34375 86.5ZM 12.0938 86.5C 13.112 86.5 13.9375 85.6745 13.9375 84.6562L 12.9375 84.6562C 12.9375 85.1222 12.5597 85.5 12.0938 85.5L 12.0938 86.5ZM 13.9375 84.6562L 13.9375 76.5938L 12.9375 76.5938L 12.9375 84.6562L 13.9375 84.6562ZM 13.4375 77.0938L 14.7812 77.0938L 14.7812 76.0938L 13.4375 76.0938L 13.4375 77.0938ZM 14.2812 76.5938L 14.2812 81.9688L 15.2812 81.9688L 15.2812 76.5938L 14.2812 76.5938ZM 14.2812 81.9688C 14.2812 82.987 15.1068 83.8125 16.125 83.8125L 16.125 82.8125C 15.6591 82.8125 15.2812 82.4347 15.2812 81.9688L 14.2812 81.9688ZM 16.125 83.8125L 69.875 83.8125L 69.875 82.8125L 16.125 82.8125L 16.125 83.8125ZM 69.875 83.8125C 70.8932 83.8125 71.7188 82.987 71.7188 81.9688L 70.7188 81.9688C 70.7188 82.4347 70.3409 82.8125 69.875 82.8125L 69.875 83.8125ZM 71.7188 81.9688L 71.7188 76.5938L 70.7188 76.5938L 70.7188 81.9688L 71.7188 81.9688ZM 71.2188 77.0938L 72.5625 77.0938L 72.5625 76.0938L 71.2188 76.0938L 71.2188 77.0938ZM 72.0625 76.5938L 72.0625 84.6562L 73.0625 84.6562L 73.0625 76.5938L 72.0625 76.5938ZM 72.0625 84.6562C 72.0625 85.6745 72.888 86.5 73.9062 86.5L 73.9062 85.5C 73.4403 85.5 73.0625 85.1222 73.0625 84.6562L 72.0625 84.6562ZM 73.9062 86.5L 84.6562 86.5L 84.6562 85.5L 73.9062 85.5L 73.9062 86.5ZM 84.6562 86.5C 85.6745 86.5 86.5 85.6745 86.5 84.6562L 85.5 84.6562C 85.5 85.1222 85.1222 85.5 84.6562 85.5L 84.6562 86.5ZM 86.5 84.6562L 86.5 75.25L 85.5 75.25L 85.5 84.6562L 86.5 84.6562ZM 86.5 75.25C 86.5 74.2318 85.6745 73.4062 84.6562 73.4062L 84.6562 74.4062C 85.1222 74.4062 85.5 74.7841 85.5 75.25L 86.5 75.25ZM 77.0938 73.9062L 77.0938 45.6875L 76.0938 45.6875L 76.0938 73.9062L 77.0938 73.9062ZM 76.5938 46.1875L 81.9688 46.1875L 81.9688 45.1875L 76.5938 45.1875L 76.5938 46.1875ZM 81.4688 45.6875L 81.4688 73.9062L 82.4688 73.9062L 82.4688 45.6875L 81.4688 45.6875ZM 81.9688 73.4062L 76.5938 73.4062L 76.5938 74.4062L 81.9688 74.4062L 81.9688 73.4062ZM 69.875 41.1562L 52.4062 41.1562L 52.4062 42.1562L 69.875 42.1562L 69.875 41.1562ZM 52.4062 41.1562C 51.388 41.1562 50.5625 41.9818 50.5625 43L 51.5625 43C 51.5625 42.5341 51.9403 42.1562 52.4062 42.1562L 52.4062 41.1562ZM 50.5625 43C 50.5625 47.1695 47.1695 50.5625 43 50.5625L 43 51.5625C 47.7218 51.5625 51.5625 47.7218 51.5625 43L 50.5625 43ZM 43 50.5625C 38.8305 50.5625 35.4375 47.1695 35.4375 43L 34.4375 43C 34.4375 47.7218 38.2782 51.5625 43 51.5625L 43 50.5625ZM 35.4375 43C 35.4375 41.9818 34.612 41.1562 33.5938 41.1562L 33.5938 42.1562C 34.0597 42.1562 34.4375 42.5341 34.4375 43L 35.4375 43ZM 33.5938 41.1562L 16.125 41.1562L 16.125 42.1562L 33.5938 42.1562L 33.5938 41.1562ZM 16.125 41.1562C 15.1068 41.1562 14.2812 41.9818 14.2812 43L 15.2812 43C 15.2812 42.5341 15.6591 42.1562 16.125 42.1562L 16.125 41.1562ZM 14.2812 43L 14.2812 48.375L 15.2812 48.375L 15.2812 43L 14.2812 43ZM 14.7812 47.875L 12.0938 47.875L 12.0938 48.875L 14.7812 48.875L 14.7812 47.875ZM 12.5938 48.375L 12.5938 40.3125L 11.5938 40.3125L 11.5938 48.375L 12.5938 48.375ZM 12.0938 40.8125C 13.112 40.8125 13.9375 39.987 13.9375 38.9688L 12.9375 38.9688C 12.9375 39.4347 12.5597 39.8125 12.0938 39.8125L 12.0938 40.8125ZM 13.9375 38.9688C 13.9375 38.0095 13.2053 37.2225 12.2695 37.1338L 12.175 38.1293C 12.6028 38.1699 12.9375 38.5305 12.9375 38.9688L 13.9375 38.9688ZM 12.72 37.6786C 12.8048 36.78 12.9297 35.9052 13.0982 35.0322L 12.1163 34.8428C 11.9435 35.7398 11.8117 36.6623 11.7245 37.5845L 12.72 37.6786ZM 12.6072 35.4375L 27.5302 35.4375L 27.5302 34.4375L 12.6072 34.4375L 12.6072 35.4375ZM 27.5302 35.4375C 27.5319 35.4375 27.5338 35.4375 27.5355 35.4375L 27.5355 34.4375C 27.5338 34.4375 27.5319 34.4375 27.5302 34.4375L 27.5302 35.4375ZM 27.5355 35.4375L 58.4845 35.4375L 58.4845 34.4375L 27.5355 34.4375L 27.5355 35.4375ZM 58.4845 35.4375C 58.4665 35.4375 58.4518 35.4365 58.442 35.4356C 58.4372 35.4352 58.4332 35.4348 58.4307 35.4345C 58.4294 35.4344 58.4283 35.4342 58.4277 35.4342C 58.427 35.4341 58.4266 35.434 58.4265 35.434C 58.4266 35.434 58.4281 35.4342 58.43 35.4344C 58.4324 35.4347 58.4364 35.4352 58.4414 35.4356C 58.4513 35.4366 58.468 35.4378 58.4887 35.4378L 58.4887 34.4378C 58.5088 34.4378 58.5249 34.4391 58.534 34.4399C 58.5387 34.4404 58.5424 34.4408 58.5444 34.441C 58.5461 34.4412 58.5478 34.4414 58.5469 34.4413C 58.5465 34.4412 58.544 34.441 58.5417 34.4407C 58.5388 34.4404 58.5345 34.4399 58.5293 34.4395C 58.5188 34.4385 58.5033 34.4375 58.4845 34.4375L 58.4845 35.4375ZM 58.4887 35.4378C 58.5057 35.4378 58.5196 35.437 58.5288 35.4363C 58.5334 35.4359 58.5371 35.4356 58.5395 35.4353C 58.5414 35.4351 58.5433 35.4349 58.5435 35.4349C 58.545 35.4348 58.5387 35.4355 58.5312 35.436C 58.5228 35.4367 58.5097 35.4375 58.4936 35.4375L 58.4936 34.4375C 58.4766 34.4375 58.4627 34.4383 58.4535 34.4391C 58.449 34.4394 58.4452 34.4398 58.4428 34.44C 58.4409 34.4402 58.439 34.4404 58.4388 34.4404C 58.4374 34.4406 58.4437 34.4399 58.4511 34.4393C 58.4595 34.4386 58.4726 34.4378 58.4887 34.4378L 58.4887 35.4378ZM 58.4936 35.4375L 73.3928 35.4375L 73.3928 34.4375L 58.4936 34.4375L 58.4936 35.4375ZM 72.9018 35.0322C 73.0703 35.9051 73.1952 36.78 73.28 37.6786L 74.2755 37.5845C 74.1883 36.6623 74.0565 35.7397 73.8837 34.8428L 72.9018 35.0322ZM 73.7305 37.1338C 72.7947 37.2225 72.0625 38.0095 72.0625 38.9688L 73.0625 38.9688C 73.0625 38.5305 73.3972 38.1699 73.825 38.1293L 73.7305 37.1338ZM 72.0625 38.9688C 72.0625 39.987 72.888 40.8125 73.9062 40.8125L 73.9062 39.8125C 73.4403 39.8125 73.0625 39.4347 73.0625 38.9688L 72.0625 38.9688ZM 73.4062 40.3125L 73.4062 48.375L 74.4062 48.375L 74.4062 40.3125L 73.4062 40.3125ZM 73.9062 47.875L 71.2188 47.875L 71.2188 48.875L 73.9062 48.875L 73.9062 47.875ZM 71.7188 48.375L 71.7188 43L 70.7188 43L 70.7188 48.375L 71.7188 48.375ZM 71.7188 43C 71.7188 41.9818 70.8932 41.1562 69.875 41.1562L 69.875 42.1562C 70.3409 42.1562 70.7188 42.5341 70.7188 43L 71.7188 43ZM 25.0312 44.3438L 25.0312 80.625L 26.0312 80.625L 26.0312 44.3438L 25.0312 44.3438ZM 25.5312 80.125L 22.8438 80.125L 22.8438 81.125L 25.5312 81.125L 25.5312 80.125ZM 23.3438 80.625L 23.3438 44.3438L 22.3438 44.3438L 22.3438 80.625L 23.3438 80.625ZM 22.8438 44.8438L 25.5312 44.8438L 25.5312 43.8438L 22.8438 43.8438L 22.8438 44.8438ZM 28.2188 44.8438L 30.9062 44.8438L 30.9062 43.8438L 28.2188 43.8438L 28.2188 44.8438ZM 30.4062 44.3438L 30.4062 80.625L 31.4062 80.625L 31.4062 44.3438L 30.4062 44.3438ZM 30.9062 80.125L 28.2188 80.125L 28.2188 81.125L 30.9062 81.125L 30.9062 80.125ZM 28.7188 80.625L 28.7188 44.3438L 27.7188 44.3438L 27.7188 80.625L 28.7188 80.625ZM 33.1565 48.4378C 33.8645 49.7094 34.842 50.8668 35.9682 51.774L 36.5943 50.9943C 35.5403 50.151 34.6876 49.1416 34.031 47.9528L 33.1565 48.4378ZM 35.7812 51.3842L 35.7812 80.625L 36.7812 80.625L 36.7812 51.3842L 35.7812 51.3842ZM 36.2812 80.125L 33.5938 80.125L 33.5938 81.125L 36.2812 81.125L 36.2812 80.125ZM 34.0938 80.625L 34.0938 48.1953L 33.0938 48.1953L 33.0938 80.625L 34.0938 80.625ZM 38.7806 53.4263C 39.6582 53.7816 40.6223 54.0371 41.5941 54.16L 41.7184 53.1677C 40.813 53.0554 39.9751 52.8332 39.1569 52.4998L 38.7806 53.4263ZM 41.1562 53.6638L 41.1562 63.1562L 42.1562 63.1562L 42.1562 53.6638L 41.1562 53.6638ZM 41.6562 62.6562C 40.638 62.6562 39.8125 63.4818 39.8125 64.5L 40.8125 64.5C 40.8125 64.0341 41.1903 63.6562 41.6562 63.6562L 41.6562 62.6562ZM 39.8125 64.5C 39.8125 65.5182 40.638 66.3438 41.6562 66.3438L 41.6562 65.3438C 41.1903 65.3438 40.8125 64.9659 40.8125 64.5L 39.8125 64.5ZM 41.1562 65.8438L 41.1562 80.625L 42.1562 80.625L 42.1562 65.8438L 41.1562 65.8438ZM 41.6562 80.125L 38.9688 80.125L 38.9688 81.125L 41.6562 81.125L 41.6562 80.125ZM 39.4688 80.625L 39.4688 52.9631L 38.4688 52.9631L 38.4688 80.625L 39.4688 80.625ZM 44.3438 66.3438C 45.362 66.3438 46.1875 65.5182 46.1875 64.5L 45.1875 64.5C 45.1875 64.9659 44.8097 65.3438 44.3438 65.3438L 44.3438 66.3438ZM 46.1875 64.5C 46.1875 63.4818 45.362 62.6562 44.3438 62.6562L 44.3438 63.6562C 44.8097 63.6562 45.1875 64.0341 45.1875 64.5L 46.1875 64.5ZM 44.8438 63.1562L 44.8438 53.6638L 43.8438 53.6638L 43.8438 63.1562L 44.8438 63.1562ZM 44.4059 54.16C 45.3777 54.0371 46.3418 53.7816 47.2194 53.4263L 46.8431 52.4998C 46.0249 52.8332 45.187 53.0554 44.2816 53.1677L 44.4059 54.16ZM 46.5312 52.9631L 46.5312 80.625L 47.5312 80.625L 47.5312 52.9631L 46.5312 52.9631ZM 47.0312 80.125L 44.3438 80.125L 44.3438 81.125L 47.0312 81.125L 47.0312 80.125ZM 44.8438 80.625L 44.8438 65.8438L 43.8438 65.8438L 43.8438 80.625L 44.8438 80.625ZM 50.0318 51.774C 51.158 50.8668 52.1355 49.7094 52.8435 48.4378L 51.969 47.9528C 51.3124 49.1416 50.4597 50.151 49.4057 50.9943L 50.0318 51.774ZM 51.9062 48.1953L 51.9062 80.625L 52.9062 80.625L 52.9062 48.1953L 51.9062 48.1953ZM 52.4062 80.125L 49.7188 80.125L 49.7188 81.125L 52.4062 81.125L 52.4062 80.125ZM 50.2188 80.625L 50.2188 51.3842L 49.2188 51.3842L 49.2188 80.625L 50.2188 80.625ZM 55.0938 44.8438L 57.7812 44.8438L 57.7812 43.8438L 55.0938 43.8438L 55.0938 44.8438ZM 57.2812 44.3438L 57.2812 80.625L 58.2812 80.625L 58.2812 44.3438L 57.2812 44.3438ZM 57.7812 80.125L 55.0938 80.125L 55.0938 81.125L 57.7812 81.125L 57.7812 80.125ZM 55.5938 80.625L 55.5938 44.3438L 54.5938 44.3438L 54.5938 80.625L 55.5938 80.625ZM 60.4688 44.8438L 63.1562 44.8438L 63.1562 43.8438L 60.4688 43.8438L 60.4688 44.8438ZM 62.6562 44.3438L 62.6562 80.625L 63.6562 80.625L 63.6562 44.3438L 62.6562 44.3438ZM 63.1562 80.125L 60.4688 80.125L 60.4688 81.125L 63.1562 81.125L 63.1562 80.125ZM 60.9688 80.625L 60.9688 44.3438L 59.9688 44.3438L 59.9688 80.625L 60.9688 80.625ZM 19.7213 32.4337C 20.8393 29.5986 22.4145 27.0857 24.3819 24.9011L 23.6384 24.2324C 21.6161 26.4836 19.9469 29.1474 18.7913 32.0663L 19.7213 32.4337ZM 23.6566 24.9203L 28.2587 29.5225L 28.9659 28.8154L 24.3637 24.2132L 23.6566 24.9203ZM 28.2587 29.5225C 28.337 29.5998 28.4354 29.6796 28.5168 29.7363L 29.0854 28.9137C 29.0341 28.8786 29.0055 28.856 28.9659 28.8154L 28.2587 29.5225ZM 28.4231 28.9977C 27.6318 29.9126 26.9067 30.9289 26.2872 32L 27.1531 32.5003C 27.7476 31.4701 28.4177 30.5309 29.1791 29.6523L 28.4231 28.9977ZM 26.7201 31.7502L 19.2563 31.7502L 19.2563 32.7502L 26.7201 32.7502L 26.7201 31.7502ZM 19.7563 32.2502L 19.7563 32.25L 18.7563 32.25L 18.7563 32.2502L 19.7563 32.2502ZM 51.0569 17.3873L 48.4783 23.6127L 49.4022 23.9954L 51.9808 17.7699L 51.0569 17.3873ZM 49.0979 23.3295C 47.5977 22.832 45.995 22.5085 44.3791 22.393L 44.3084 23.3905C 45.8604 23.4994 47.3406 23.7984 48.7826 24.2785L 49.0979 23.3295ZM 44.8438 22.8918L 44.8438 16.1611L 43.8438 16.1611L 43.8438 22.8918L 44.8438 22.8918ZM 44.3178 16.6604C 46.7705 16.7865 49.1115 17.2587 51.3526 18.0502L 51.6851 17.107C 49.3773 16.2947 46.8956 15.7944 44.3697 15.6618L 44.3178 16.6604ZM 55.1337 26.915C 55.0582 26.9915 54.9795 27.0881 54.9238 27.1679L 55.7455 27.7378C 55.7794 27.6882 55.8012 27.6608 55.8409 27.6221L 55.1337 26.915ZM 55.6631 27.0758C 54.4479 26.0186 53.0806 25.1051 51.6472 24.3855L 51.1991 25.2795C 52.5778 25.9695 53.8405 26.813 55.0062 27.8298L 55.6631 27.0758ZM 51.8851 25.0238L 54.4646 18.7964L 53.5407 18.4137L 50.9612 24.6412L 51.8851 25.0238ZM 53.7876 19.0565C 55.9719 20.0955 57.9616 21.4248 59.7541 23.0391L 60.4229 22.2957C 58.5754 20.6353 56.466 19.226 54.2176 18.1537L 53.7876 19.0565ZM 59.7349 22.3138L 55.1337 26.915L 55.8409 27.6221L 60.442 23.0209L 59.7349 22.3138ZM 41.6209 22.393C 40.005 22.5085 38.4023 22.832 36.9021 23.3295L 37.2174 24.2785C 38.6594 23.7984 40.1396 23.4994 41.6916 23.3905L 41.6209 22.393ZM 37.5217 23.6127L 34.9429 17.3869L 34.019 17.7696L 36.5978 23.9954L 37.5217 23.6127ZM 34.6472 18.0498C 36.8883 17.2586 39.2292 16.7864 41.682 16.6603L 41.6301 15.6616C 39.1041 15.7942 36.6226 16.2945 34.3147 17.1067L 34.6472 18.0498ZM 41.1561 16.1609L 41.1561 22.8918L 42.1561 22.8918L 42.1561 16.1609L 41.1561 16.1609ZM 41.6561 23.3918L 41.6562 23.3918L 41.6562 22.3918L 41.6561 22.3918L 41.6561 23.3918ZM 31.5353 18.7961L 34.1149 25.0238L 35.0388 24.6412L 32.4591 18.4134L 31.5353 18.7961ZM 34.3528 24.3855C 32.9193 25.1051 31.5521 26.0186 30.3369 27.0758L 30.9938 27.8298C 32.1595 26.813 33.422 25.9695 34.8009 25.2795L 34.3528 24.3855ZM 31.0757 27.1672C 31.0203 27.0881 30.9421 26.9918 30.8663 26.915L 30.1591 27.6221C 30.1985 27.6605 30.2204 27.6882 30.255 27.7385L 31.0757 27.1672ZM 30.8663 26.915L 26.2647 22.3135L 25.5576 23.0206L 30.1591 27.6221L 30.8663 26.915ZM 26.2456 23.0388C 28.038 21.4244 30.0279 20.0951 32.2122 19.0561L 31.7822 18.1533C 29.5338 19.2257 27.4243 20.6349 25.5768 22.2953L 26.2456 23.0388ZM 35.1463 27.5136L 37.1874 32.4413L 38.1113 32.0587L 36.0701 27.131L 35.1463 27.5136ZM 37.6494 31.75L 29.9132 31.75L 29.9132 32.75L 37.6494 32.75L 37.6494 31.75ZM 30.3196 32.5413C 31.783 30.4939 33.6504 28.8923 35.8376 27.7666L 35.3788 26.878C 33.0917 28.0629 31.0458 29.8183 29.5069 31.9587L 30.3196 32.5413ZM 41.0202 32.0587L 38.5529 26.1018L 37.629 26.4845L 40.0963 32.4413L 41.0202 32.0587ZM 38.2429 26.7695C 39.7679 26.2814 41.344 26.0297 43 26.0312L 43 25.0312C 41.265 25.0328 39.5365 25.3085 37.9389 25.8168L 38.2429 26.7695ZM 43 26.0312C 44.656 26.0297 46.2321 26.2814 47.7571 26.7695L 48.0611 25.8168C 46.4635 25.3085 44.735 25.0328 43 25.0312L 43 26.0312ZM 47.4471 26.1018L 44.9798 32.0587L 45.9037 32.4413L 48.371 26.4845L 47.4471 26.1018ZM 45.4418 31.75L 40.5582 31.75L 40.5582 32.75L 45.4418 32.75L 45.4418 31.75ZM 50.1624 27.7666C 52.3496 28.8923 54.217 30.4939 55.6804 32.5413L 56.4931 31.9587C 54.9542 29.8183 52.9083 28.0629 50.6212 26.878L 50.1624 27.7666ZM 56.0868 31.75L 48.3506 31.75L 48.3506 32.75L 56.0868 32.75L 56.0868 31.75ZM 48.8126 32.4413L 50.8537 27.5136L 49.9299 27.131L 47.8887 32.0587L 48.8126 32.4413ZM 59.7128 31.9999C 59.0934 30.9289 58.3682 29.9126 57.577 28.9976L 56.8208 29.652C 57.5823 30.5309 58.2525 31.4701 58.8469 32.5001L 59.7128 31.9999ZM 57.483 29.7363C 57.5644 29.6797 57.663 29.5996 57.7413 29.5223L 57.0341 28.8152C 56.9945 28.8559 56.9658 28.8786 56.9148 28.9134L 57.483 29.7363ZM 57.7413 29.5223L 62.3431 24.9205L 61.636 24.2134L 57.0341 28.8152L 57.7413 29.5223ZM 61.6178 24.9013C 63.5853 27.0859 65.1604 29.5988 66.2786 32.4336L 67.2086 32.066C 66.0528 29.1476 64.3837 26.4837 62.3613 24.2326L 61.6178 24.9013ZM 66.7436 31.7498L 59.2799 31.7498L 59.2799 32.7498L 66.7436 32.7498L 66.7436 31.7498ZM 58.7799 32.2498L 58.7799 32.25L 59.7799 32.25L 59.7799 32.2498L 58.7799 32.2498ZM 70.0841 32.0836C 66.0332 20.6063 55.2245 12.9375 43 12.9375L 43 13.9375C 54.8004 13.9375 65.2313 21.3388 69.1411 32.4164L 70.0841 32.0836ZM 43 12.9375C 30.774 12.9375 19.9669 20.6058 15.9159 32.0836L 16.8589 32.4164C 20.7689 21.3383 31.1981 13.9375 43 13.9375L 43 12.9375ZM 16.3874 31.75L 13.2621 31.75L 13.2621 32.75L 16.3874 32.75L 16.3874 31.75ZM 13.7415 32.3922C 17.3547 20.2159 29.0941 11.25 43 11.25L 43 10.25C 28.6643 10.25 16.5256 19.4946 12.7828 32.1078L 13.7415 32.3922ZM 43 11.25C 56.9059 11.25 68.6453 20.2159 72.2585 32.3922L 73.2172 32.1078C 69.4744 19.4946 57.3357 10.25 43 10.25L 43 11.25ZM 72.7379 31.75L 69.6126 31.75L 69.6126 32.75L 72.7379 32.75L 72.7379 31.75ZM 81.9688 42.5L 76.5938 42.5L 76.5938 43.5L 81.9688 43.5L 81.9688 42.5ZM 77.0938 43L 77.0938 40.3125L 76.0938 40.3125L 76.0938 43L 77.0938 43ZM 76.5938 40.8125L 81.9688 40.8125L 81.9688 39.8125L 76.5938 39.8125L 76.5938 40.8125ZM 81.4688 40.3125L 81.4688 43L 82.4688 43L 82.4688 40.3125L 81.4688 40.3125ZM 43 3.1875C 63.3023 3.1875 79.9575 18.4386 81.3697 37.6616L 82.367 37.5884C 80.9146 17.8178 63.8006 2.1875 43 2.1875L 43 3.1875ZM 81.8683 37.125L 76.4762 37.125L 76.4762 38.125L 81.8683 38.125L 81.8683 37.125ZM 76.9743 37.582C 75.5234 20.7794 60.8257 7.5625 43 7.5625L 43 8.5625C 60.3359 8.5625 74.5742 21.411 75.978 37.668L 76.9743 37.582ZM 43 7.5625C 25.1743 7.5625 10.4766 20.7794 9.02568 37.582L 10.022 37.668C 11.4258 21.411 25.6641 8.5625 43 8.5625L 43 7.5625ZM 9.52383 37.125L 4.1317 37.125L 4.1317 38.125L 9.52383 38.125L 9.52383 37.125ZM 4.63035 37.6616C 6.04251 18.4386 22.6977 3.1875 43 3.1875L 43 2.1875C 22.1994 2.1875 5.08542 17.8178 3.63304 37.5884L 4.63035 37.6616ZM 8.90625 40.3125L 8.90625 43L 9.90625 43L 9.90625 40.3125L 8.90625 40.3125ZM 9.40625 42.5L 4.03125 42.5L 4.03125 43.5L 9.40625 43.5L 9.40625 42.5ZM 4.53125 43L 4.53125 40.3125L 3.53125 40.3125L 3.53125 43L 4.53125 43ZM 4.03125 40.8125L 9.40625 40.8125L 9.40625 39.8125L 4.03125 39.8125L 4.03125 40.8125ZM 4.03125 46.1875L 9.40625 46.1875L 9.40625 45.1875L 4.03125 45.1875L 4.03125 46.1875ZM 8.90625 45.6875L 8.90625 73.9062L 9.90625 73.9062L 9.90625 45.6875L 8.90625 45.6875ZM 9.40625 73.4062L 4.03125 73.4062L 4.03125 74.4062L 9.40625 74.4062L 9.40625 73.4062ZM 4.53125 73.9062L 4.53125 45.6875L 3.53125 45.6875L 3.53125 73.9062L 4.53125 73.9062ZM 10.75 82.8125L 2.6875 82.8125L 2.6875 83.8125L 10.75 83.8125L 10.75 82.8125ZM 3.1875 83.3125L 3.1875 76.5938L 2.1875 76.5938L 2.1875 83.3125L 3.1875 83.3125ZM 2.6875 77.0938L 10.75 77.0938L 10.75 76.0938L 2.6875 76.0938L 2.6875 77.0938ZM 10.25 76.5938L 10.25 83.3125L 11.25 83.3125L 11.25 76.5938L 10.25 76.5938ZM 12.5938 73.9062L 12.5938 51.0625L 11.5938 51.0625L 11.5938 73.9062L 12.5938 73.9062ZM 12.0938 51.5625L 14.7812 51.5625L 14.7812 50.5625L 12.0938 50.5625L 12.0938 51.5625ZM 14.2812 51.0625L 14.2812 73.9062L 15.2812 73.9062L 15.2812 51.0625L 14.2812 51.0625ZM 14.7812 73.4062L 12.0938 73.4062L 12.0938 74.4062L 14.7812 74.4062L 14.7812 73.4062ZM 17.4688 44.8438L 20.1562 44.8438L 20.1562 43.8438L 17.4688 43.8438L 17.4688 44.8438ZM 19.6562 44.3438L 19.6562 80.625L 20.6562 80.625L 20.6562 44.3438L 19.6562 44.3438ZM 20.1562 80.125L 17.4688 80.125L 17.4688 81.125L 20.1562 81.125L 20.1562 80.125ZM 17.9688 80.625L 17.9688 44.3438L 16.9688 44.3438L 16.9688 80.625L 17.9688 80.625ZM 68.5312 80.125L 65.8438 80.125L 65.8438 81.125L 68.5312 81.125L 68.5312 80.125ZM 66.3438 80.625L 66.3438 44.3438L 65.3438 44.3438L 65.3438 80.625L 66.3438 80.625ZM 65.8438 44.8438L 68.5312 44.8438L 68.5312 43.8438L 65.8438 43.8438L 65.8438 44.8438ZM 68.0312 44.3438L 68.0312 80.625L 69.0312 80.625L 69.0312 44.3438L 68.0312 44.3438ZM 71.2188 51.5625L 73.9062 51.5625L 73.9062 50.5625L 71.2188 50.5625L 71.2188 51.5625ZM 73.4062 51.0625L 73.4062 73.9062L 74.4062 73.9062L 74.4062 51.0625L 73.4062 51.0625ZM 73.9062 73.4062L 71.2188 73.4062L 71.2188 74.4062L 73.9062 74.4062L 73.9062 73.4062ZM 71.7188 73.9062L 71.7188 51.0625L 70.7188 51.0625L 70.7188 73.9062L 71.7188 73.9062ZM 83.3125 82.8125L 75.25 82.8125L 75.25 83.8125L 83.3125 83.8125L 83.3125 82.8125ZM 75.75 83.3125L 75.75 76.5938L 74.75 76.5938L 74.75 83.3125L 75.75 83.3125ZM 75.25 77.0938L 83.3125 77.0938L 83.3125 76.0938L 75.25 76.0938L 75.25 77.0938ZM 82.8125 76.5938L 82.8125 83.3125L 83.8125 83.3125L 83.8125 76.5938L 82.8125 76.5938Z"/>
</defs>
</svg>
