<svg width="85" height="85" viewBox="0 0 85 85" version="1.1" xmlns="http://www.w3.org/2000/svg" xmlns:xlink="http://www.w3.org/1999/xlink">
<title>&#208;1e</title>
<desc>Created using Figma</desc>
<g id="Canvas" transform="translate(1340 -929)">
<g id="Subtract">
<use xlink:href="#path0_fill" transform="translate(-1340 929)" fill="#EB5757"/>
</g>
</g>
<defs>
<path id="path0_fill" fill-rule="evenodd" d="M 1.43738 37.1591C 2.85291 16.4532 20.7148 0 42.5 0C 64.2852 0 82.1471 16.4532 83.5627 37.1591L 83.5945 37.625L 84.0615 37.625L 84.1562 37.625C 84.6222 37.625 85 38.0028 85 38.4688C 85 38.9347 84.6222 39.3125 84.1562 39.3125L 83.6562 39.3125L 83.6562 39.8125L 83.6562 73.4062L 83.6562 73.9062L 84.1562 73.9062C 84.6222 73.9062 85 74.2841 85 74.75L 85 84.1562C 85 84.6222 84.6222 85 84.1562 85L 73.4062 85C 72.9403 85 72.5625 84.6222 72.5625 84.1562L 72.5625 76.0938L 72.5625 75.5938L 72.0625 75.5938L 70.7188 75.5938L 70.2188 75.5938L 70.2188 76.0938L 70.2188 81.4688C 70.2188 81.9347 69.8409 82.3125 69.375 82.3125L 15.625 82.3125C 15.1591 82.3125 14.7812 81.9347 14.7812 81.4688L 14.7812 76.0938L 14.7812 75.5938L 14.2812 75.5938L 12.9375 75.5938L 12.4375 75.5938L 12.4375 76.0938L 12.4375 84.1562C 12.4375 84.6222 12.0597 85 11.5938 85L 0.84375 85C 0.377808 85 0 84.6222 0 84.1562L 0 74.75C 0 74.2841 0.377808 73.9062 0.84375 73.9062L 1.34375 73.9062L 1.34375 73.4062L 1.34375 39.8125L 1.34375 39.3125L 0.84375 39.3125C 0.377808 39.3125 0 38.9347 0 38.4688C 0 38.0028 0.377808 37.625 0.84375 37.625L 0.938477 37.625L 1.40552 37.625L 1.43738 37.1591ZM 42.5 1.6875C 21.6993 1.6875 4.58545 17.3178 3.13306 37.0884L 3.09363 37.625L 3.63171 37.625L 9.0238 37.625L 9.48254 37.625L 9.52197 37.168C 10.9258 20.9109 25.1642 8.0625 42.5 8.0625C 59.8358 8.0625 74.0742 20.9109 75.478 37.168L 75.5175 37.625L 75.9762 37.625L 81.3683 37.625L 81.9064 37.625L 81.8669 37.0884C 80.4146 17.3178 63.3007 1.6875 42.5 1.6875ZM 42.5 9.75C 28.1643 9.75 16.0256 18.9946 12.2828 31.6078L 12.0922 32.25L 12.7621 32.25L 15.8873 32.25L 16.2411 32.25L 16.3589 31.9164C 20.2688 20.8383 30.6981 13.4375 42.5 13.4375C 54.3004 13.4375 64.7313 20.8388 68.6411 31.9164L 68.7589 32.25L 69.1127 32.25L 72.2379 32.25L 72.9077 32.25L 72.7172 31.6078C 68.9744 18.9946 56.8357 9.75 42.5 9.75ZM 41.6561 15.6609L 41.6561 15.1343L 41.1301 15.1616C 38.604 15.2942 36.1226 15.7946 33.8147 16.6067L 33.3171 16.7821L 33.519 17.2696L 36.0979 23.4954L 36.2759 23.9252L 36.7174 23.7785C 38.1594 23.2985 39.6396 22.9995 41.1915 22.8906L 41.174 22.3918L 41.6561 22.3918L 41.6561 15.6609ZM 43.8698 15.1618L 43.3438 15.1345L 43.3438 15.6611L 43.3438 22.3918L 43.3438 22.8576L 43.8085 22.8906C 45.3604 22.9995 46.8406 23.2985 48.2826 23.7785L 48.7241 23.9252L 48.9021 23.4954L 51.4808 17.27L 51.6827 16.7825L 51.1852 16.6071C 48.8773 15.7947 46.3956 15.2944 43.8698 15.1618ZM 31.9591 17.9134L 31.7576 17.4269L 31.2822 17.6533C 29.0338 18.7257 26.9243 20.1349 25.0768 21.7953L 24.6849 22.1479L 25.0576 22.5206L 29.6592 27.1221C 29.6985 27.1605 29.7205 27.1882 29.755 27.2385L 30.0735 27.696L 30.4938 27.3298C 31.6595 26.313 32.922 25.4695 34.3009 24.7795L 34.7169 24.571L 34.5388 24.1412L 31.9591 17.9134ZM 53.7177 17.6536L 53.2422 17.4272L 53.0406 17.9137L 50.4612 24.1412L 50.2832 24.571L 50.6991 24.7795C 52.0778 25.4695 53.3406 26.313 54.5062 27.3298L 54.9272 27.6967L 55.2455 27.2377C 55.2794 27.1882 55.3013 27.1608 55.3408 27.1221L 59.942 22.5209L 60.3147 22.1482L 59.9229 21.7957C 58.0754 20.1353 55.9661 18.726 53.7177 17.6536ZM 23.8636 23.7132L 23.491 23.3405L 23.1384 23.7324C 21.1161 25.9836 19.4469 28.6475 18.2913 31.5663L 18.2562 31.6548L 18.2562 31.7502L 18.2562 32.2502L 18.7562 32.2502L 26.2201 32.2502L 26.5087 32.2502L 26.6531 32.0003C 27.2477 30.9701 27.9177 30.0309 28.6791 29.1522L 29.0441 28.7307L 28.5853 28.4137C 28.5341 28.3787 28.5055 28.356 28.4658 28.3154L 23.8636 23.7132ZM 61.8613 23.7325L 61.5088 23.3406L 61.136 23.7134L 56.5342 28.3152C 56.4945 28.3559 56.4658 28.3786 56.4148 28.4133L 55.9558 28.7303L 56.3208 29.152C 57.0823 30.0309 57.7526 30.9701 58.3469 32.0001L 59.2799 33.615L 59.2799 32.2498L 66.2435 32.2498L 66.9788 32.2498L 66.7085 31.566C 65.5527 28.6476 63.8837 25.9838 61.8613 23.7325ZM 42.5 24.5312C 40.765 24.5328 39.0365 24.8085 37.439 25.3168L 36.9209 25.4821L 37.129 25.9845L 39.5963 31.9413L 39.7241 32.25L 40.0582 32.25L 44.9418 32.25L 45.2759 32.25L 45.4037 31.9413L 47.871 25.9845L 48.0791 25.4821L 47.561 25.3168C 45.9635 24.8085 44.235 24.5328 42.5 24.5312ZM 35.5702 26.631L 35.3621 26.1285L 34.8788 26.3781C 32.5917 27.5629 30.5458 29.3182 29.0068 31.4587L 28.4396 32.25L 29.4132 32.25L 37.1494 32.25L 37.8977 32.25L 37.6113 31.5587L 35.5702 26.631ZM 50.1212 26.3781L 49.6379 26.1285L 49.4298 26.631L 47.3887 31.5587L 47.1023 32.25L 47.8506 32.25L 55.5868 32.25L 56.5604 32.25L 55.9932 31.4587C 54.4542 29.3182 52.4083 27.5629 50.1212 26.3781ZM 12.1072 33.9375L 11.6945 33.9375L 11.6163 34.3428C 11.4435 35.2398 11.3118 36.1623 11.2245 37.0845L 11.1775 37.5822L 11.675 37.6293C 12.1028 37.6699 12.4375 38.0305 12.4375 38.4688C 12.4375 38.9347 12.0597 39.3125 11.5938 39.3125L 11.0938 39.3125L 11.0938 39.8125L 11.0938 47.875L 11.0938 48.375L 11.5938 48.375L 14.2812 48.375L 14.7812 48.375L 14.7812 47.875L 14.7812 42.5C 14.7812 42.0341 15.1591 41.6562 15.625 41.6562L 33.0938 41.6562C 33.5597 41.6562 33.9375 42.0341 33.9375 42.5C 33.9375 47.2218 37.7782 51.0625 42.5 51.0625C 47.2218 51.0625 51.0625 47.2218 51.0625 42.5C 51.0625 42.0341 51.4403 41.6562 51.9062 41.6562L 69.375 41.6562C 69.8409 41.6562 70.2188 42.0341 70.2188 42.5L 70.2188 47.875L 70.2188 48.375L 70.7188 48.375L 73.4062 48.375L 73.9062 48.375L 73.9062 47.875L 73.9062 39.8125L 73.9062 39.3125L 73.4062 39.3125C 72.9403 39.3125 72.5625 38.9347 72.5625 38.4688C 72.5625 38.0305 72.8972 37.6699 73.325 37.6293L 73.8225 37.5822L 73.7755 37.0845C 73.6882 36.1623 73.5565 35.2396 73.3837 34.3428L 73.3055 33.9375L 72.8928 33.9375L 57.9937 33.9375L 57.989 33.9375L 57.9845 33.9375L 27.0354 33.9375L 27.0303 33.9375L 12.1072 33.9375ZM 3.53125 39.3125L 3.03125 39.3125L 3.03125 39.8125L 3.03125 42.5L 3.03125 43L 3.53125 43L 8.90625 43L 9.40625 43L 9.40625 42.5L 9.40625 39.8125L 9.40625 39.3125L 8.90625 39.3125L 3.53125 39.3125ZM 76.0938 39.3125L 75.5938 39.3125L 75.5938 39.8125L 75.5938 42.5L 75.5938 43L 76.0938 43L 81.4688 43L 81.9688 43L 81.9688 42.5L 81.9688 39.8125L 81.9688 39.3125L 81.4688 39.3125L 76.0938 39.3125ZM 16.9688 43.3438L 16.4688 43.3438L 16.4688 43.8438L 16.4688 80.125L 16.4688 80.625L 16.9688 80.625L 19.6562 80.625L 20.1562 80.625L 20.1562 80.125L 20.1562 43.8438L 20.1562 43.3438L 19.6562 43.3438L 16.9688 43.3438ZM 22.3438 43.3438L 21.8438 43.3438L 21.8438 43.8438L 21.8438 80.125L 21.8438 80.625L 22.3438 80.625L 25.0312 80.625L 25.5312 80.625L 25.5312 80.125L 25.5312 43.8438L 25.5312 43.3438L 25.0312 43.3438L 22.3438 43.3438ZM 27.7188 43.3438L 27.2188 43.3438L 27.2188 43.8438L 27.2188 80.125L 27.2188 80.625L 27.7188 80.625L 30.4062 80.625L 30.9062 80.625L 30.9062 80.125L 30.9062 43.8438L 30.9062 43.3438L 30.4062 43.3438L 27.7188 43.3438ZM 54.5938 43.3438L 54.0938 43.3438L 54.0938 43.8438L 54.0938 80.125L 54.0938 80.625L 54.5938 80.625L 57.2812 80.625L 57.7812 80.625L 57.7812 80.125L 57.7812 43.8438L 57.7812 43.3438L 57.2812 43.3438L 54.5938 43.3438ZM 59.9688 43.3438L 59.4688 43.3438L 59.4688 43.8438L 59.4688 80.125L 59.4688 80.625L 59.9688 80.625L 62.6562 80.625L 63.1562 80.625L 63.1562 80.125L 63.1562 43.8438L 63.1562 43.3438L 62.6562 43.3438L 59.9688 43.3438ZM 65.3438 43.3438L 64.8438 43.3438L 64.8438 43.8438L 64.8438 80.125L 64.8438 80.625L 65.3438 80.625L 68.0312 80.625L 68.5312 80.625L 68.5312 80.125L 68.5312 43.8438L 68.5312 43.3438L 68.0312 43.3438L 65.3438 43.3438ZM 3.53125 44.6875L 3.03125 44.6875L 3.03125 45.1875L 3.03125 73.4062L 3.03125 73.9062L 3.53125 73.9062L 8.90625 73.9062L 9.40625 73.9062L 9.40625 73.4062L 9.40625 45.1875L 9.40625 44.6875L 8.90625 44.6875L 3.53125 44.6875ZM 76.0938 44.6875L 75.5938 44.6875L 75.5938 45.1875L 75.5938 73.4062L 75.5938 73.9062L 76.0938 73.9062L 81.4688 73.9062L 81.9688 73.9062L 81.9688 73.4062L 81.9688 45.1875L 81.9688 44.6875L 81.4688 44.6875L 76.0938 44.6875ZM 33.531 47.4528L 32.5938 45.7628L 32.5938 47.6953L 32.5938 80.125L 32.5938 80.625L 33.0938 80.625L 35.7812 80.625L 36.2812 80.625L 36.2812 80.125L 36.2812 50.8842L 36.2812 50.6444L 36.0942 50.4943C 35.0403 49.6509 34.1876 48.6415 33.531 47.4528ZM 52.4062 47.6953L 52.4062 45.7628L 51.469 47.4528C 50.8124 48.6415 49.9597 49.6509 48.9058 50.4943L 48.7188 50.6444L 48.7188 50.8842L 48.7188 80.125L 48.7188 80.625L 49.2188 80.625L 51.9062 80.625L 52.4062 80.625L 52.4062 80.125L 52.4062 47.6953ZM 11.5938 50.0625L 11.0938 50.0625L 11.0938 50.5625L 11.0938 73.4062L 11.0938 73.9062L 11.5938 73.9062L 14.2812 73.9062L 14.7812 73.9062L 14.7812 73.4062L 14.7812 50.5625L 14.7812 50.0625L 14.2812 50.0625L 11.5938 50.0625ZM 70.7188 50.0625L 70.2188 50.0625L 70.2188 50.5625L 70.2188 73.4062L 70.2188 73.9062L 70.7188 73.9062L 73.4062 73.9062L 73.9062 73.9062L 73.9062 73.4062L 73.9062 50.5625L 73.9062 50.0625L 73.4062 50.0625L 70.7188 50.0625ZM 38.6569 51.9998L 37.9688 51.7203L 37.9688 52.4631L 37.9688 80.125L 37.9688 80.625L 38.4688 80.625L 41.1562 80.625L 41.6562 80.625L 41.6562 80.125L 41.6562 65.3438L 41.6562 64.8438L 41.1562 64.8438C 40.6903 64.8438 40.3125 64.4659 40.3125 64C 40.3125 63.5341 40.6903 63.1562 41.1562 63.1562L 41.6562 63.1562L 41.6562 62.6562L 41.6562 53.1638L 41.6562 52.7225L 41.2184 52.6677C 40.313 52.5554 39.4751 52.3332 38.6569 51.9998ZM 47.0312 52.4631L 47.0312 51.7203L 46.3431 51.9998C 45.5249 52.3332 44.687 52.5554 43.7816 52.6677L 43.3438 52.7225L 43.3438 53.1638L 43.3438 62.6562L 43.3438 63.1562L 43.8438 63.1562C 44.3097 63.1562 44.6875 63.5341 44.6875 64C 44.6875 64.4659 44.3097 64.8438 43.8438 64.8438L 43.3438 64.8438L 43.3438 65.3438L 43.3438 80.125L 43.3438 80.625L 43.8438 80.625L 46.5312 80.625L 47.0312 80.625L 47.0312 80.125L 47.0312 52.4631ZM 2.1875 75.5938L 1.6875 75.5938L 1.6875 76.0938L 1.6875 82.8125L 1.6875 83.3125L 2.1875 83.3125L 10.25 83.3125L 10.75 83.3125L 10.75 82.8125L 10.75 76.0938L 10.75 75.5938L 10.25 75.5938L 2.1875 75.5938ZM 74.75 75.5938L 74.25 75.5938L 74.25 76.0938L 74.25 82.8125L 74.25 83.3125L 74.75 83.3125L 82.8125 83.3125L 83.3125 83.3125L 83.3125 82.8125L 83.3125 76.0938L 83.3125 75.5938L 82.8125 75.5938L 74.75 75.5938Z"/>
</defs>
</svg>
