<svg width="105" height="91" viewBox="0 0 105 91" version="1.1" xmlns="http://www.w3.org/2000/svg" xmlns:xlink="http://www.w3.org/1999/xlink">
<g id="Canvas" transform="translate(1733 -553)">
<g id="Group">
<g id="Rectangle 11">
<mask id="mask0_outline_ins">
<use xlink:href="#path0_fill" fill="white" transform="translate(-1733 573.893)"/>
</mask>
<g mask="url(#mask0_outline_ins)">
<use xlink:href="#path1_stroke_2x" transform="translate(-1733 573.893)" fill="#FFFFFF"/>
</g>
</g>
<g id="Line">
<use xlink:href="#path2_stroke" transform="matrix(6.185e-17 1 -1 6.06209e-17 -1715.09 583.563)" fill="#FFFFFF"/>
</g>
<g id="Line">
<use xlink:href="#path2_stroke" transform="matrix(6.185e-17 1 -1 6.06209e-17 -1698 583.563)" fill="#FFFFFF"/>
</g>
<g id="Line">
<use xlink:href="#path2_stroke" transform="matrix(6.185e-17 1 -1 6.06209e-17 -1663.81 583.563)" fill="#FFFFFF"/>
</g>
<g id="Line">
<use xlink:href="#path2_stroke" transform="matrix(6.185e-17 1 -1 6.06209e-17 -1646.72 583.563)" fill="#FFFFFF"/>
</g>
<g id="Line">
<use xlink:href="#path2_stroke" transform="matrix(6.185e-17 1 -1 6.06209e-17 -1680.91 583.563)" fill="#FFFFFF"/>
</g>
<g id="Arrow">
<use xlink:href="#path3_stroke" transform="matrix(-1 1.21242e-16 -1.237e-16 -1 -1643.47 561)" fill="#FFFFFF"/>
</g>
</g>
</g>
<defs>
<path id="path0_fill" d="M 0 0L 105 0L 105 70.1068L 0 70.1068L 0 0Z"/>
<path id="path1_stroke_2x" d="M 0 0L 0 -2L -2 -2L -2 0L 0 0ZM 105 0L 107 0L 107 -2L 105 -2L 105 0ZM 105 70.1068L 105 72.1068L 107 72.1068L 107 70.1068L 105 70.1068ZM 0 70.1068L -2 70.1068L -2 72.1068L 0 72.1068L 0 70.1068ZM 0 2L 105 2L 105 -2L 0 -2L 0 2ZM 103 0L 103 70.1068L 107 70.1068L 107 0L 103 0ZM 105 68.1068L 0 68.1068L 0 72.1068L 105 72.1068L 105 68.1068ZM 2 70.1068L 2 0L -2 0L -2 70.1068L 2 70.1068Z"/>
<path id="path2_stroke" d="M 0 0L 50.767 0L 50.767 -2L 0 -2L 0 0Z"/>
<path id="path3_stroke" d="M 74.7769 0.707107C 75.1674 0.316583 75.1674 -0.316583 74.7769 -0.707107L 68.4129 -7.07107C 68.0224 -7.46159 67.3892 -7.46159 66.9987 -7.07107C 66.6082 -6.68054 66.6082 -6.04738 66.9987 -5.65685L 72.6556 0L 66.9987 5.65685C 66.6082 6.04738 66.6082 6.68054 66.9987 7.07107C 67.3892 7.46159 68.0224 7.46159 68.4129 7.07107L 74.7769 0.707107ZM 0 1L 74.0698 1L 74.0698 -1L 0 -1L 0 1Z"/>
</defs>
</svg>
