<svg width="107" height="86" viewBox="0 0 107 86" version="1.1" xmlns="http://www.w3.org/2000/svg" xmlns:xlink="http://www.w3.org/1999/xlink">
<g id="Canvas" transform="translate(1490 -773)">
<g id="Line 3">
<use xlink:href="#path0_stroke" transform="matrix(0.830544 0.556953 -0.556953 0.830544 -1470 800)" fill="#EB5757"/>
</g>
<g id="Line 3">
<use xlink:href="#path1_stroke" transform="matrix(-0.819696 0.572799 -0.572799 -0.819696 -1407 799)" fill="#EB5757"/>
</g>
<g id="Rectangle 17">
<mask id="mask0_outline_ins">
<use xlink:href="#path2_fill" fill="white" transform="matrix(-1 1.22965e-16 -1.21967e-16 -1 -1385 800.429)"/>
</mask>
<g mask="url(#mask0_outline_ins)">
<use xlink:href="#path3_stroke_2x" transform="matrix(-1 1.22965e-16 -1.21967e-16 -1 -1385 800.429)" fill="#EB5757"/>
</g>
</g>
</g>
<defs>
<path id="path0_stroke" d="M 0 0L 102.343 0L 102.343 -2L 0 -2L 0 0Z"/>
<path id="path1_stroke" d="M 0 -1.11022e-16L 101.257 -1.11022e-16L 101.257 -2L 0 -2L 0 -1.11022e-16Z"/>
<path id="path2_fill" d="M 0 0L 105 0L 105 27.4286L 0 27.4286L 0 0Z"/>
<path id="path3_stroke_2x" d="M 0 0L 0 -2L -2 -2L -2 0L 0 0ZM 105 0L 107 0L 107 -2L 105 -2L 105 0ZM 105 27.4286L 105 29.4286L 107 29.4286L 107 27.4286L 105 27.4286ZM 0 27.4286L -2 27.4286L -2 29.4286L 0 29.4286L 0 27.4286ZM 0 2L 105 2L 105 -2L 0 -2L 0 2ZM 103 0L 103 27.4286L 107 27.4286L 107 0L 103 0ZM 105 25.4286L 0 25.4286L 0 29.4286L 105 29.4286L 105 25.4286ZM 2 27.4286L 2 0L -2 0L -2 27.4286L 2 27.4286Z"/>
</defs>
</svg>
