<svg width="100" height="85" viewBox="0 0 100 85" version="1.1" xmlns="http://www.w3.org/2000/svg" xmlns:xlink="http://www.w3.org/1999/xlink">
<title>Group.svg</title>
<desc>Created using Figma</desc>
<g id="Canvas" transform="translate(1120 -984)">
<g id="Group">
<g id="Rectangle 17">
<mask id="mask0_outline_ins">
<use xlink:href="#path0_fill" fill="white" transform="matrix(-1 1.27227e-16 -1.1788e-16 -1 -1093.64 1006.67)"/>
</mask>
<g mask="url(#mask0_outline_ins)">
<use xlink:href="#path1_stroke_2x" transform="matrix(-1 1.27227e-16 -1.1788e-16 -1 -1093.64 1006.67)" fill="#EB5757"/>
</g>
</g>
<g id="Rectangle 17">
<mask id="mask1_outline_ins">
<use xlink:href="#path0_fill" fill="white" transform="matrix(-1 1.27227e-16 -1.1788e-16 -1 -1093.64 1027.44)"/>
</mask>
<g mask="url(#mask1_outline_ins)">
<use xlink:href="#path1_stroke_2x" transform="matrix(-1 1.27227e-16 -1.1788e-16 -1 -1093.64 1027.44)" fill="#EB5757"/>
</g>
</g>
<g id="Rectangle 17">
<mask id="mask2_outline_ins">
<use xlink:href="#path0_fill" fill="white" transform="matrix(-1 1.27227e-16 -1.1788e-16 -1 -1093.64 1048.22)"/>
</mask>
<g mask="url(#mask2_outline_ins)">
<use xlink:href="#path1_stroke_2x" transform="matrix(-1 1.27227e-16 -1.1788e-16 -1 -1093.64 1048.22)" fill="#EB5757"/>
</g>
</g>
<g id="Rectangle 17">
<mask id="mask3_outline_ins">
<use xlink:href="#path0_fill" fill="white" transform="matrix(-1 1.27227e-16 -1.1788e-16 -1 -1093.64 1069)"/>
</mask>
<g mask="url(#mask3_outline_ins)">
<use xlink:href="#path1_stroke_2x" transform="matrix(-1 1.27227e-16 -1.1788e-16 -1 -1093.64 1069)" fill="#EB5757"/>
</g>
</g>
<g id="Rectangle 17">
<mask id="mask4_outline_ins">
<use xlink:href="#path0_fill" fill="white" transform="matrix(-1 1.27227e-16 -1.1788e-16 -1 -1069.09 1006.67)"/>
</mask>
<g mask="url(#mask4_outline_ins)">
<use xlink:href="#path1_stroke_2x" transform="matrix(-1 1.27227e-16 -1.1788e-16 -1 -1069.09 1006.67)" fill="#EB5757"/>
</g>
</g>
<g id="Rectangle 17">
<mask id="mask5_outline_ins">
<use xlink:href="#path0_fill" fill="white" transform="matrix(-1 1.27227e-16 -1.1788e-16 -1 -1069.09 1027.44)"/>
</mask>
<g mask="url(#mask5_outline_ins)">
<use xlink:href="#path1_stroke_2x" transform="matrix(-1 1.27227e-16 -1.1788e-16 -1 -1069.09 1027.44)" fill="#EB5757"/>
</g>
</g>
<g id="Rectangle 17">
<mask id="mask6_outline_ins">
<use xlink:href="#path0_fill" fill="white" transform="matrix(-1 1.27227e-16 -1.1788e-16 -1 -1069.09 1048.22)"/>
</mask>
<g mask="url(#mask6_outline_ins)">
<use xlink:href="#path1_stroke_2x" transform="matrix(-1 1.27227e-16 -1.1788e-16 -1 -1069.09 1048.22)" fill="#EB5757"/>
</g>
</g>
<g id="Rectangle 17">
<mask id="mask7_outline_ins">
<use xlink:href="#path0_fill" fill="white" transform="matrix(-1 1.27227e-16 -1.1788e-16 -1 -1069.09 1069)"/>
</mask>
<g mask="url(#mask7_outline_ins)">
<use xlink:href="#path1_stroke_2x" transform="matrix(-1 1.27227e-16 -1.1788e-16 -1 -1069.09 1069)" fill="#EB5757"/>
</g>
</g>
<g id="Rectangle 17">
<mask id="mask8_outline_ins">
<use xlink:href="#path0_fill" fill="white" transform="matrix(-1 1.27227e-16 -1.1788e-16 -1 -1044.55 1006.67)"/>
</mask>
<g mask="url(#mask8_outline_ins)">
<use xlink:href="#path1_stroke_2x" transform="matrix(-1 1.27227e-16 -1.1788e-16 -1 -1044.55 1006.67)" fill="#EB5757"/>
</g>
</g>
<g id="Rectangle 17">
<mask id="mask9_outline_ins">
<use xlink:href="#path0_fill" fill="white" transform="matrix(-1 1.27227e-16 -1.1788e-16 -1 -1044.55 1027.44)"/>
</mask>
<g mask="url(#mask9_outline_ins)">
<use xlink:href="#path1_stroke_2x" transform="matrix(-1 1.27227e-16 -1.1788e-16 -1 -1044.55 1027.44)" fill="#EB5757"/>
</g>
</g>
<g id="Rectangle 17">
<mask id="mask10_outline_ins">
<use xlink:href="#path0_fill" fill="white" transform="matrix(-1 1.27227e-16 -1.1788e-16 -1 -1044.55 1048.22)"/>
</mask>
<g mask="url(#mask10_outline_ins)">
<use xlink:href="#path1_stroke_2x" transform="matrix(-1 1.27227e-16 -1.1788e-16 -1 -1044.55 1048.22)" fill="#EB5757"/>
</g>
</g>
<g id="Rectangle 17">
<mask id="mask11_outline_ins">
<use xlink:href="#path0_fill" fill="white" transform="matrix(-1 1.27227e-16 -1.1788e-16 -1 -1044.55 1069)"/>
</mask>
<g mask="url(#mask11_outline_ins)">
<use xlink:href="#path1_stroke_2x" transform="matrix(-1 1.27227e-16 -1.1788e-16 -1 -1044.55 1069)" fill="#EB5757"/>
</g>
</g>
<g id="Rectangle 17">
<mask id="mask12_outline_ins">
<use xlink:href="#path0_fill" fill="white" transform="matrix(-1 1.27227e-16 -1.1788e-16 -1 -1020 1006.67)"/>
</mask>
<g mask="url(#mask12_outline_ins)">
<use xlink:href="#path1_stroke_2x" transform="matrix(-1 1.27227e-16 -1.1788e-16 -1 -1020 1006.67)" fill="#EB5757"/>
</g>
</g>
<g id="Rectangle 17">
<mask id="mask13_outline_ins">
<use xlink:href="#path0_fill" fill="white" transform="matrix(-1 1.27227e-16 -1.1788e-16 -1 -1020 1027.44)"/>
</mask>
<g mask="url(#mask13_outline_ins)">
<use xlink:href="#path1_stroke_2x" transform="matrix(-1 1.27227e-16 -1.1788e-16 -1 -1020 1027.44)" fill="#EB5757"/>
</g>
</g>
<g id="Rectangle 17">
<mask id="mask14_outline_ins">
<use xlink:href="#path0_fill" fill="white" transform="matrix(-1 1.27227e-16 -1.1788e-16 -1 -1020 1048.22)"/>
</mask>
<g mask="url(#mask14_outline_ins)">
<use xlink:href="#path1_stroke_2x" transform="matrix(-1 1.27227e-16 -1.1788e-16 -1 -1020 1048.22)" fill="#EB5757"/>
</g>
</g>
<g id="Rectangle 17">
<mask id="mask15_outline_ins">
<use xlink:href="#path0_fill" fill="white" transform="matrix(-1 1.27227e-16 -1.1788e-16 -1 -1020 1069)"/>
</mask>
<g mask="url(#mask15_outline_ins)">
<use xlink:href="#path1_stroke_2x" transform="matrix(-1 1.27227e-16 -1.1788e-16 -1 -1020 1069)" fill="#EB5757"/>
</g>
</g>
</g>
</g>
<defs>
<path id="path0_fill" d="M 0 0L 26.3636 0L 26.3636 22.6667L 0 22.6667L 0 0Z"/>
<path id="path1_stroke_2x" d="M 0 0L 0 -2L -2 -2L -2 0L 0 0ZM 26.3636 0L 28.3636 0L 28.3636 -2L 26.3636 -2L 26.3636 0ZM 26.3636 22.6667L 26.3636 24.6667L 28.3636 24.6667L 28.3636 22.6667L 26.3636 22.6667ZM 0 22.6667L -2 22.6667L -2 24.6667L 0 24.6667L 0 22.6667ZM 0 2L 26.3636 2L 26.3636 -2L 0 -2L 0 2ZM 24.3636 0L 24.3636 22.6667L 28.3636 22.6667L 28.3636 0L 24.3636 0ZM 26.3636 20.6667L 0 20.6667L 0 24.6667L 26.3636 24.6667L 26.3636 20.6667ZM 2 22.6667L 2 0L -2 0L -2 22.6667L 2 22.6667Z"/>
</defs>
</svg>
