<svg width="128" height="79" viewBox="0 0 128 79" version="1.1" xmlns="http://www.w3.org/2000/svg" xmlns:xlink="http://www.w3.org/1999/xlink">
<g id="Canvas" transform="translate(1737 -779)">
<g id="Group">
<g id="Line">
<use xlink:href="#path0_stroke" transform="matrix(-1 2.06983e-16 -7.24583e-17 -1 -1637.25 827.194)" fill="#EB5757"/>
</g>
<g id="Line">
<use xlink:href="#path0_stroke" transform="matrix(-1 2.06983e-16 -7.24583e-17 -1 -1637.25 841.269)" fill="#EB5757"/>
</g>
<g id="Line">
<use xlink:href="#path0_stroke" transform="matrix(-1 2.06983e-16 -7.24583e-17 -1 -1637.25 813.118)" fill="#EB5757"/>
</g>
<g id="Line">
<use xlink:href="#path0_stroke" transform="matrix(-1 2.06983e-16 -7.24583e-17 -1 -1637.25 799.043)" fill="#EB5757"/>
</g>
<g id="Rectangle 12">
<use xlink:href="#path1_stroke" transform="translate(-1689.52 789.108)" fill="#EB5757"/>
</g>
<g id="Ellipse 2">
<mask id="mask0_outline_ins">
<use xlink:href="#path2_fill" fill="white" transform="translate(-1629.75 779.172)"/>
</mask>
<g mask="url(#mask0_outline_ins)">
<use xlink:href="#path3_stroke_2x" transform="translate(-1629.75 779.172)" fill="#EB5757"/>
</g>
</g>
<g id="Ellipse 2">
<mask id="mask1_outline_ins">
<use xlink:href="#path4_fill" fill="white" transform="translate(-1624.77 784.14)"/>
</mask>
<g mask="url(#mask1_outline_ins)">
<use xlink:href="#path5_stroke_2x" transform="translate(-1624.77 784.14)" fill="#EB5757"/>
</g>
</g>
<g id="Union">
<use xlink:href="#path6_fill" transform="translate(-1690.52 779)" fill="#EB5757"/>
</g>
<g id="fire-extinguisher (1)">
<g id="XMLID 200">
<use xlink:href="#path7_stroke" transform="translate(-1736 791.591)" fill="#EB5757"/>
</g>
</g>
</g>
</g>
<defs>
<path id="path0_stroke" d="M 0 0L 42.6191 0L 42.6191 -2L 0 -2L 0 0Z"/>
<path id="path1_stroke" d="M 60.5948 67.0645L 60.5948 68.0645L 61.5948 68.0645L 61.5948 67.0645L 60.5948 67.0645ZM 0 67.0645L -1 67.0645L -1 68.0645L 0 68.0645L 0 67.0645ZM 59.5948 0L 59.5948 67.0645L 61.5948 67.0645L 61.5948 0L 59.5948 0ZM 60.5948 66.0645L 0 66.0645L 0 68.0645L 60.5948 68.0645L 60.5948 66.0645ZM 1 67.0645L 1 0L -1 0L -1 67.0645L 1 67.0645Z"/>
<path id="path2_fill" d="M 20.7516 10.3495C 20.7516 16.0653 16.1062 20.6989 10.3758 20.6989C 4.64541 20.6989 0 16.0653 0 10.3495C 0 4.63361 4.64541 0 10.3758 0C 16.1062 0 20.7516 4.63361 20.7516 10.3495Z"/>
<path id="path3_stroke_2x" d="M 18.7516 10.3495C 18.7516 14.956 15.0065 18.6989 10.3758 18.6989L 10.3758 22.6989C 17.206 22.6989 22.7516 17.1747 22.7516 10.3495L 18.7516 10.3495ZM 10.3758 18.6989C 5.74518 18.6989 2 14.956 2 10.3495L -2 10.3495C -2 17.1747 3.54564 22.6989 10.3758 22.6989L 10.3758 18.6989ZM 2 10.3495C 2 5.74297 5.74518 2 10.3758 2L 10.3758 -2C 3.54564 -2 -2 3.52425 -2 10.3495L 2 10.3495ZM 10.3758 2C 15.0065 2 18.7516 5.74297 18.7516 10.3495L 22.7516 10.3495C 22.7516 3.52425 17.206 -2 10.3758 -2L 10.3758 2Z"/>
<path id="path4_fill" d="M 10.7908 5.38172C 10.7908 8.35396 8.37524 10.7634 5.39542 10.7634C 2.41561 10.7634 0 8.35396 0 5.38172C 0 2.40948 2.41561 0 5.39542 0C 8.37524 0 10.7908 2.40948 10.7908 5.38172Z"/>
<path id="path5_stroke_2x" d="M 8.79085 5.38172C 8.79085 7.2446 7.27547 8.76344 5.39542 8.76344L 5.39542 12.7634C 9.47501 12.7634 12.7908 9.46332 12.7908 5.38172L 8.79085 5.38172ZM 5.39542 8.76344C 3.51538 8.76344 2 7.2446 2 5.38172L -2 5.38172C -2 9.46332 1.31584 12.7634 5.39542 12.7634L 5.39542 8.76344ZM 2 5.38172C 2 3.51884 3.51538 2 5.39542 2L 5.39542 -2C 1.31584 -2 -2 1.30012 -2 5.38172L 2 5.38172ZM 5.39542 2C 7.27547 2 8.79085 3.51884 8.79085 5.38172L 12.7908 5.38172C 12.7908 1.30012 9.47501 -2 5.39542 -2L 5.39542 2Z"/>
<path id="path6_fill" fill-rule="evenodd" d="M 11.3758 2C 6.19528 2 2 6.18829 2 11.3495L 0 11.3495C 0 5.7865 4.01041 1.16138 9.30063 0.188416L 9.30063 0L 11.3758 0L 60.7647 0L 61.5948 0L 71.5555 0L 71.5885 1.99945C 67.7332 2.12665 65.4352 3.81921 64.123 5.79626C 62.7742 7.82861 62.443 10.2017 62.6481 11.6204L 60.6686 11.9065C 60.3951 10.0134 60.829 7.1427 62.4567 4.69031C 63.1221 3.68762 63.9835 2.7608 65.0661 2L 61.5948 2L 60.7647 2L 11.3758 2Z"/>
<path id="path7_stroke" d="M 31.3842 10.629L 30.5662 11.2042L 30.5667 11.2049L 31.3842 10.629ZM 25.4043 6.42294L 25.1396 7.38725L 25.1398 7.38733L 25.4043 6.42294ZM 21.6421 5.38997L 21.3306 4.43975L 18.1739 5.47473L 21.3774 6.35429L 21.6421 5.38997ZM 27.1237 1.36685L 26.3066 0.790313L 26.3059 0.791398L 27.1237 1.36685ZM 27.1426 0.393058L 27.9823 -0.150101L 27.9817 -0.151009L 27.1426 0.393058ZM 26.2469 0.0175485L 26.4467 0.997391L 26.4469 0.997338L 26.2469 0.0175485ZM 15.2975 2.24993L 15.0978 1.27009L 15.0976 1.27011L 15.2975 2.24993ZM 14.7721 5.71591L 14.7721 6.71591L 15.7721 6.71591L 15.7721 5.71591L 14.7721 5.71591ZM 13.099 6.53475L 13.125 7.53441L 14.099 7.50905L 14.099 6.53475L 13.099 6.53475ZM 0.873565 28.891L 1.54394 29.633L 1.87356 29.3352L 1.87356 28.891L 0.873565 28.891ZM 4.36656 28.891L 3.36656 28.891L 3.36656 29.3349L 3.69583 29.6327L 4.36656 28.891ZM 13.0988 10.0575L 14.0988 10.0575L 14.0988 9.02025L 13.0623 9.05814L 13.0988 10.0575ZM 14.772 10.8275L 15.772 10.8275L 15.772 9.82748L 14.772 9.82748L 14.772 10.8275ZM 14.772 14.1119L 15.0806 15.0631L 15.772 14.8388L 15.772 14.1119L 14.772 14.1119ZM 21.1762 14.112L 20.1762 14.112L 20.1762 14.839L 20.8677 15.0633L 21.1762 14.112ZM 21.1762 10.0763L 21.376 9.09643L 20.1762 8.8517L 20.1762 10.0763L 21.1762 10.0763ZM 30.5039 11.9788L 30.3041 12.9586L 30.3045 12.9587L 30.5039 11.9788ZM 31.4009 11.6031L 30.5641 11.0555L 30.5636 11.0564L 31.4009 11.6031ZM 21.1763 27.4786L 21.1764 26.4786L 21.1763 26.4786L 21.1763 27.4786ZM 32.2022 10.0537C 30.6449 7.86527 28.2487 6.18149 25.6688 5.45855L 25.1398 7.38733C 27.3967 7.99091 29.2309 9.27978 30.5662 11.2042L 32.2022 10.0537ZM 25.6691 5.45863L 21.9069 4.42566L 21.3774 6.35429L 25.1396 7.38725L 25.6691 5.45863ZM 21.9537 6.3402C 24.3002 5.5585 26.4904 3.98042 27.9415 1.94231L 26.3059 0.791398C 25.0689 2.57357 23.3941 3.77553 21.3306 4.43975L 21.9537 6.3402ZM 27.9408 1.94339C 28.3821 1.3179 28.3955 0.488659 27.9823 -0.150101L 26.303 0.936217C 26.2749 0.892788 26.2748 0.835453 26.3066 0.790313L 27.9408 1.94339ZM 27.9817 -0.151009C 27.5649 -0.793803 26.7982 -1.11563 26.0468 -0.962241L 26.4469 0.997338C 26.392 1.00854 26.3342 0.984378 26.3036 0.937125L 27.9817 -0.151009ZM 26.0471 -0.962294L 15.0978 1.27009L 15.4973 3.22977L 26.4467 0.997391L 26.0471 -0.962294ZM 15.0976 1.27011C 14.3226 1.42823 13.7721 2.10858 13.7721 2.89442L 15.7721 2.89442C 15.7721 3.05433 15.6582 3.19694 15.4974 3.22975L 15.0976 1.27011ZM 13.7721 2.89442L 13.7721 3.01414L 15.7721 3.01414L 15.7721 2.89442L 13.7721 2.89442ZM 13.7721 3.01414L 13.7721 5.71591L 15.7721 5.71591L 15.7721 3.01414L 13.7721 3.01414ZM 14.7721 4.71591L 13.7538 4.71591L 13.7538 6.71591L 14.7721 6.71591L 14.7721 4.71591ZM 13.7538 4.71591C 12.8361 4.71591 12.099 5.46187 12.099 6.37316L 14.099 6.37316C 14.099 6.55895 13.9481 6.71591 13.7538 6.71591L 13.7538 4.71591ZM 12.099 6.37316L 12.099 6.53475L 14.099 6.53475L 14.099 6.37316L 12.099 6.37316ZM 13.0729 5.53509C 5.76131 5.72546 -0.126435 11.7378 -0.126435 19.115L 1.87356 19.115C 1.87356 12.8219 6.89744 7.69656 13.125 7.53441L 13.0729 5.53509ZM -0.126435 19.115L -0.126435 28.891L 1.87356 28.891L 1.87356 19.115L -0.126435 19.115ZM 0.203194 28.1489C -0.523677 28.8056 -1 29.7587 -1 30.8377L 1 30.8377C 1 30.364 1.20647 29.9379 1.54394 29.633L 0.203194 28.1489ZM -1 30.8377L -1 42.3756L 1 42.3756L 1 30.8377L -1 30.8377ZM -1 42.3756C -1 44.3769 0.615949 46.0045 2.61985 46.0045L 2.61985 44.0045C 1.72736 44.0045 1 43.2792 1 42.3756L -1 42.3756ZM 2.61985 46.0045C 4.62368 46.0045 6.2396 44.3769 6.2396 42.3756L 4.2396 42.3756C 4.2396 43.2792 3.51221 44.0045 2.61985 44.0045L 2.61985 46.0045ZM 6.2396 42.3756L 6.2396 30.8377L 4.2396 30.8377L 4.2396 42.3756L 6.2396 42.3756ZM 6.2396 30.8377C 6.2396 29.7588 5.76334 28.8059 5.0373 28.1493L 3.69583 29.6327C 4.03307 29.9376 4.2396 30.364 4.2396 30.8377L 6.2396 30.8377ZM 5.36656 28.891L 5.36656 19.1151L 3.36656 19.1151L 3.36656 28.891L 5.36656 28.891ZM 5.36656 19.1151C 5.36656 14.7558 8.82718 11.2143 13.1354 11.0568L 13.0623 9.05814C 7.68656 9.25465 3.36656 13.6718 3.36656 19.1151L 5.36656 19.1151ZM 12.0988 10.0575L 12.0988 10.1704L 14.0988 10.1704L 14.0988 10.0575L 12.0988 10.0575ZM 12.0988 10.1704C 12.0988 11.0822 12.8364 11.8275 13.7537 11.8275L 13.7537 9.82748C 13.9476 9.82748 14.0988 9.98423 14.0988 10.1704L 12.0988 10.1704ZM 13.7537 11.8275L 14.772 11.8275L 14.772 9.82748L 13.7537 9.82748L 13.7537 11.8275ZM 13.772 10.8275L 13.772 14.1119L 15.772 14.1119L 15.772 10.8275L 13.772 10.8275ZM 14.4634 13.1607C 9.8839 14.6466 6.56767 18.9551 6.56767 24.0461L 8.56767 24.0461C 8.56767 19.8451 11.3032 16.2887 15.0806 15.0631L 14.4634 13.1607ZM 6.56767 24.0461L 6.56767 49.5873L 8.56767 49.5873L 8.56767 24.0461L 6.56767 24.0461ZM 6.56767 49.5873C 6.56767 51.5579 8.1621 53.1613 10.133 53.1613L 10.133 51.1613C 9.27261 51.1613 8.56767 50.4593 8.56767 49.5873L 6.56767 49.5873ZM 10.133 53.1613L 25.8153 53.1613L 25.8153 51.1613L 10.133 51.1613L 10.133 53.1613ZM 25.8153 53.1613C 27.7886 53.1613 29.3806 51.5573 29.3806 49.5873L 27.3806 49.5873C 27.3806 50.4597 26.677 51.1613 25.8153 51.1613L 25.8153 53.1613ZM 29.3806 49.5873L 29.3806 24.0462L 27.3806 24.0462L 27.3806 49.5873L 29.3806 49.5873ZM 29.3806 24.0462C 29.3806 18.9554 26.0663 14.6466 21.4847 13.1608L 20.8677 15.0633C 24.6467 16.2887 27.3806 19.845 27.3806 24.0462L 29.3806 24.0462ZM 22.1762 14.112L 22.1762 10.0763L 20.1762 10.0763L 20.1762 14.112L 22.1762 14.112ZM 20.9763 11.0561L 30.3041 12.9586L 30.7038 10.999L 21.376 9.09643L 20.9763 11.0561ZM 30.3045 12.9587C 31.0563 13.1117 31.8208 12.7891 32.2383 12.1498L 30.5636 11.0564C 30.5923 11.0124 30.648 10.9876 30.7034 10.9989L 30.3045 12.9587ZM 32.2377 12.1506C 32.6575 11.509 32.6418 10.6777 32.2017 10.053L 30.5667 11.2049C 30.5355 11.1605 30.5343 11.1012 30.5641 11.0555L 32.2377 12.1506ZM 21.7404 29.0483L 21.7404 42.741L 23.7404 42.741L 23.7404 29.0483L 21.7404 29.0483ZM 21.7404 42.741C 21.7404 43.0593 21.4852 43.3105 21.1763 43.3105L 21.1763 45.3105C 22.5967 45.3105 23.7404 44.1569 23.7404 42.741L 21.7404 42.741ZM 21.1763 43.3105L 14.7721 43.3105L 14.7721 45.3105L 21.1763 45.3105L 21.1763 43.3105ZM 14.7721 43.3105C 14.4641 43.3105 14.2081 43.0588 14.2081 42.741L 12.2081 42.741C 12.2081 44.1575 13.3537 45.3105 14.7721 45.3105L 14.7721 43.3105ZM 14.2081 42.741L 14.2081 29.0483L 12.2081 29.0483L 12.2081 42.741L 14.2081 42.741ZM 14.2081 29.0483C 14.2081 28.7304 14.4643 28.4786 14.7721 28.4786L 14.7721 26.4786C 13.3535 26.4786 12.2081 27.6322 12.2081 29.0483L 14.2081 29.0483ZM 14.7721 28.4786L 21.1763 28.4786L 21.1763 26.4786L 14.7721 26.4786L 14.7721 28.4786ZM 21.1762 28.4786C 21.485 28.4786 21.7404 28.7301 21.7404 29.0483L 23.7404 29.0483C 23.7404 27.6327 22.5967 26.4788 21.1764 26.4786L 21.1762 28.4786Z"/>
</defs>
</svg>
