<svg width="84" height="84" viewBox="0 0 84 84" version="1.1" xmlns="http://www.w3.org/2000/svg" xmlns:xlink="http://www.w3.org/1999/xlink">
<title>&#224;q&#9;</title>
<g id="Canvas" transform="translate(869 -984)">
<g id="repairing-service">
<g id="Vector">
<mask id="mask0_outline_ins">
<use xlink:href="#path0_fill" fill="white" transform="translate(-869 984)"/>
</mask>
<g mask="url(#mask0_outline_ins)">
<use xlink:href="#path1_stroke_2x" transform="translate(-869 984)" fill="#EB5757"/>
</g>
</g>
</g>
</g>
<defs>
<path id="path0_fill" d="M 83.7362 37.3372C 83.6036 36.1566 82.2264 35.2684 81.0356 35.2684C 77.187 35.2684 73.7715 33.0096 72.3391 29.5135C 70.8769 25.9334 71.8204 21.7591 74.6877 19.1287C 75.5908 18.3029 75.7009 16.9203 74.9438 15.9606C 72.9734 13.4591 70.7349 11.1992 68.2901 9.2408C 67.3335 8.47358 65.928 8.58038 65.098 9.49909C 62.5946 12.2716 58.0976 13.3018 54.6226 11.852C 51.0076 10.331 48.7259 6.66667 48.95 2.73355C 49.0238 1.49734 48.1199 0.423146 46.8881 0.279654C 43.7505 -0.0836158 40.5852 -0.0941506 37.4386 0.254952C 36.2223 0.389362 35.3192 1.43812 35.3595 2.65871C 35.4958 6.55333 33.1882 10.153 29.6082 11.6195C 26.1748 13.0221 21.7091 11.9995 19.2109 9.25134C 18.3851 8.34607 17.0043 8.23491 16.0413 8.98579C 13.5245 10.9609 11.2355 13.2222 9.24696 15.7034C 8.47209 16.6679 8.58652 18.0657 9.49725 18.8943C 12.4213 21.5422 13.364 25.7525 11.8458 29.3743C 10.3964 32.8272 6.8112 35.0515 2.70728 35.0515C 1.37551 35.0087 0.427727 35.9034 0.280601 37.1145C -0.0884868 40.2688 -0.0924828 43.4845 0.2628 46.6645C 0.395396 47.8503 1.81326 48.7308 3.01715 48.7308C 6.67533 48.6378 10.1853 50.901 11.6598 54.4854C 13.1271 58.0654 12.1826 62.2379 9.31053 64.872C 8.41215 65.6977 8.29736 67.0771 9.05587 68.0357C 11.0063 70.5216 13.247 72.7829 15.6991 74.758C 16.6618 75.5333 18.0618 75.4246 18.8963 74.5048C 21.4094 71.7258 25.9057 70.6974 29.3666 72.1501C 32.9921 73.6671 35.2727 77.3311 35.05 81.2653C 34.977 82.5015 35.883 83.579 37.1105 83.7192C 38.7162 83.907 40.3302 84 41.9493 84C 43.486 84 45.023 83.9161 46.56 83.745C 47.7777 83.6106 48.6794 82.5607 48.6383 81.3398C 48.4977 77.447 50.8103 73.847 54.3861 72.3833C 57.8423 70.9717 62.288 72.0048 64.7877 74.749C 65.6178 75.6524 66.9903 75.7621 67.9573 75.0142C 70.4697 73.0441 72.7543 70.7839 74.7516 68.2962C 75.5272 67.3335 75.4172 65.9338 74.5013 65.1038C 71.5781 62.4577 70.6303 58.2456 72.1484 54.6274C 73.5753 51.221 77.0272 48.9339 80.7399 48.9339L 81.2593 48.9477C 82.4647 49.0454 83.5723 48.1173 83.718 46.8876C 84.0889 43.7304 84.0929 40.5184 83.7362 37.3372ZM 41.9998 66.2136C 28.6266 66.2136 17.7861 55.3732 17.7861 42.0005C 17.7861 28.6278 28.627 17.7875 41.9998 17.7875C 55.3727 17.7875 66.2136 28.6278 66.2136 42.0005C 66.2136 46.5396 64.9621 50.7851 62.7886 54.4156L 52.1861 43.8129C 52.9537 42.0031 53.3591 40.041 53.3587 38.0162C 53.3587 34.0511 51.8144 30.3236 49.0103 27.5202C 46.2069 24.7168 42.4794 23.1729 38.5149 23.1729C 37.1919 23.1729 35.875 23.3488 34.601 23.6957C 34.043 23.8479 33.5868 24.3078 33.4382 24.8669C 33.2863 25.4387 33.4574 26.0246 33.9043 26.4718C 33.9043 26.4718 39.1387 31.7465 40.89 33.4974C 41.0735 33.6809 41.0731 34.1186 41.0473 34.2763L 41.031 34.3915C 40.8544 36.3168 40.514 38.6279 40.2332 39.5161C 40.1955 39.5535 40.1599 39.5851 40.1213 39.6236C 40.081 39.664 40.044 39.7028 40.0051 39.7428C 39.1053 40.0316 36.7585 40.376 34.8026 40.5511L 34.803 40.5405L 34.7151 40.5627C 34.6995 40.5645 34.6704 40.5667 34.6319 40.5667C 34.4205 40.5667 34.1095 40.5075 33.8269 40.2252C 32.004 38.4023 26.9748 33.4092 26.9748 33.4092C 26.5236 32.9594 26.0608 32.865 25.7524 32.865C 25.0334 32.865 24.3897 33.3845 24.187 34.1295C 22.8026 39.2527 24.2702 44.7635 28.0181 48.5118C 30.8222 51.3155 34.5502 52.8594 38.5153 52.8594C 40.5402 52.8594 42.5023 52.4543 44.3117 51.6868L 55.0294 62.4043C 51.2666 64.8121 46.7983 66.2136 41.9998 66.2136Z"/>
<path id="path1_stroke_2x" d="M 83.7362 37.3372L 85.7237 37.1143L 85.7237 37.114L 83.7362 37.3372ZM 72.3391 29.5135L 70.4876 30.2697L 70.4884 30.2717L 72.3391 29.5135ZM 74.6877 19.1287L 73.3381 17.6526L 73.3357 17.6549L 74.6877 19.1287ZM 74.9438 15.9606L 73.3727 17.1981L 73.3735 17.1992L 74.9438 15.9606ZM 68.2901 9.2408L 67.0387 10.8009L 67.0397 10.8018L 68.2901 9.2408ZM 65.098 9.49909L 63.614 8.15827L 63.6135 8.15877L 65.098 9.49909ZM 54.6226 11.852L 53.8469 13.6955L 53.8525 13.6978L 54.6226 11.852ZM 48.95 2.73355L 46.9536 2.61445L 46.9533 2.61975L 48.95 2.73355ZM 46.8881 0.279654L 47.1195 -1.70691L 47.1181 -1.70707L 46.8881 0.279654ZM 37.4386 0.254952L 37.6582 2.24285L 37.6591 2.24276L 37.4386 0.254952ZM 35.3595 2.65871L 33.3606 2.72475L 33.3608 2.72863L 35.3595 2.65871ZM 29.6082 11.6195L 30.3645 13.471L 30.3663 13.4702L 29.6082 11.6195ZM 19.2109 9.25134L 20.6908 7.90601L 20.6885 7.90354L 19.2109 9.25134ZM 16.0413 8.98579L 14.8115 7.40854L 14.8066 7.41244L 16.0413 8.98579ZM 9.24696 15.7034L 10.8061 16.956L 10.8076 16.9542L 9.24696 15.7034ZM 9.49725 18.8943L 8.1513 20.3737L 8.15477 20.3768L 9.49725 18.8943ZM 11.8458 29.3743L 13.6899 30.1485L 13.6903 30.1475L 11.8458 29.3743ZM 2.70728 35.0515L 2.64294 37.0505L 2.6751 37.0515L 2.70728 37.0515L 2.70728 35.0515ZM 0.280601 37.1145L -1.70482 36.8733L -1.70585 36.8821L 0.280601 37.1145ZM 0.2628 46.6645L -1.72483 46.8866L -1.72481 46.8868L 0.2628 46.6645ZM 3.01715 48.7308L 3.01715 50.7308L 3.04257 50.7308L 3.06798 50.7302L 3.01715 48.7308ZM 11.6598 54.4854L 13.5104 53.7269L 13.5094 53.7245L 11.6598 54.4854ZM 9.31053 64.872L 7.9587 63.398L 7.95712 63.3995L 9.31053 64.872ZM 9.05587 68.0357L 10.6294 66.8011L 10.6243 66.7948L 9.05587 68.0357ZM 15.6991 74.758L 14.4445 76.3156L 14.4447 76.3158L 15.6991 74.758ZM 18.8963 74.5048L 20.3775 75.8487L 20.3797 75.8463L 18.8963 74.5048ZM 29.3666 72.1501L 28.5925 73.9943L 28.5946 73.9951L 29.3666 72.1501ZM 35.05 81.2653L 37.0466 81.3832L 37.0468 81.3783L 35.05 81.2653ZM 37.1105 83.7192L 37.3429 81.7327L 37.3375 81.7321L 37.1105 83.7192ZM 46.56 83.745L 46.3406 81.7571L 46.3388 81.7573L 46.56 83.745ZM 48.6383 81.3398L 50.6372 81.2726L 50.637 81.2676L 48.6383 81.3398ZM 54.3861 72.3833L 53.6298 70.5318L 53.6284 70.5324L 54.3861 72.3833ZM 64.7877 74.749L 63.3092 76.0958L 63.315 76.1021L 64.7877 74.749ZM 67.9573 75.0142L 69.181 76.5962L 69.1914 76.588L 67.9573 75.0142ZM 74.7516 68.2962L 73.1942 67.0414L 73.1921 67.0441L 74.7516 68.2962ZM 74.5013 65.1038L 75.8445 63.6219L 75.8435 63.621L 74.5013 65.1038ZM 72.1484 54.6274L 73.9926 55.4012L 73.9931 55.4002L 72.1484 54.6274ZM 80.7399 48.9339L 80.793 46.9346L 80.7664 46.9339L 80.7399 46.9339L 80.7399 48.9339ZM 81.2593 48.9477L 81.421 46.9542L 81.3668 46.9498L 81.3125 46.9484L 81.2593 48.9477ZM 83.718 46.8876L 85.7041 47.1229L 85.7043 47.1209L 83.718 46.8876ZM 62.7886 54.4156L 61.3744 55.8298L 63.1875 57.643L 64.5046 55.4429L 62.7886 54.4156ZM 52.1861 43.8129L 50.3448 43.0319L 49.8183 44.2735L 50.7718 45.2271L 52.1861 43.8129ZM 53.3587 38.0162L 51.3587 38.0162L 51.3587 38.0165L 53.3587 38.0162ZM 49.0103 27.5202L 47.5961 28.9344L 47.5963 28.9346L 49.0103 27.5202ZM 34.601 23.6957L 34.0755 21.766L 34.0747 21.7662L 34.601 23.6957ZM 33.4382 24.8669L 31.5053 24.3532L 31.5052 24.3535L 33.4382 24.8669ZM 33.9043 26.4718L 35.3239 25.063L 35.319 25.0582L 33.9043 26.4718ZM 40.89 33.4974L 42.3042 32.0832L 42.3041 32.0831L 40.89 33.4974ZM 41.0473 34.2763L 39.0736 33.9534L 39.0702 33.9742L 39.0672 33.9952L 41.0473 34.2763ZM 41.031 34.3915L 39.0508 34.1103L 39.0439 34.1594L 39.0393 34.2088L 41.031 34.3915ZM 40.2332 39.5161L 41.6406 40.9371L 41.9914 40.5897L 42.1402 40.119L 40.2332 39.5161ZM 40.1213 39.6236L 38.7071 38.2094L 40.1213 39.6236ZM 40.0051 39.7428L 40.6163 41.6471L 41.091 41.4947L 41.4387 41.1373L 40.0051 39.7428ZM 34.8026 40.5511L 32.8038 40.4822L 32.7258 42.745L 34.981 42.5431L 34.8026 40.5511ZM 34.803 40.5405L 36.8018 40.6094L 36.8934 37.9511L 34.3142 38.6012L 34.803 40.5405ZM 34.7151 40.5627L 34.9461 42.5493L 35.0765 42.5341L 35.2039 42.502L 34.7151 40.5627ZM 33.8269 40.2252L 32.4127 41.6394L 32.4136 41.6403L 33.8269 40.2252ZM 26.9748 33.4092L 25.5629 34.8257L 25.5657 34.8285L 26.9748 33.4092ZM 24.187 34.1295L 22.2572 33.6045L 22.2563 33.6078L 24.187 34.1295ZM 28.0181 48.5118L 26.6038 49.9259L 26.604 49.9261L 28.0181 48.5118ZM 44.3117 51.6868L 45.7259 50.2725L 44.7723 49.3189L 43.5307 49.8456L 44.3117 51.6868ZM 55.0294 62.4043L 56.1074 64.0889L 58.2021 62.7486L 56.4436 60.9901L 55.0294 62.4043ZM 85.7237 37.114C 85.5762 35.8007 84.7685 34.8296 83.9568 34.241C 83.1969 33.7166 81.9624 33.296 81.0356 33.2684L 81.0356 37.2684C 81.1693 37.2684 81.4065 37.3326 81.6086 37.4792C 81.8164 37.6298 81.7635 37.6931 81.7486 37.5604L 85.7237 37.114ZM 81.0356 33.2684C 77.9779 33.2684 75.3066 31.4811 74.1898 28.7552L 70.4884 30.2717C 72.2364 34.5381 76.3961 37.2684 81.0356 37.2684L 81.0356 33.2684ZM 74.1906 28.7572C 73.0473 25.9579 73.7841 22.6717 76.0397 20.6024L 73.3357 17.6549C 69.8566 20.8465 68.7066 25.909 70.4876 30.2697L 74.1906 28.7572ZM 76.0372 20.6047C 77.7161 19.0697 77.9184 16.5022 76.5141 14.7219L 73.3735 17.1992C 73.4833 17.3384 73.4655 17.5362 73.3381 17.6526L 76.0372 20.6047ZM 76.5149 14.723C 74.4718 12.1344 72.0727 9.71253 69.5404 7.67985L 67.0397 10.8018C 69.397 12.6859 71.475 14.7837 73.3727 17.1981L 76.5149 14.723ZM 69.5415 7.68068C 67.7611 6.2526 65.1559 6.45175 63.614 8.15827L 66.5819 10.8399C 66.7002 10.709 66.906 10.6946 67.0387 10.8009L 69.5415 7.68068ZM 63.6135 8.15877C 61.6749 10.3059 58.08 11.1274 55.3926 10.0062L 53.8525 13.6978C 58.1153 15.4762 63.5144 14.2373 66.5824 10.8394L 63.6135 8.15877ZM 55.3982 10.0085C 52.567 8.81727 50.7706 5.93919 50.9468 2.84734L 46.9533 2.61975C 46.6812 7.39416 49.4482 11.8447 53.8469 13.6955L 55.3982 10.0085ZM 50.9465 2.85264C 51.0837 0.552413 49.3999 -1.44128 47.1195 -1.70691L 46.6567 2.26622C 46.84 2.28757 46.9638 2.44226 46.9536 2.61445L 50.9465 2.85264ZM 47.1181 -1.70707C 43.869 -2.0801 40.4781 -2.09128 37.218 -1.73285L 37.6591 2.24276C 40.6924 1.90298 43.6319 1.91287 46.658 2.26638L 47.1181 -1.70707ZM 37.2189 -1.73295C 34.9589 -1.48319 33.286 0.465057 33.3606 2.72475L 37.3584 2.59267C 37.3524 2.41119 37.4857 2.26192 37.6582 2.24285L 37.2189 -1.73295ZM 33.3608 2.72863C 33.4681 5.79644 31.6461 8.6234 28.85 9.76876L 30.3663 13.4702C 34.7304 11.6825 37.5235 7.31023 37.3583 2.5888L 33.3608 2.72863ZM 28.8518 9.76804C 26.2014 10.8508 22.6276 10.0366 20.6908 7.90601L 17.731 10.5967C 20.7906 13.9623 26.1483 15.1934 30.3645 13.471L 28.8518 9.76804ZM 20.6885 7.90354C 19.154 6.2212 16.5929 6.01964 14.8115 7.40855L 17.2711 10.563C 17.4158 10.4502 17.6163 10.4709 17.7332 10.5991L 20.6885 7.90354ZM 14.8066 7.41244C 12.2022 9.46039 9.74993 11.8832 7.68634 14.4526L 10.8076 16.9542C 12.7211 14.5613 14.8468 12.4614 17.276 10.5591L 14.8066 7.41244ZM 7.68781 14.4508C 6.24771 16.2433 6.46271 18.8373 8.1513 20.3737L 10.8432 17.415C 10.7103 17.2941 10.6965 17.0925 10.8061 16.956L 7.68781 14.4508ZM 8.15477 20.3768C 10.4535 22.4584 11.1898 25.7659 10.0013 28.6012L 13.6903 30.1475C 15.5381 25.7392 14.3891 20.626 10.8397 17.4119L 8.15477 20.3768ZM 10.0017 28.6002C 8.90149 31.2211 6.10714 33.0515 2.70728 33.0515L 2.70728 37.0515C 7.51526 37.0515 11.8912 34.4333 13.6899 30.1485L 10.0017 28.6002ZM 2.77162 33.0526C 0.365642 32.9751 -1.4375 34.6729 -1.7048 36.8733L 2.26601 37.3557C 2.28408 37.207 2.33987 37.1415 2.36799 37.1168C 2.38868 37.0987 2.45724 37.0445 2.64294 37.0505L 2.77162 33.0526ZM -1.70585 36.8821C -2.08502 40.1511 -2.08946 43.5944 -1.72483 46.8866L 2.25043 46.4425C 1.90449 43.3745 1.90805 40.3865 2.26705 37.347L -1.70585 36.8821ZM -1.72481 46.8868C -1.57517 48.225 -0.735065 49.1971 0.0844134 49.7759C 0.854907 50.2943 2.09259 50.7046 3.01715 50.7308L 3.01715 46.7308C 2.8647 46.7308 2.60695 46.6605 2.39207 46.5087C 2.16849 46.3508 2.23336 46.2898 2.25041 46.4423L -1.72481 46.8868ZM 3.06798 50.7302C 5.87898 50.6587 8.64418 52.4118 9.81022 55.2463L 13.5094 53.7245C 11.7264 49.3902 7.47168 46.6169 2.96632 46.7315L 3.06798 50.7302ZM 9.80923 55.2439C 10.9555 58.0407 10.2198 61.3243 7.9587 63.398L 10.6624 66.346C 14.1454 63.1516 15.2987 58.0902 13.5104 53.7269L 9.80923 55.2439ZM 7.95712 63.3995C 6.29322 64.9288 6.07444 67.4909 7.48744 69.2767L 10.6243 66.7948C 10.5203 66.6633 10.5311 66.4666 10.6639 66.3445L 7.95712 63.3995ZM 7.48239 69.2703C 9.50671 71.8449 11.9072 74.2679 14.4445 76.3156L 16.9537 73.2005C 14.5867 71.298 12.5059 69.1982 10.6294 66.8012L 7.48239 69.2703ZM 14.4447 76.3158C 16.2336 77.7563 18.8329 77.5513 20.3775 75.8487L 17.415 73.161C 17.2908 73.298 17.09 73.3102 16.9535 73.2003L 14.4447 76.3158ZM 20.3797 75.8463C 22.3304 73.6892 25.9242 72.8742 28.5925 73.9943L 30.1407 70.306C 25.8872 68.5206 20.4884 69.7624 17.4129 73.1634L 20.3797 75.8463ZM 28.5946 73.9951C 31.4331 75.1829 33.2283 78.0589 33.0532 81.1523L 37.0468 81.3783C 37.3171 76.6033 34.551 72.1514 30.1386 70.3051L 28.5946 73.9951ZM 33.0535 81.1474C 32.9179 83.4425 34.5996 85.4454 36.8835 85.7063L 37.3375 81.7321C 37.1664 81.7126 37.0361 81.5605 37.0465 81.3832L 33.0535 81.1474ZM 36.8782 85.7057C 38.5424 85.8994 40.2727 85.9992 41.9493 86L 41.9493 82C 40.3878 82.0008 38.89 81.9146 37.3429 81.7327L 36.8782 85.7057ZM 41.9493 86C 43.5405 85.9993 45.1882 85.9092 46.7813 85.7327L 46.3388 81.7573C 44.8578 81.9229 43.4315 82.0007 41.9493 82L 41.9493 86ZM 46.7795 85.7329C 49.0432 85.483 50.7131 83.5313 50.6372 81.2726L 46.6395 81.407C 46.6456 81.5901 46.5122 81.7381 46.3406 81.7571L 46.7795 85.7329ZM 50.637 81.2676C 50.5264 78.2047 52.3511 75.3774 55.1437 74.2343L 53.6284 70.5324C 49.2696 72.3166 46.4691 76.6892 46.6396 81.412L 50.637 81.2676ZM 55.1423 74.2349C 57.8127 73.1442 61.3683 73.9651 63.3092 76.0958L 66.2663 73.4021C 63.2078 70.0446 57.8719 68.7992 53.6298 70.5318L 55.1423 74.2349ZM 63.315 76.1021C 64.8537 77.7768 67.3987 77.9746 69.1809 76.5962L 66.7337 73.4321C 66.5818 73.5496 66.382 73.528 66.2605 73.3958L 63.315 76.1021ZM 69.1914 76.588C 71.7922 74.5444 74.2398 72.123 76.3112 69.5483L 73.1921 67.0441C 71.2688 69.4447 69.1472 71.5438 66.7232 73.4403L 69.1914 76.588ZM 76.3091 69.551C 77.7497 67.7628 77.5448 65.163 75.8445 63.6219L 73.1582 66.5857C 73.2895 66.7047 73.3047 66.9042 73.1942 67.0414L 76.3091 69.551ZM 75.8435 63.621C 73.5443 61.5398 72.8055 58.2305 73.9926 55.4012L 70.3042 53.8536C 68.455 58.2607 69.6119 63.3756 73.1592 66.5865L 75.8435 63.621ZM 73.9931 55.4002C 75.1064 52.7426 77.8274 50.9339 80.7399 50.9339L 80.7399 46.9339C 76.227 46.9339 72.0443 49.6995 70.3037 53.8547L 73.9931 55.4002ZM 80.6867 50.9332L 81.2062 50.947L 81.3125 46.9484L 80.793 46.9346L 80.6867 50.9332ZM 81.0977 50.9412C 83.4173 51.1292 85.4369 49.3785 85.7041 47.1229L 81.7319 46.6523C 81.7224 46.7321 81.6795 46.8171 81.6015 46.8824C 81.5237 46.9476 81.4562 46.9571 81.421 46.9542L 81.0977 50.9412ZM 85.7043 47.1209C 86.0854 43.8485 86.0898 40.408 85.7237 37.1143L 81.7486 37.5601C 82.0959 40.6287 82.0924 43.6123 81.7316 46.6542L 85.7043 47.1209ZM 41.9998 64.2136C 29.7311 64.2136 19.7861 54.2686 19.7861 42.0005L 15.7861 42.0005C 15.7861 56.4778 27.5221 68.2136 41.9998 68.2136L 41.9998 64.2136ZM 19.7861 42.0005C 19.7861 29.7324 29.7315 19.7875 41.9998 19.7875L 41.9998 15.7875C 27.5225 15.7875 15.7861 27.5232 15.7861 42.0005L 19.7861 42.0005ZM 41.9998 19.7875C 54.2682 19.7875 64.2136 29.7324 64.2136 42.0005L 68.2136 42.0005C 68.2136 27.5232 56.4772 15.7875 41.9998 15.7875L 41.9998 19.7875ZM 64.2136 42.0005C 64.2341 46.2539 63.1303 49.9823 61.0726 53.3883L 64.5046 55.4429C 66.7939 51.5879 68.1931 46.8253 68.2136 42.0005L 64.2136 42.0005ZM 64.2028 53.0014L 53.6003 42.3987L 50.7718 45.2271L 61.3744 55.8298L 64.2028 53.0014ZM 54.0273 44.5938C 54.8629 42.5988 55.3487 40.2443 55.3587 38.0158L 51.3587 38.0165C 51.3694 39.8378 51.0445 41.4073 50.3448 43.0319L 54.0273 44.5938ZM 55.3587 38.0162C 55.3587 33.5205 53.6037 29.2842 50.4243 26.1058L 47.5963 28.9346C 50.0252 31.3629 51.3587 34.5816 51.3587 38.0162L 55.3587 38.0162ZM 50.4245 26.106C 47.246 22.9275 43.0098 21.1729 38.5149 21.1729L 38.5149 25.1729C 41.949 25.1729 45.1678 26.5061 47.5961 28.9344L 50.4245 26.106ZM 38.5149 21.1729C 37.0593 21.1773 35.4791 21.3884 34.0755 21.766L 35.1265 25.6254C 36.271 25.3092 37.3245 25.1685 38.5149 25.1729L 38.5149 21.1729ZM 34.0747 21.7662C 32.8278 22.1063 31.8366 23.1065 31.5053 24.3532L 35.3711 25.3806C 35.3504 25.4584 35.3153 25.5077 35.2855 25.5377C 35.2556 25.5678 35.2061 25.6037 35.1273 25.6252L 34.0747 21.7662ZM 31.5052 24.3535C 31.1546 25.6735 31.5839 26.9791 32.4895 27.8855L 35.319 25.0582C 35.3155 25.0547 35.346 25.0849 35.3671 25.1575C 35.3891 25.2332 35.3887 25.3143 35.3712 25.3802L 31.5052 24.3535ZM 33.9043 26.4718C 32.4846 27.8806 32.4847 27.8806 32.4847 27.8807C 32.4847 27.8807 32.4848 27.8808 32.4849 27.8808C 32.485 27.881 32.4853 27.8812 32.4856 27.8816C 32.4862 27.8822 32.4872 27.8832 32.4884 27.8844C 32.491 27.887 32.4948 27.8908 32.4997 27.8958C 32.5097 27.9058 32.5245 27.9208 32.5439 27.9403C 32.5827 27.9794 32.6398 28.0369 32.7131 28.1108C 32.8597 28.2585 33.0711 28.4714 33.3302 28.7324C 33.8483 29.2543 34.5576 29.9686 35.3216 30.7376C 36.8494 32.2754 38.5982 34.0342 39.476 34.9118L 42.3041 32.0831C 41.4305 31.2097 39.6864 29.4557 38.1592 27.9184C 37.3956 27.1498 36.6869 26.436 36.1688 25.9142C 35.9098 25.6534 35.6986 25.4406 35.5521 25.293C 35.4788 25.2192 35.4218 25.1617 35.383 25.1226C 35.3637 25.1031 35.3489 25.0882 35.3389 25.0782C 35.3339 25.0732 35.3302 25.0694 35.3277 25.0668C 35.3264 25.0656 35.3255 25.0646 35.3248 25.064C 35.3245 25.0637 35.3243 25.0634 35.3241 25.0633C 35.324 25.0632 35.324 25.0631 35.3239 25.0631C 35.3239 25.063 35.3239 25.063 33.9043 26.4718ZM 39.4758 34.9117C 39.2494 34.6853 39.1537 34.4606 39.1175 34.3617C 39.0778 34.2533 39.0667 34.1769 39.0636 34.1524C 39.0598 34.1228 39.0594 34.1034 39.0596 34.0898C 39.0597 34.0841 39.0599 34.0373 39.0736 33.9534L 43.0211 34.5992C 43.0496 34.4032 43.065 33.9642 43.0307 33.6407C 42.9986 33.3919 42.8866 32.6655 42.3042 32.0832L 39.4758 34.9117ZM 39.0672 33.9952L 39.0508 34.1103L 43.0111 34.6726L 43.0275 34.5574L 39.0672 33.9952ZM 39.0393 34.2088C 38.8619 36.1441 38.5342 38.2555 38.3263 38.9132L 42.1402 40.119C 42.4939 39.0003 42.847 36.4895 43.0226 34.5741L 39.0393 34.2088ZM 38.8259 38.0951C 38.8263 38.0944 38.8247 38.0962 38.8052 38.1146C 38.7872 38.1316 38.7493 38.1672 38.7071 38.2094L 41.5355 41.0379C 41.5319 41.0416 41.5311 41.0421 41.55 41.0243C 41.564 41.011 41.6011 40.9762 41.6406 40.9371L 38.8259 38.0951ZM 38.7071 38.2094C 38.65 38.2668 38.6033 38.3156 38.5715 38.3483L 41.4387 41.1373C 41.4846 41.0901 41.512 41.0612 41.5355 41.0379L 38.7071 38.2094ZM 39.3939 37.8385C 38.7314 38.0511 36.5906 38.383 34.6243 38.559L 34.981 42.5431C 36.9264 42.3689 39.4792 42.0121 40.6163 41.6471L 39.3939 37.8385ZM 36.8014 40.62L 36.8018 40.6094L 32.8042 40.4716L 32.8038 40.4822L 36.8014 40.62ZM 34.3142 38.6012L 34.2263 38.6233L 35.2039 42.502L 35.2918 42.4799L 34.3142 38.6012ZM 34.4841 38.5761C 34.5224 38.5716 34.5521 38.5695 34.5722 38.5684C 34.594 38.5672 34.6138 38.5667 34.6319 38.5667L 34.6319 42.5667C 34.7453 42.5653 34.8898 42.5554 34.9461 42.5493L 34.4841 38.5761ZM 34.6319 38.5667C 34.7105 38.5667 34.8151 38.5775 34.9319 38.6194C 35.0568 38.6643 35.1636 38.7336 35.2402 38.8101L 32.4136 41.6403C 33.1629 42.3887 34.0359 42.5667 34.6319 42.5667L 34.6319 38.5667ZM 35.2411 38.811C 34.3278 37.8977 32.6126 36.1915 31.1271 34.7151C 30.3844 33.9768 29.6985 33.2955 29.1985 32.7988C 28.9484 32.5505 28.7448 32.3482 28.6037 32.2081C 28.5331 32.1381 28.4782 32.0835 28.4409 32.0465C 28.4222 32.0279 28.408 32.0138 28.3984 32.0043C 28.3936 31.9995 28.39 31.9959 28.3876 31.9935C 28.3864 31.9923 28.3854 31.9914 28.3848 31.9908C 28.3845 31.9905 28.3843 31.9903 28.3841 31.9901C 28.3841 31.99 28.384 31.99 28.384 31.9899C 28.3839 31.9899 28.3839 31.9899 26.9748 33.4092C 25.5657 34.8285 25.5657 34.8285 25.5657 34.8285C 25.5658 34.8286 25.5658 34.8286 25.5659 34.8287C 25.566 34.8288 25.5663 34.8291 25.5666 34.8294C 25.5672 34.83 25.5681 34.8309 25.5693 34.8321C 25.5717 34.8345 25.5753 34.8381 25.5801 34.8428C 25.5897 34.8523 25.6039 34.8664 25.6225 34.8849C 25.6598 34.9219 25.7147 34.9764 25.7852 35.0464C 25.9262 35.1865 26.1297 35.3886 26.3797 35.6368C 26.8796 36.1334 27.5649 36.8142 28.3073 37.5521C 29.7922 39.028 31.5031 40.7299 32.4127 41.6394L 35.2411 38.811ZM 28.3867 31.9927C 27.5022 31.111 26.5015 30.865 25.7524 30.865L 25.7524 34.865C 25.7021 34.865 25.6498 34.857 25.6013 34.8386C 25.5473 34.8182 25.5364 34.7993 25.5629 34.8257L 28.3867 31.9927ZM 25.7524 30.865C 24.0428 30.865 22.6728 32.0769 22.2572 33.6045L 26.1169 34.6546C 26.1083 34.6861 26.0852 34.7314 26.0327 34.7738C 25.9792 34.817 25.8827 34.865 25.7524 34.865L 25.7524 30.865ZM 22.2563 33.6078C 20.6854 39.421 22.3488 45.6705 26.6038 49.9259L 29.4324 47.0976C 26.1916 43.8566 24.9198 39.0844 26.1178 34.6513L 22.2563 33.6078ZM 26.604 49.9261C 29.7832 53.1048 34.0198 54.8594 38.5153 54.8594L 38.5153 50.8594C 35.0805 50.8594 31.8613 49.5261 29.4322 47.0975L 26.604 49.9261ZM 38.5153 54.8594C 40.7434 54.849 43.0979 54.3636 45.0928 53.5279L 43.5307 49.8456C 41.9066 50.5451 40.337 50.8697 38.5153 50.8594L 38.5153 54.8594ZM 42.8975 53.101L 53.6152 63.8185L 56.4436 60.9901L 45.7259 50.2725L 42.8975 53.101ZM 53.9515 60.7197C 50.4209 62.9997 46.4956 64.2366 41.9998 64.2136L 41.9998 68.2136C 47.1011 68.1905 52.1123 66.6245 56.1074 64.0889L 53.9515 60.7197Z"/>
</defs>
</svg>
