<svg width="120" height="77" viewBox="0 0 120 77" version="1.1" xmlns="http://www.w3.org/2000/svg" xmlns:xlink="http://www.w3.org/1999/xlink">
<title>Group.svg</title>
<desc>Created using Figma</desc>
<g id="Canvas" transform="translate(1241 -569)">
<g id="Group">
<g id="Group">
<g id="Line">
<use xlink:href="#path0_stroke" transform="matrix(-1 1.22e-16 -1.22931e-16 -1 -1154.19 616.774)" fill="#EB5757"/>
</g>
<g id="Line">
<use xlink:href="#path0_stroke" transform="matrix(-1 1.22e-16 -1.22931e-16 -1 -1154.19 630.484)" fill="#EB5757"/>
</g>
<g id="Line">
<use xlink:href="#path0_stroke" transform="matrix(-1 1.22e-16 -1.22931e-16 -1 -1154.19 603.065)" fill="#EB5757"/>
</g>
<g id="Line">
<use xlink:href="#path0_stroke" transform="matrix(-1 1.22e-16 -1.22931e-16 -1 -1154.19 589.355)" fill="#EB5757"/>
</g>
<g id="Rectangle 12">
<use xlink:href="#path1_stroke" transform="translate(-1239.19 579.677)" fill="#EB5757"/>
</g>
<g id="Ellipse 2">
<mask id="mask0_outline_ins">
<use xlink:href="#path2_fill" fill="white" transform="translate(-1141.24 570)"/>
</mask>
<g mask="url(#mask0_outline_ins)">
<use xlink:href="#path3_stroke_2x" transform="translate(-1141.24 570)" fill="#EB5757"/>
</g>
</g>
<g id="Ellipse 2">
<mask id="mask1_outline_ins">
<use xlink:href="#path4_fill" fill="white" transform="translate(-1136.38 574.839)"/>
</mask>
<g mask="url(#mask1_outline_ins)">
<use xlink:href="#path5_stroke_2x" transform="translate(-1136.38 574.839)" fill="#EB5757"/>
</g>
</g>
<g id="Union">
<use xlink:href="#path6_fill" transform="translate(-1240.19 569.806)" fill="#EB5757"/>
</g>
</g>
</g>
</g>
<defs>
<path id="path0_stroke" d="M 0 0L 70.4286 0L 70.4286 -2L 0 -2L 0 0Z"/>
<path id="path1_stroke" d="M 98.7619 65.3226L 98.7619 66.3226L 99.7619 66.3226L 99.7619 65.3226L 98.7619 65.3226ZM 0 65.3226L -1 65.3226L -1 66.3226L 0 66.3226L 0 65.3226ZM 97.7619 0L 97.7619 65.3226L 99.7619 65.3226L 99.7619 0L 97.7619 0ZM 98.7619 64.3226L 0 64.3226L 0 66.3226L 98.7619 66.3226L 98.7619 64.3226ZM 1 65.3226L 1 0L -1 0L -1 65.3226L 1 65.3226Z"/>
<path id="path2_fill" d="M 20.2381 10.0806C 20.2381 15.648 15.7076 20.1613 10.119 20.1613C 4.53045 20.1613 0 15.648 0 10.0806C 0 4.51326 4.53045 0 10.119 0C 15.7076 0 20.2381 4.51326 20.2381 10.0806Z"/>
<path id="path3_stroke_2x" d="M 18.2381 10.0806C 18.2381 14.5363 14.6102 18.1613 10.119 18.1613L 10.119 22.1613C 16.805 22.1613 22.2381 16.7598 22.2381 10.0806L 18.2381 10.0806ZM 10.119 18.1613C 5.62784 18.1613 2 14.5363 2 10.0806L -2 10.0806C -2 16.7598 3.43306 22.1613 10.119 22.1613L 10.119 18.1613ZM 2 10.0806C 2 5.62499 5.62784 2 10.119 2L 10.119 -2C 3.43306 -2 -2 3.40153 -2 10.0806L 2 10.0806ZM 10.119 2C 14.6102 2 18.2381 5.62499 18.2381 10.0806L 22.2381 10.0806C 22.2381 3.40153 16.805 -2 10.119 -2L 10.119 2Z"/>
<path id="path4_fill" d="M 10.5238 5.24194C 10.5238 8.13698 8.16797 10.4839 5.2619 10.4839C 2.35583 10.4839 0 8.13698 0 5.24194C 0 2.34689 2.35583 0 5.2619 0C 8.16797 0 10.5238 2.34689 10.5238 5.24194Z"/>
<path id="path5_stroke_2x" d="M 8.52381 5.24194C 8.52381 7.02524 7.07058 8.48387 5.2619 8.48387L 5.2619 12.4839C 9.26537 12.4839 12.5238 9.24871 12.5238 5.24194L 8.52381 5.24194ZM 5.2619 8.48387C 3.45323 8.48387 2 7.02524 2 5.24194L -2 5.24194C -2 9.24871 1.25844 12.4839 5.2619 12.4839L 5.2619 8.48387ZM 2 5.24194C 2 3.45863 3.45323 2 5.2619 2L 5.2619 -2C 1.25844 -2 -2 1.23516 -2 5.24194L 2 5.24194ZM 5.2619 2C 7.07058 2 8.52381 3.45863 8.52381 5.24194L 12.5238 5.24194C 12.5238 1.23516 9.26537 -2 5.2619 -2L 5.2619 2Z"/>
<path id="path6_fill" fill-rule="evenodd" d="M 11.119 2C 6.07915 2 2 6.06915 2 11.0806L 0 11.0806C 0 5.09259 4.76421 0.219482 10.7143 0.00720215L 10.7143 0L 11.119 0L 98.9524 0L 99.7619 0L 109.476 0L 109.509 1.99945C 105.757 2.12305 103.523 3.76776 102.248 5.68652C 100.936 7.66058 100.615 9.96527 100.814 11.3406L 98.8342 11.6271C 98.5665 9.77667 98.9911 6.97382 100.582 4.57959C 101.219 3.62103 102.04 2.73376 103.066 2L 99.7619 2L 98.9524 2L 11.119 2Z"/>
</defs>
</svg>
