<svg width="122" height="71" viewBox="0 0 122 71" version="1.1" xmlns="http://www.w3.org/2000/svg" xmlns:xlink="http://www.w3.org/1999/xlink">
<g id="Canvas" transform="translate(1485 -575)">
<g id="Group">
<g id="Line">
<use xlink:href="#path0_stroke" transform="matrix(-1 1.22736e-16 -1.22194e-16 -1 -1398.69 617.437)" fill="#EB5757"/>
</g>
<g id="Line">
<use xlink:href="#path0_stroke" transform="matrix(-1 1.22736e-16 -1.22194e-16 -1 -1398.69 631.31)" fill="#EB5757"/>
</g>
<g id="Line">
<use xlink:href="#path0_stroke" transform="matrix(-1 1.22736e-16 -1.22194e-16 -1 -1398.69 603.563)" fill="#EB5757"/>
</g>
<g id="Line">
<use xlink:href="#path0_stroke" transform="matrix(-1 1.22736e-16 -1.22194e-16 -1 -1398.69 589.69)" fill="#EB5757"/>
</g>
<g id="Rectangle 12">
<mask id="mask0_outline_ins">
<use xlink:href="#path1_fill" fill="white" transform="translate(-1485 575)"/>
</mask>
<g mask="url(#mask0_outline_ins)">
<use xlink:href="#path2_stroke_2x" transform="translate(-1485 575)" fill="#EB5757"/>
</g>
</g>
<g id="Arrow 2">
<use xlink:href="#path3_stroke" transform="matrix(6.10968e-17 -1 1 6.13682e-17 -1371 633.759)" fill="#EB5757"/>
</g>
</g>
</g>
<defs>
<path id="path0_stroke" d="M 0 0L 70.8429 0L 70.8429 -2L 0 -2L 0 0Z"/>
<path id="path1_fill" d="M 0 0L 100.971 0L 100.971 71L 0 71L 0 0Z"/>
<path id="path2_stroke_2x" d="M 0 0L 0 -2L -2 -2L -2 0L 0 0ZM 100.971 0L 102.971 0L 102.971 -2L 100.971 -2L 100.971 0ZM 100.971 71L 100.971 73L 102.971 73L 102.971 71L 100.971 71ZM 0 71L -2 71L -2 73L 0 73L 0 71ZM 0 2L 100.971 2L 100.971 -2L 0 -2L 0 2ZM 98.9714 0L 98.9714 71L 102.971 71L 102.971 0L 98.9714 0ZM 100.971 69L 0 69L 0 73L 100.971 73L 100.971 69ZM 2 71L 2 0L -2 0L -2 71L 2 71Z"/>
<path id="path3_stroke" d="M 47.2243 0.707107C 47.6149 0.316583 47.6149 -0.316583 47.2243 -0.707107L 40.8604 -7.07107C 40.4699 -7.46159 39.8367 -7.46159 39.4462 -7.07107C 39.0556 -6.68054 39.0556 -6.04738 39.4462 -5.65685L 45.103 0L 39.4462 5.65685C 39.0556 6.04738 39.0556 6.68054 39.4462 7.07107C 39.8367 7.46159 40.4699 7.46159 40.8604 7.07107L 47.2243 0.707107ZM 0 1L 46.5172 1L 46.5172 -1L 0 -1L 0 1Z"/>
</defs>
</svg>
