<svg width="115" height="72" viewBox="0 0 115 72" version="1.1" xmlns="http://www.w3.org/2000/svg" xmlns:xlink="http://www.w3.org/1999/xlink">
<g id="Canvas" transform="translate(766 -784)">
<g id="Group">
<g id="Rectangle 19">
<mask id="mask0_outline_ins">
<use xlink:href="#path0_fill" fill="white" transform="translate(-766 803.546)"/>
</mask>
<g mask="url(#mask0_outline_ins)">
<use xlink:href="#path1_stroke_2x" transform="translate(-766 803.546)" fill="#EB5757"/>
</g>
</g>
<g id="Group">
<g id="Mask Group">
<mask id="mask1_alpha" mask-type="alpha">
<g id="Rectangle 20">
<use xlink:href="#path2_fill" transform="matrix(0.974403 -0.22481 0.225468 0.974251 -761.896 809.116)" fill="#FFFFFF"/>
<mask id="mask2_outline_ins">
<use xlink:href="#path2_fill" fill="white" transform="matrix(0.974403 -0.22481 0.225468 0.974251 -761.896 809.116)"/>
</mask>
<g mask="url(#mask2_outline_ins)">
<use xlink:href="#path3_stroke_2x" transform="matrix(0.974403 -0.22481 0.225468 0.974251 -761.896 809.116)" fill="#EB5757"/>
</g>
</g>
</mask>
<g id="Rectangle 21" mask="url(#mask1_alpha)">
<use xlink:href="#path4_fill" transform="matrix(0.974403 -0.22481 0.225468 0.974251 -750.529 789.67)" fill="#EB5757"/>
</g>
<g id="Rectangle 21" mask="url(#mask1_alpha)">
<use xlink:href="#path4_fill" transform="matrix(0.974403 -0.22481 0.225468 0.974251 -742.998 787.932)" fill="#EB5757"/>
</g>
<g id="Rectangle 21" mask="url(#mask1_alpha)">
<use xlink:href="#path4_fill" transform="matrix(0.974403 -0.22481 0.225468 0.974251 -735.466 786.195)" fill="#EB5757"/>
</g>
<g id="Rectangle 21" mask="url(#mask1_alpha)">
<use xlink:href="#path4_fill" transform="matrix(0.974403 -0.22481 0.225468 0.974251 -727.935 784.457)" fill="#EB5757"/>
</g>
<g id="Rectangle 21" mask="url(#mask1_alpha)">
<use xlink:href="#path4_fill" transform="matrix(0.974403 -0.22481 0.225468 0.974251 -720.404 782.72)" fill="#EB5757"/>
</g>
<g id="Rectangle 21" mask="url(#mask1_alpha)">
<use xlink:href="#path4_fill" transform="matrix(0.974403 -0.22481 0.225468 0.974251 -698.494 777.665)" fill="#EB5757"/>
</g>
<g id="Rectangle 21" mask="url(#mask1_alpha)">
<use xlink:href="#path4_fill" transform="matrix(0.974403 -0.22481 0.225468 0.974251 -690.963 775.927)" fill="#EB5757"/>
</g>
<g id="Rectangle 21" mask="url(#mask1_alpha)">
<use xlink:href="#path4_fill" transform="matrix(0.974403 -0.22481 0.225468 0.974251 -683.431 774.189)" fill="#EB5757"/>
</g>
<g id="Rectangle 21" mask="url(#mask1_alpha)">
<use xlink:href="#path4_fill" transform="matrix(0.974403 -0.22481 0.225468 0.974251 -675.9 772.452)" fill="#EB5757"/>
</g>
<g id="Rectangle 21" mask="url(#mask1_alpha)">
<use xlink:href="#path4_fill" transform="matrix(0.974403 -0.22481 0.225468 0.974251 -668.368 770.714)" fill="#EB5757"/>
</g>
<g id="Rectangle 21" mask="url(#mask1_alpha)">
<use xlink:href="#path4_fill" transform="matrix(0.974403 -0.22481 0.225468 0.974251 -712.872 780.982)" fill="#EB5757"/>
</g>
<g id="Rectangle 21" mask="url(#mask1_alpha)">
<use xlink:href="#path4_fill" transform="matrix(0.974403 -0.22481 0.225468 0.974251 -705.341 779.244)" fill="#EB5757"/>
</g>
</g>
<g id="Rectangle 22">
<mask id="mask3_outline_ins">
<use xlink:href="#path5_fill" fill="white" transform="matrix(0.974403 -0.22481 0.225468 0.974251 -761.896 809.116)"/>
</mask>
<g mask="url(#mask3_outline_ins)">
<use xlink:href="#path6_stroke_2x" transform="matrix(0.974403 -0.22481 0.225468 0.974251 -761.896 809.116)" fill="#EB5757"/>
</g>
</g>
</g>
<g id="Ellipse 3">
<use xlink:href="#path7_fill" transform="translate(-757.791 810.922)" fill="#EB5757"/>
</g>
</g>
</g>
<defs>
<path id="path0_fill" d="M 0 0L 18.8798 0L 18.8798 52.4545L 0 52.4545L 0 0Z"/>
<path id="path1_stroke_2x" d="M 0 0L 0 -2L -2 -2L -2 0L 0 0ZM 18.8798 0L 20.8798 0L 20.8798 -2L 18.8798 -2L 18.8798 0ZM 18.8798 52.4545L 18.8798 54.4545L 20.8798 54.4545L 20.8798 52.4545L 18.8798 52.4545ZM 0 52.4545L -2 52.4545L -2 54.4545L 0 54.4545L 0 52.4545ZM 0 2L 18.8798 2L 18.8798 -2L 0 -2L 0 2ZM 16.8798 0L 16.8798 52.4545L 20.8798 52.4545L 20.8798 0L 16.8798 0ZM 18.8798 50.4545L 0 50.4545L 0 54.4545L 18.8798 54.4545L 18.8798 50.4545ZM 2 52.4545L 2 0L -2 0L -2 52.4545L 2 52.4545Z"/>
<path id="path2_fill" d="M 0 0L 109.615 0L 109.615 9.01632L 0 9.01632L 0 0Z"/>
<path id="path3_stroke_2x" d="M 0 0L 0 -2L -2 -2L -2 0L 0 0ZM 109.615 0L 111.615 0L 111.615 -2L 109.615 -2L 109.615 0ZM 109.615 9.01632L 109.615 11.0163L 111.615 11.0163L 111.615 9.01632L 109.615 9.01632ZM 0 9.01632L -2 9.01632L -2 11.0163L 0 11.0163L 0 9.01632ZM 0 2L 109.615 2L 109.615 -2L 0 -2L 0 2ZM 107.615 0L 107.615 9.01632L 111.615 9.01632L 111.615 0L 107.615 0ZM 109.615 7.01632L 0 7.01632L 0 11.0163L 109.615 11.0163L 109.615 7.01632ZM 2 9.01632L 2 0L -2 0L -2 9.01632L 2 9.01632Z"/>
<path id="path4_fill" d="M 12.2965 0L 15.1071 0L 2.81063 32.3768L 0 32.3768L 12.2965 0Z"/>
<path id="path5_fill" d="M 0 0L 111.723 0L 111.723 9.01632L 0 9.01632L 0 0Z"/>
<path id="path6_stroke_2x" d="M 0 0L 0 -2L -2 -2L -2 0L 0 0ZM 111.723 0L 113.723 0L 113.723 -2L 111.723 -2L 111.723 0ZM 111.723 9.01632L 111.723 11.0163L 113.723 11.0163L 113.723 9.01632L 111.723 9.01632ZM 0 9.01632L -2 9.01632L -2 11.0163L 0 11.0163L 0 9.01632ZM 0 2L 111.723 2L 111.723 -2L 0 -2L 0 2ZM 109.723 0L 109.723 9.01632L 113.723 9.01632L 113.723 0L 109.723 0ZM 111.723 7.01632L 0 7.01632L 0 11.0163L 111.723 11.0163L 111.723 7.01632ZM 2 9.01632L 2 0L -2 0L -2 9.01632L 2 9.01632Z"/>
<path id="path7_fill" d="M 3.28345 1.6392C 3.28345 2.54451 2.54843 3.2784 1.64173 3.2784C 0.735025 3.2784 0 2.54451 0 1.6392C 0 0.733896 0.735025 0 1.64173 0C 2.54843 0 3.28345 0.733896 3.28345 1.6392Z"/>
</defs>
</svg>
