<svg width="104" height="77" viewBox="0 0 104 77" version="1.1" xmlns="http://www.w3.org/2000/svg" xmlns:xlink="http://www.w3.org/1999/xlink">
<g id="Canvas" transform="translate(999 -569)">
<g id="Group">
<g id="Group">
<g id="Line">
<use xlink:href="#path0_stroke" transform="matrix(-2.34297e-16 -1 1 -1.44025e-16 -963.508 636.892)" fill="#EB5757"/>
</g>
<g id="Line">
<use xlink:href="#path0_stroke" transform="matrix(-2.34297e-16 -1 1 -1.44025e-16 -980.016 636.892)" fill="#EB5757"/>
</g>
<g id="Line">
<use xlink:href="#path0_stroke" transform="matrix(-1.83129e-16 -1 1 -1.84267e-16 -946.175 636.892)" fill="#EB5757"/>
</g>
<g id="Line">
<use xlink:href="#path0_stroke" transform="matrix(-2.34297e-16 -1 1 -1.44025e-16 -928.841 636.892)" fill="#EB5757"/>
</g>
<g id="Line">
<use xlink:href="#path0_stroke" transform="matrix(-2.34297e-16 -1 1 -1.44025e-16 -912.333 636.892)" fill="#EB5757"/>
</g>
<g id="Union">
<mask id="mask0_outline_ins">
<use xlink:href="#path1_fill" fill="white" transform="translate(-999 569)"/>
</mask>
<g mask="url(#mask0_outline_ins)">
<use xlink:href="#path2_stroke_2x" transform="translate(-999 569)" fill="#EB5757"/>
</g>
</g>
</g>
</g>
</g>
<defs>
<path id="path0_stroke" d="M 0 0L 48.8495 0L 48.8495 -2L 0 -2L 0 0Z"/>
<path id="path1_fill" fill-rule="evenodd" d="M 19.1579 77L 33.7544 77L 36.4913 77L 51.0877 77L 52.9123 77L 68.4211 77L 70.2456 77L 84.8422 77L 87.5789 77L 104 77L 104 9.56805L 94.4211 0L 86.2105 8.20117L 78 0L 69.3333 8.6568L 60.6667 0L 52 8.6568L 43.3333 0L 35.1228 8.20117L 26.9123 0L 18.2456 8.6568L 9.57895 0L 0 9.56805L 3.05176e-05 77L 17.3334 77L 19.1579 77Z"/>
<path id="path2_stroke_2x" d="M 104 77L 104 79L 106 79L 106 77L 104 77ZM 104 9.56805L 106 9.56805L 106 8.73896L 105.413 8.15304L 104 9.56805ZM 94.4211 0L 95.8345 -1.41502L 94.4211 -2.82682L 93.0076 -1.41502L 94.4211 0ZM 86.2105 8.20117L 84.7971 9.61619L 86.2105 11.028L 87.6239 9.61619L 86.2105 8.20117ZM 78 0L 79.4134 -1.41502L 78 -2.82682L 76.5866 -1.41502L 78 0ZM 69.3333 8.6568L 67.9199 10.0718L 69.3333 11.4836L 70.7467 10.0718L 69.3333 8.6568ZM 60.6667 0L 62.0801 -1.41502L 60.6667 -2.82682L 59.2532 -1.41502L 60.6667 0ZM 52 8.6568L 50.5866 10.0718L 52 11.4836L 53.4134 10.0718L 52 8.6568ZM 43.3333 0L 44.7468 -1.41502L 43.3333 -2.82682L 41.9199 -1.41502L 43.3333 0ZM 35.1228 8.20117L 33.7094 9.61619L 35.1228 11.028L 36.5362 9.61619L 35.1228 8.20117ZM 26.9123 0L 28.3257 -1.41502L 26.9123 -2.82682L 25.4989 -1.41502L 26.9123 0ZM 18.2456 8.6568L 16.8322 10.0718L 18.2456 11.4836L 19.659 10.0718L 18.2456 8.6568ZM 9.57895 0L 10.9924 -1.41502L 9.57895 -2.82682L 8.16554 -1.41502L 9.57895 0ZM 0 9.56805L -1.41341 8.15304L -2 8.73896L -2 9.56806L 0 9.56805ZM 3.05176e-05 77L -1.99997 77L -1.99997 79L 3.05176e-05 79L 3.05176e-05 77ZM 33.7544 75L 19.1579 75L 19.1579 79L 33.7544 79L 33.7544 75ZM 36.4913 75L 33.7544 75L 33.7544 79L 36.4913 79L 36.4913 75ZM 51.0877 75L 36.4913 75L 36.4913 79L 51.0877 79L 51.0877 75ZM 52.9123 75L 51.0877 75L 51.0877 79L 52.9123 79L 52.9123 75ZM 68.4211 75L 52.9123 75L 52.9123 79L 68.4211 79L 68.4211 75ZM 70.2456 75L 68.4211 75L 68.4211 79L 70.2456 79L 70.2456 75ZM 84.8422 75L 70.2456 75L 70.2456 79L 84.8422 79L 84.8422 75ZM 84.8422 79L 87.5789 79L 87.5789 75L 84.8422 75L 84.8422 79ZM 87.5789 79L 104 79L 104 75L 87.5789 75L 87.5789 79ZM 106 77L 106 9.56805L 102 9.56806L 102 77L 106 77ZM 105.413 8.15304L 95.8345 -1.41502L 93.0076 1.41502L 102.587 10.9831L 105.413 8.15304ZM 93.0076 -1.41502L 84.7971 6.78615L 87.6239 9.61619L 95.8345 1.41502L 93.0076 -1.41502ZM 76.5866 1.41502L 84.7971 9.61619L 87.6239 6.78615L 79.4134 -1.41502L 76.5866 1.41502ZM 70.7467 10.0718L 79.4134 1.41502L 76.5866 -1.41502L 67.9199 7.24178L 70.7467 10.0718ZM 59.2532 1.41502L 67.9199 10.0718L 70.7467 7.24178L 62.0801 -1.41502L 59.2532 1.41502ZM 53.4134 10.0718L 62.0801 1.41502L 59.2532 -1.41502L 50.5866 7.24178L 53.4134 10.0718ZM 41.9199 1.41502L 50.5866 10.0718L 53.4134 7.24178L 44.7468 -1.41502L 41.9199 1.41502ZM 36.5362 9.61619L 44.7467 1.41502L 41.9199 -1.41502L 33.7094 6.78615L 36.5362 9.61619ZM 25.4989 1.41502L 33.7094 9.61619L 36.5362 6.78615L 28.3257 -1.41502L 25.4989 1.41502ZM 19.659 10.0718L 28.3257 1.41502L 25.4989 -1.41502L 16.8322 7.24178L 19.659 10.0718ZM 8.16554 1.41502L 16.8322 10.0718L 19.659 7.24178L 10.9924 -1.41502L 8.16554 1.41502ZM 1.41341 10.9831L 10.9924 1.41502L 8.16554 -1.41502L -1.41341 8.15304L 1.41341 10.9831ZM 2.00003 77L 2 9.56805L -2 9.56806L -1.99997 77L 2.00003 77ZM 17.3334 75L 3.05176e-05 75L 3.05176e-05 79L 17.3334 79L 17.3334 75ZM 19.1579 75L 17.3334 75L 17.3334 79L 19.1579 79L 19.1579 75Z"/>
</defs>
</svg>
