<svg width="114" height="46" viewBox="0 0 114 46" version="1.1" xmlns="http://www.w3.org/2000/svg" xmlns:xlink="http://www.w3.org/1999/xlink">
<title>&#160;&#133;&#238;</title>
<desc>Created using Figma</desc>
<g id="Canvas" transform="translate(1861 364)">
<g id="&#208;&#161;&#208;&#187;&#208;&#190;&#208;&#185; 1">
<g id="Group">
<g id="Vector">
<use xlink:href="#path0_fill" transform="translate(-1804.03 -358.259)" fill="#0D0F0F"/>
</g>
<g id="Vector">
<use xlink:href="#path1_fill" transform="translate(-1794.55 -353.209)" fill="#0D0F0F"/>
</g>
<g id="Vector">
<use xlink:href="#path2_fill" transform="translate(-1783.75 -353.209)" fill="#0D0F0F"/>
</g>
<g id="Vector">
<use xlink:href="#path3_fill" transform="translate(-1774.2 -353.209)" fill="#0D0F0F"/>
</g>
<g id="Vector">
<use xlink:href="#path4_fill" transform="translate(-1763.75 -353.071)" fill="#0D0F0F"/>
</g>
<g id="Vector">
<use xlink:href="#path5_fill" transform="translate(-1755.17 -353.071)" fill="#0D0F0F"/>
</g>
<g id="Vector">
<use xlink:href="#path6_fill" transform="translate(-1804.1 -336.746)" fill="#0D0F0F"/>
</g>
<g id="Vector">
<use xlink:href="#path7_fill" transform="translate(-1797.11 -331.627)" fill="#0D0F0F"/>
</g>
<g id="Vector">
<use xlink:href="#path8_fill" transform="translate(-1787.01 -331.696)" fill="#0D0F0F"/>
</g>
<g id="Vector">
<use xlink:href="#path9_fill" transform="translate(-1777.94 -331.627)" fill="#0D0F0F"/>
</g>
<g id="Vector">
<use xlink:href="#path10_fill" transform="translate(-1766.17 -331.627)" fill="#0D0F0F"/>
</g>
</g>
<g id="Group">
<g id="Vector">
<use xlink:href="#path11_fill" transform="translate(-1833.66 -355.215)" fill="#B7AC97"/>
</g>
<g id="Vector">
<use xlink:href="#path12_fill" transform="translate(-1836.98 -364)" fill="#B7AC97"/>
</g>
<g id="Vector">
<use xlink:href="#path13_fill" transform="translate(-1842.24 -356.668)" fill="#B7AC97"/>
</g>
<g id="Vector">
<use xlink:href="#path14_fill" transform="translate(-1826.32 -357.498)" fill="#B7AC97"/>
</g>
<g id="Vector">
<use xlink:href="#path15_fill" transform="translate(-1831.1 -362.132)" fill="#B7AC97"/>
</g>
<g id="Vector">
<use xlink:href="#path16_fill" transform="translate(-1845.01 -364)" fill="#B7AC97"/>
</g>
<g id="Vector">
<use xlink:href="#path17_fill" transform="translate(-1857.75 -357.498)" fill="#B7AC97"/>
</g>
<g id="Vector">
<use xlink:href="#path18_fill" transform="translate(-1852.35 -362.132)" fill="#B7AC97"/>
</g>
<g id="Vector">
<use xlink:href="#path19_fill" transform="translate(-1836.98 -333.979)" fill="#B7AC97"/>
</g>
<g id="Vector">
<use xlink:href="#path20_fill" transform="translate(-1848.96 -355.215)" fill="#B7AC97"/>
</g>
<g id="Vector">
<use xlink:href="#path21_fill" transform="translate(-1854.84 -341.104)" fill="#B7AC97"/>
</g>
<g id="Vector">
<use xlink:href="#path22_fill" transform="translate(-1850.34 -341.104)" fill="#B7AC97"/>
</g>
<g id="Vector">
<use xlink:href="#path23_fill" transform="translate(-1819.19 -341.104)" fill="#B7AC97"/>
</g>
<g id="Vector">
<use xlink:href="#path24_fill" transform="translate(-1859.27 -341.104)" fill="#B7AC97"/>
</g>
<g id="Vector">
<use xlink:href="#path25_fill" transform="translate(-1860.38 -343.317)" fill="#B7AC97"/>
</g>
<g id="Vector">
<use xlink:href="#path26_fill" transform="translate(-1861 -348.92)" fill="#B7AC97"/>
</g>
<g id="Vector">
<use xlink:href="#path27_fill" transform="translate(-1823.62 -341.104)" fill="#B7AC97"/>
</g>
<g id="Vector">
<use xlink:href="#path28_fill" transform="translate(-1845.91 -337.922)" fill="#B7AC97"/>
</g>
<g id="Vector">
<use xlink:href="#path29_fill" transform="translate(-1832.55 -337.922)" fill="#B7AC97"/>
</g>
<g id="Vector">
<use xlink:href="#path30_fill" transform="translate(-1828.12 -341.104)" fill="#B7AC97"/>
</g>
<g id="Vector">
<use xlink:href="#path31_fill" transform="translate(-1841.48 -333.91)" fill="#B7AC97"/>
</g>
</g>
</g>
</g>
<defs>
<path id="path0_fill" d="M 3.53005 0.0691814C 4.08378 0.0691814 4.56831 0.13835 5.05283 0.345869C 5.53734 0.553388 5.95264 0.830067 6.29872 1.17593C 6.6448 1.5218 6.92168 1.93685 7.12933 2.42106C 7.33698 2.90527 7.40619 3.38948 7.40619 3.87369C 7.40619 4.77294 7.12932 5.60302 6.57558 6.29474C 7.0601 6.70978 7.47541 7.19398 7.68306 7.74736C 7.89071 8.30074 8.02914 8.9233 8.02914 9.54586C 8.02914 10.1684 7.89071 10.7218 7.68306 11.206C 7.47541 11.7594 7.12933 12.1744 6.78325 12.5895C 6.36795 13.0045 5.95265 13.2812 5.39891 13.4887C 4.84518 13.6962 4.29145 13.8346 3.73771 13.8346L -8.44931e-06 13.8346L -8.44931e-06 4.22198e-06L 3.53005 4.22198e-06L 3.53005 0.0691814ZM 2.42258 2.55939L 2.42258 5.32631C 2.63023 5.32631 2.83789 5.32631 2.97632 5.32631C 3.11476 5.32631 3.3224 5.32631 3.53005 5.32631C 3.87613 5.32631 4.22221 5.18798 4.49908 4.91129C 4.77595 4.63459 4.91439 4.28871 4.91439 3.94285C 4.91439 3.59698 4.77595 3.25112 4.49908 2.97443C 4.22221 2.69774 3.87613 2.55939 3.53005 2.55939L 2.42258 2.55939ZM 2.42258 7.6782L 2.42258 11.4135L 3.66849 11.4135C 4.15301 11.4135 4.63752 11.206 4.98361 10.8601C 5.32969 10.5143 5.53733 10.0992 5.53733 9.54586C 5.53733 8.99248 5.32969 8.57744 4.98361 8.23158C 4.63752 7.88571 4.15301 7.6782 3.66849 7.6782L 2.42258 7.6782Z"/>
<path id="path1_fill" d="M 4.42987 -4.22198e-06C 5.05282 -4.22198e-06 5.60655 0.138342 6.16029 0.34586C 6.71402 0.553379 7.19854 0.89924 7.61384 1.31428C 8.02914 1.72931 8.37522 2.21353 8.58287 2.76691C 8.79052 3.3203 8.92896 3.87368 8.92896 4.49624C 8.92896 5.11879 8.79052 5.67218 8.58287 6.22556C 8.37522 6.77894 8.02914 7.26315 7.61384 7.60902C 7.19854 8.02406 6.71402 8.30074 6.16029 8.57744C 5.60655 8.78496 5.05282 8.9233 4.42987 8.9233C 3.80692 8.9233 3.25318 8.78496 2.69945 8.57744C 2.14572 8.36992 1.6612 8.02406 1.31511 7.60902C 0.96903 7.19398 0.553734 6.70977 0.346084 6.22556C 0.138434 5.74135 0 5.11879 0 4.49624C 0 3.87368 0.138434 3.3203 0.346084 2.76691C 0.553734 2.21353 0.899814 1.72932 1.31511 1.38345C 1.73041 0.968417 2.21493 0.622556 2.69945 0.415038C 3.25318 0.138346 3.80692 -4.22198e-06 4.42987 -4.22198e-06ZM 5.95265 2.90527C 5.53734 2.49023 5.05282 2.28272 4.42987 2.28272C 4.153 2.28272 3.87615 2.35188 3.59928 2.49023C 3.32241 2.62857 3.11476 2.76693 2.90711 2.97444C 2.69946 3.18196 2.56102 3.38948 2.42259 3.66617C 2.28415 3.94287 2.21494 4.21954 2.21494 4.49624C 2.21494 4.77293 2.28415 5.04963 2.42259 5.32632C 2.56102 5.60301 2.69946 5.81053 2.90711 6.01805C 3.11476 6.22557 3.32241 6.3639 3.59928 6.50225C 3.87615 6.64059 4.153 6.70978 4.42987 6.70978C 4.70674 6.70978 4.98361 6.6406 5.26048 6.57142C 5.53734 6.43308 5.745 6.29475 5.95265 6.08723C 6.1603 5.87971 6.29872 5.67219 6.43715 5.3955C 6.57558 5.11881 6.64481 4.84211 6.64481 4.56541C 6.64481 3.87368 6.43716 3.32031 5.95265 2.90527Z"/>
<path id="path2_fill" d="M 4.22466e-06 0.207527L 2.21493 0.207527L 2.21493 0.899257C 2.83788 0.345873 3.53006 -4.22198e-06 4.42987 -4.22198e-06C 4.91439 -4.22198e-06 5.39891 0.138342 5.81421 0.34586C 6.22951 0.553379 6.64482 0.89924 6.9909 1.31428C 7.33699 1.72931 7.61384 2.21353 7.82149 2.69774C 8.02914 3.25112 8.09835 3.8045 8.09835 4.42706C 8.09835 5.04962 8.02914 5.67217 7.82149 6.15638C 7.61384 6.70977 7.33699 7.19398 6.9909 7.53984C 6.64482 7.95488 6.22951 8.23158 5.81421 8.4391C 5.39891 8.64662 4.91439 8.78497 4.42987 8.78497C 3.59927 8.78497 2.83788 8.50827 2.21493 7.95488L 2.21493 11.4135L 4.22466e-06 11.4135L 4.22466e-06 0.207527ZM 2.8379 2.90527C 2.4226 3.38948 2.28415 3.87368 2.28415 4.49624C 2.28415 4.77293 2.35337 5.04963 2.42259 5.32632C 2.49181 5.60301 2.63025 5.81053 2.8379 6.01805C 2.97633 6.22557 3.18397 6.3639 3.39162 6.50225C 3.59927 6.64059 3.87614 6.70978 4.08379 6.70978C 4.36066 6.70978 4.56831 6.64059 4.77596 6.50225C 4.98361 6.3639 5.19125 6.22557 5.32968 6.01805C 5.46812 5.81053 5.60655 5.60301 5.74499 5.32632C 5.8142 5.04963 5.88343 4.77293 5.88343 4.49624C 5.88343 4.21954 5.8142 3.94287 5.74499 3.66617C 5.67577 3.38948 5.53733 3.18196 5.32968 2.97444C 5.19125 2.76693 4.98361 2.62857 4.77596 2.49023C 4.56831 2.35188 4.29144 2.28272 4.08379 2.28272C 3.59927 2.28272 3.18398 2.49023 2.8379 2.90527Z"/>
<path id="path3_fill" d="M 4.42986 -4.22198e-06C 5.05281 -4.22198e-06 5.60655 0.138342 6.16028 0.34586C 6.71402 0.553379 7.19854 0.89924 7.61384 1.31428C 8.02914 1.72931 8.37522 2.21353 8.58287 2.76691C 8.79052 3.3203 8.92895 3.87368 8.92895 4.49624C 8.92895 5.11879 8.79052 5.67218 8.58287 6.22556C 8.37522 6.77894 8.02914 7.26315 7.61384 7.60902C 7.19854 8.02406 6.71402 8.30074 6.16028 8.57744C 5.60655 8.85413 5.05281 8.9233 4.42986 8.9233C 3.80691 8.9233 3.25318 8.78496 2.69945 8.57744C 2.14571 8.36992 1.66119 8.02406 1.31511 7.60902C 0.969026 7.19398 0.622947 6.70977 0.34608 6.22556C 0.0692125 5.74135 -4.22466e-06 5.11879 -4.22466e-06 4.49624C -4.22466e-06 3.87368 0.138429 3.3203 0.34608 2.76691C 0.55373 2.21353 0.899809 1.72932 1.31511 1.38345C 1.73041 0.968417 2.21493 0.622556 2.69945 0.415038C 3.25318 0.138346 3.80691 -4.22198e-06 4.42986 -4.22198e-06ZM 6.02186 2.90527C 5.60656 2.49023 5.12204 2.28272 4.49908 2.28272C 4.22222 2.28272 3.94536 2.35188 3.6685 2.49023C 3.39163 2.62857 3.18398 2.76693 2.97633 2.97444C 2.76868 3.18196 2.63024 3.38948 2.4918 3.66617C 2.35337 3.94287 2.28416 4.21954 2.28416 4.49624C 2.28416 4.77293 2.35337 5.04963 2.4918 5.32632C 2.63024 5.60301 2.76868 5.81053 2.97633 6.01805C 3.18398 6.22557 3.39163 6.3639 3.6685 6.50225C 3.94536 6.64059 4.22222 6.70978 4.49908 6.70978C 4.77595 6.70978 5.05283 6.6406 5.32969 6.57142C 5.60656 6.43308 5.81421 6.29475 6.02186 6.08723C 6.22951 5.87971 6.36793 5.67219 6.50637 5.3955C 6.6448 5.11881 6.71403 4.84211 6.71403 4.56541C 6.64481 3.87368 6.43716 3.32031 6.02186 2.90527Z"/>
<path id="path4_fill" d="M 7.54462 2.21353L 4.91439 2.21353L 4.91439 8.57744L 2.69945 8.57744L 2.69945 2.21353L 0 2.21353L 0 4.22198e-06L 7.54462 4.22198e-06L 7.54462 2.21353Z"/>
<path id="path5_fill" d="M 8.16759 0.0691814L 8.16759 8.64662L 5.95264 8.64662L 5.95264 7.95489C 5.60656 8.23158 5.26047 8.4391 4.91439 8.57744C 4.56831 8.71579 4.153 8.78495 3.7377 8.78495C 3.25318 8.78495 2.76868 8.64661 2.28416 8.43909C 1.86886 8.23157 1.45355 7.88571 1.10747 7.53985C 0.761384 7.12481 0.484509 6.70977 0.276859 6.15639C 0.0692083 5.60301 -4.22466e-06 5.04962 -4.22466e-06 4.42707C -4.22466e-06 3.80451 0.0692083 3.25113 0.276859 2.69774C 0.484509 2.14436 0.761384 1.66015 1.10747 1.31429C 1.45355 0.899248 1.86886 0.622561 2.28416 0.345869C 2.69946 0.0691771 3.18398 4.22198e-06 3.6685 4.22198e-06C 4.4991 4.22198e-06 5.19125 0.276688 5.88342 0.899244L 5.88342 0.207515L 8.16759 0.207515L 8.16759 0.0691814ZM 5.32969 2.69774C 4.98361 2.35188 4.5683 2.14437 4.08378 2.14437C 3.80691 2.14437 3.59926 2.21353 3.39161 2.35188C 3.18396 2.49023 2.97632 2.62858 2.83789 2.8361C 2.69945 3.04362 2.56102 3.25114 2.42258 3.52783C 2.35337 3.80452 2.28416 4.0812 2.28416 4.35789C 2.28416 4.63458 2.35337 4.91128 2.42258 5.18797C 2.4918 5.46467 2.63024 5.67218 2.83789 5.8797C 2.97632 6.08722 3.18396 6.22556 3.39161 6.3639C 3.59926 6.50225 3.87613 6.57143 4.08378 6.57143C 4.36065 6.57143 4.5683 6.50225 4.77595 6.3639C 4.9836 6.22556 5.19127 6.08722 5.39892 5.8797C 5.53735 5.67218 5.67577 5.46467 5.8142 5.18797C 5.88342 4.91128 5.95264 4.63458 5.95264 4.35789C 5.95264 3.73533 5.745 3.18196 5.32969 2.69774Z"/>
<path id="path6_fill" d="M 8.44931e-06 13.7654L 8.44931e-06 8.44396e-06L 6.71402 8.44396e-06L 6.71402 2.49022L 2.49179 2.49022L 2.49179 13.6962L 8.44931e-06 13.6962L 8.44931e-06 13.7654Z"/>
<path id="path7_fill" d="M 8.16758 0.0691814L 8.16758 8.64662L 5.95264 8.64662L 5.95264 7.95489C 5.60655 8.23158 5.26047 8.4391 4.91439 8.57744C 4.5683 8.71579 4.15301 8.78495 3.73771 8.78495C 3.2532 8.78495 2.76867 8.64661 2.28416 8.43909C 1.86886 8.23157 1.45355 7.88571 1.10746 7.53985C 0.76138 7.12481 0.484526 6.70977 0.276875 6.15639C 0.0692252 5.60301 -8.44931e-06 5.04962 -8.44931e-06 4.42707C -8.44931e-06 3.80451 0.0692252 3.25113 0.276875 2.69774C 0.484526 2.14436 0.76138 1.66015 1.10746 1.31429C 1.45355 0.899248 1.86886 0.622561 2.28416 0.345869C 2.69946 0.0691771 3.18397 4.22198e-06 3.66849 4.22198e-06C 4.49909 4.22198e-06 5.19125 0.276688 5.88342 0.899244L 5.88342 0.207515L 8.16758 0.207515L 8.16758 0.0691814ZM 5.32969 2.69774C 4.98361 2.35188 4.56831 2.14437 4.0838 2.14437C 3.80693 2.14437 3.59928 2.21353 3.39163 2.35188C 3.18398 2.49023 2.97632 2.62858 2.83788 2.8361C 2.69945 3.04362 2.56101 3.25114 2.42258 3.52783C 2.28414 3.80452 2.28416 4.0812 2.28416 4.35789C 2.28416 4.63458 2.35336 4.91128 2.42258 5.18797C 2.49179 5.46467 2.63023 5.67218 2.83788 5.8797C 2.97632 6.08722 3.18398 6.22556 3.39163 6.3639C 3.59928 6.50225 3.87615 6.57143 4.0838 6.57143C 4.36066 6.57143 4.56831 6.50225 4.77596 6.3639C 4.98361 6.22556 5.19126 6.08722 5.39891 5.8797C 5.53734 5.67218 5.67578 5.46467 5.81422 5.18797C 5.88343 4.91128 5.95264 4.63458 5.95264 4.35789C 5.95264 3.73533 5.74499 3.18196 5.32969 2.69774Z"/>
<path id="path8_fill" d="M 7.75228 0.0691772L 4.42986 11.4135L 2.0765 11.4135L 3.04553 8.02407C 2.56101 6.77895 2.07651 5.46465 1.52277 4.01202C 0.969039 2.62856 0.484513 1.31429 -4.22466e-06 0L 2.42258 0L 4.08378 4.35789C 4.29143 3.59698 4.4991 2.90527 4.70675 2.14437C 4.9144 1.38346 5.12204 0.691729 5.32969 0L 7.75228 0L 7.75228 0.0691772Z"/>
<path id="path9_fill" d="M 1.10747 6.3639C 1.10747 6.29473 1.10747 6.29474 1.10747 6.29474L 1.10747 2.42106C 1.10747 2.14437 1.17668 1.79849 1.31511 1.5218C 1.45355 1.2451 1.59199 0.96843 1.79964 0.760911C 2.00729 0.553392 2.28416 0.34586 2.56103 0.207515C 2.8379 0.0691687 3.18397 4.22198e-06 3.46084 4.22198e-06L 8.30601 4.22198e-06L 8.30601 6.3639L 9.34426 6.3639L 9.34426 9.82255L 7.19854 9.82255L 7.19854 8.64662L 2.14572 8.64662C 2.14572 8.71579 2.14572 8.78496 2.14572 8.85413C 2.14572 8.9233 2.14572 8.99249 2.14572 9.06166L 2.14572 9.82255L 0 9.82255L 0 6.3639L 1.10747 6.3639ZM 6.02187 6.3639L 6.02187 2.35188L 3.46084 2.35188C 3.39162 2.35188 3.39162 2.35188 3.39162 2.42106L 3.39162 6.3639L 6.02187 6.3639Z"/>
<path id="path10_fill" d="M 4.91439 8.64662L 4.91439 4.0812C 4.70674 4.35789 4.5683 4.63459 4.36065 4.91129C 4.153 5.18798 3.94536 5.46466 3.80692 5.74135C 3.46084 6.22556 3.11475 6.70978 2.76867 7.26316C 2.42259 7.74737 2.14571 8.23158 1.93806 8.64662L 0 8.64662L 0 4.22198e-06L 2.21494 4.22198e-06L 2.21494 4.28871C 2.35338 4.08119 2.56102 3.80452 2.76867 3.52783C 2.97632 3.25114 3.18396 2.97444 3.3224 2.69774C 3.66848 2.28271 3.94536 1.7985 4.29145 1.38346C 4.56831 0.968425 4.91439 0.484219 5.12204 0.0691814L 7.06012 0.0691814L 7.06012 8.7158L 4.91439 8.7158L 4.91439 8.64662Z"/>
<path id="path11_fill" d="M 1.6612 0L 0 4.0812L 6.43716 4.0812C 5.12204 2.35188 3.53005 0.968421 1.6612 0Z"/>
<path id="path12_fill" d="M 5.81421 1.03759C 3.94536 0.484202 2.00728 0.0691645 -2.11233e-06 -8.44396e-06L -2.11233e-06 5.11881C 1.31512 5.18798 2.56102 5.46465 3.80692 5.87969L 5.81421 1.03759Z"/>
<path id="path13_fill" d="M 2.07651 5.53383L 6.09107 5.53383L 8.16757 0.622548C 6.85245 0.20751 5.53734 -4.22198e-06 4.08379 -4.22198e-06C 2.63024 -4.22198e-06 1.31512 0.20751 4.22466e-06 0.622548L 2.07651 5.53383Z"/>
<path id="path14_fill" d="M 4.22466e-06 3.94285C 0.622955 4.70376 1.24591 5.46466 1.73042 6.36391L 7.89071 6.36391C 6.92168 4.01203 5.60655 1.86768 3.94535 8.44396e-06L 0.138436 3.80452C 0.0692189 3.87369 4.22466e-06 3.94285 4.22466e-06 3.94285Z"/>
<path id="path15_fill" d="M 3.3224 6.91729L 7.12933 3.11278C 6.85246 2.83609 6.57559 2.62857 6.22951 2.35188C 4.91439 1.38345 3.46084 0.622556 2.00729 0L -2.11233e-06 4.91128C 1.17668 5.46467 2.28415 6.22557 3.25318 7.05565C 3.25318 6.98647 3.25319 6.98647 3.3224 6.91729Z"/>
<path id="path16_fill" d="M 5.81421 5.11881L 5.81421 -8.44396e-06C 3.80692 0.0691645 1.86886 0.484202 4.22466e-06 1.03759L 2.00729 5.87969C 3.18397 5.53383 4.49909 5.25715 5.81421 5.11881Z"/>
<path id="path17_fill" d="M 7.89072 3.94285C 7.8215 3.87368 7.75227 3.87369 7.75227 3.80452L 3.94535 8.44396e-06C 2.28415 1.86768 0.969033 4.01203 -2.11233e-06 6.36391L 6.1603 6.36391C 6.64481 5.53383 7.19855 4.70376 7.89072 3.94285Z"/>
<path id="path18_fill" d="M 4.01457 7.05565C 4.98361 6.22557 6.09107 5.46467 7.26776 4.91128L 5.19126 0C 3.66849 0.622556 2.28416 1.45263 0.89982 2.42105C 0.622953 2.62857 0.276867 2.90527 0 3.18196L 3.80692 6.98647C 3.94536 6.98647 3.94536 6.98647 4.01457 7.05565Z"/>
<path id="path19_fill" d="M -2.11233e-06 8.43909C 0.622949 8.43909 1.10747 8.92331 1.10747 9.54587C 1.10747 10.1684 0.622949 10.6526 -2.11233e-06 10.6526L -2.11233e-06 15.9098C 0.761382 15.8406 1.52276 15.7714 2.21493 15.7023L 2.21493 8.44396e-06C 1.52276 0.2767 0.761382 0.484211 -2.11233e-06 0.553383L -2.11233e-06 8.43909Z"/>
<path id="path20_fill" d="M -4.22466e-06 4.0812L 6.43716 4.0812L 4.77596 0C 2.83789 0.968421 1.2459 2.35188 -4.22466e-06 4.0812Z"/>
<path id="path21_fill" d="M -4.22466e-06 15.9098C 0.692163 16.6707 1.45356 17.3624 2.21494 17.985L 2.21494 -4.22198e-06L -4.22466e-06 -4.22198e-06L -4.22466e-06 15.9098Z"/>
<path id="path22_fill" d="M -4.22466e-06 19.5759C 0.692163 20.0602 1.45356 20.4752 2.21494 20.8211L 2.21494 -4.22198e-06L -4.22466e-06 -4.22198e-06L -4.22466e-06 19.5759Z"/>
<path id="path23_fill" d="M -4.22466e-06 13.212C 0.899814 11.9669 1.59199 10.6526 2.21494 9.20001L 2.21494 -4.22198e-06L -4.22466e-06 -4.22198e-06L -4.22466e-06 13.212Z"/>
<path id="path24_fill" d="M 0 9.20001C 0.622951 10.5835 1.38433 11.9669 2.21493 13.212L 2.21493 -4.22198e-06L 0 -4.22198e-06L 0 9.20001Z"/>
<path id="path25_fill" d="M -4.22466e-06 8.44396e-06L 14.4663 8.44396e-06C 15.0893 8.44396e-06 15.5738 0.484202 15.5738 1.10676C 15.5738 4.77292 18.5501 7.74736 22.2878 7.74736C 25.9563 7.74736 28.9326 4.77292 28.9326 1.10676C 28.9326 0.484202 29.4171 8.44396e-06 30.0401 8.44396e-06L 44.5064 8.44396e-06"/>
<path id="path26_fill" d="M 45.7523 5.60302C 45.5446 3.66617 45.1293 1.7985 44.5064 4.22198e-06L 35.7159 4.22198e-06L 1.2459 4.22198e-06C 0.622953 1.7985 0.138434 3.597 0 5.53384"/>
<path id="path27_fill" d="M 0 17.985C 0.761384 17.3624 1.52278 16.6707 2.21494 15.9098L 2.21494 -4.22198e-06L 0 -4.22198e-06L 0 17.985Z"/>
<path id="path28_fill" d="M 2.11233e-06 0L 2.11233e-06 18.5383C 0.69217 18.815 1.45355 19.0225 2.21494 19.2301L 2.21494 2.62856C 1.31512 1.93683 0.553736 1.03759 2.11233e-06 0Z"/>
<path id="path29_fill" d="M 4.22466e-06 2.62856L 4.22466e-06 19.2301C 0.761389 19.0225 1.52277 18.815 2.21494 18.5383L 2.21494 0C 1.6612 1.03759 0.899822 1.93683 4.22466e-06 2.62856Z"/>
<path id="path30_fill" d="M 0 20.8211C 0.761384 20.4752 1.52277 20.0602 2.21493 19.5759L 2.21493 -4.22198e-06L 0 -4.22198e-06L 0 20.8211Z"/>
<path id="path31_fill" d="M -2.11233e-06 15.7023C 0.761382 15.8406 1.45355 15.9098 2.21493 15.9098L 2.21493 10.6526C 1.59198 10.6526 1.10747 10.1684 1.10747 9.54587C 1.10747 8.92331 1.59198 8.4391 2.21493 8.4391L 2.21493 0.553388C 1.45355 0.484215 0.692165 0.276683 -2.11233e-06 -8.44396e-06L -2.11233e-06 15.7023Z"/>
</defs>
</svg>
